<svg width="931" height="850" fill="none" xmlns="http://www.w3.org/2000/svg"><path d="m541.808 229.368 43.206-183.641c9.665 3.335 19.39 6.897 29.095 10.068 18.028 7.557 35.078 18.184 50.306 31.009 15.456 13.011 29.039 28.288 39.859 44.902l.85 1.314c-54.727 33.277-109.431 66.598-164.154 99.89l.838-3.542zm-295.903-63.822h102.166a4.49 4.49 0 0 0 1.498-.255 4.68 4.68 0 0 0 1.41-.835 202.884 202.884 0 0 1 27.257-16.894 201.352 201.352 0 0 1 29.503-12.357c16.638-5.464 34.016-8.739 51.56-9.753a204.64 204.64 0 0 1 52.464 3.71l1.753.356-46.556 197.887c-.899 3.826 3.295 6.797 6.741 4.576 56.889-35.928 115.854-70.515 173.429-105.537l.882 1.55c22.626 39.759 30.493 84.601 24.682 127.551-5.835 43.098-25.444 84.306-57.731 116.592-35.557 35.561-81.422 55.423-128.473 58.977-47.14 3.563-95.477-9.241-135.835-39.003a4.289 4.289 0 0 0-2.58-.847h-1.733v-.036H220.707c-2.224 0-4.353-.443-6.298-1.25a16.611 16.611 0 0 1-5.344-3.575c-3.358-3.354-4.852-7.476-4.852-11.522 0-2.212.455-4.409 1.302-6.438a16.84 16.84 0 0 1 3.642-5.46c2.872-2.875 6.854-4.74 11.554-4.74h85.041a4.379 4.379 0 0 0 2.804-1.019 4.502 4.502 0 0 0 1.162-1.477 4.19 4.19 0 0 0 .419-1.822c0-.99-.367-2.06-1.218-3.079-2.927-3.47-16.75-25.908-19.002-30.401a4.347 4.347 0 0 0-1.602-1.745 4.457 4.457 0 0 0-2.292-.659l-192.108.008c-7.86 0-12.852-4.262-15.045-9.729a18.009 18.009 0 0 1-1.258-6.674c.004-2.28.431-4.577 1.274-6.682 2.22-5.551 7.253-9.9 15.025-9.9h176.296c.451 0 .887-.068 1.294-.188a4.289 4.289 0 0 0 2.185-1.51 4.346 4.346 0 0 0 .866-2.636c0-.499-.08-1.022-.239-1.561-1.614-5.216-4.757-24.463-5.396-30.353a4.359 4.359 0 0 0-4.341-3.934l-111.452-.016a16.19 16.19 0 0 1-6.291-1.25 16.634 16.634 0 0 1-5.359-3.579c-3.359-3.351-4.849-7.46-4.849-11.502 0-2.213.455-4.409 1.302-6.438a16.964 16.964 0 0 1 3.642-5.464c2.876-2.879 6.858-4.745 11.559-4.745h111.46c1.194 0 2.28-.475 3.067-1.25a4.395 4.395 0 0 0 1.314-3.027c.072-5.244 4.19-24.207 5.456-30.449.091-.355.135-.731.135-1.106 0-.979-.339-1.913-.914-2.652a4.335 4.335 0 0 0-2.341-1.558 4.49 4.49 0 0 0-1.098-.132l-176.284-.028c-2.22.008-4.35-.439-6.294-1.246a16.515 16.515 0 0 1-5.352-3.574c-3.359-3.359-4.857-7.485-4.857-11.534a16.899 16.899 0 0 1 1.294-6.434 16.905 16.905 0 0 1 3.639-5.456c2.88-2.872 6.861-4.737 11.566-4.737h192.108a4.361 4.361 0 0 0 3.978-2.544c2.16-4.669 15.891-26.355 19.214-30.644a4.232 4.232 0 0 0 .887-2.573c0-.678-.172-1.357-.484-1.972a4.61 4.61 0 0 0-1.302-1.582 4.234 4.234 0 0 0-2.572-.855l-4.01-.032-55.833.008a16.47 16.47 0 0 1-6.291-1.254 16.647 16.647 0 0 1-5.36-3.578c-3.354-3.351-4.852-7.473-4.852-11.518 0-2.213.451-4.41 1.298-6.435a16.915 16.915 0 0 1 3.638-5.455c2.88-2.864 6.858-4.729 11.567-4.725zm-79.098 320.885c-2.832 2.828-6.758 4.661-11.399 4.661H107.21a16.1 16.1 0 0 1-6.218-1.242 16.365 16.365 0 0 1-5.288-3.535c-3.319-3.31-4.788-7.376-4.788-11.358 0-2.189.45-4.361 1.286-6.366a16.705 16.705 0 0 1 3.598-5.4c2.836-2.839 6.77-4.681 11.41-4.681h48.194a16.289 16.289 0 0 1 11.498 4.769c3.315 3.327 4.793 7.405 4.793 11.394 0 2.189-.447 4.358-1.282 6.363a16.624 16.624 0 0 1-3.606 5.395zM96.735 344.746H26.97c-2.188 0-4.29-.44-6.21-1.242a16.415 16.415 0 0 1-5.292-3.547c-3.307-3.223-4.793-7.281-4.793-11.294 0-2.153.428-4.294 1.238-6.283a16.834 16.834 0 0 1 3.499-5.379c2.832-2.916 6.801-4.833 11.558-4.833h69.765c2.188 0 4.289.443 6.21 1.242a16.375 16.375 0 0 1 5.292 3.539c3.315 3.307 4.792 7.376 4.792 11.374 0 2.185-.447 4.353-1.282 6.358a16.658 16.658 0 0 1-3.594 5.396c-2.832 2.832-6.762 4.669-11.418 4.669zm85.771-146.351h-31.491c-2.277 0-4.561-.615-6.478-1.413-2.285-.951-4.118-2.373-4.96-3.427l-.064.064c-3.311-3.315-4.789-7.385-4.789-11.371 0-2.18.451-4.349 1.282-6.354a16.787 16.787 0 0 1 3.594-5.391c2.844-2.836 6.77-4.677 11.411-4.677h31.487c2.189 0 4.29.439 6.215 1.242a16.42 16.42 0 0 1 5.292 3.534c3.314 3.307 4.788 7.381 4.788 11.375a16.759 16.759 0 0 1-4.872 11.75c-2.836 2.831-6.766 4.672-11.415 4.668z" fill="#FDCF25"/><path d="M311.28 500.25h35.637l.403.292a212.12 212.12 0 0 0 27.881 17.069 211.394 211.394 0 0 0 30.058 12.529c38.241 12.561 78.096 13.711 115.374 4.813 37.714-8.999 72.808-28.281 100.953-56.421 33.76-33.768 54.244-76.862 60.307-121.908 6.038-44.911-2.249-91.775-25.976-133.303l-.739-1.286 21.634-13.164.775 1.35c26.743 46.513 36.14 99.067 29.435 149.446-6.734 50.542-29.666 98.907-67.532 136.773-45.106 45.106-104.008 68.379-163.34 69.541-59.321 1.166-119.073-19.778-165.9-63.091l-2.856-2.64h3.886zM664.963 75.433c-6.754-5.3-13.815-10.168-21.519-14.849a201.593 201.593 0 0 0-26.627-13.583c-9.13-3.846-18.563-7.053-28.308-9.693l-1.422-.388 5.799-24.662 1.513.396c28.704 7.516 55.455 20.329 79.031 37.438a238.825 238.825 0 0 1 60.319 63.678l.842 1.31-21.558 13.124-21-27.418-7.556-8c-6.387-6.37-12.781-12.069-19.514-17.353zm-397.12 132.12h29.043l-13.407 22.29h-28.161l1.019-2.173a236.378 236.378 0 0 1 4.872-9.797 236.051 236.051 0 0 1 5.328-9.561l.443-.759h.863zm140.22-108.057c35.649-9.889 73.886-11.518 111.867-3.646l1.538.32-5.803 24.649-1.45-.295a213.287 213.287 0 0 0-54.931-3.954c-18.36 1.054-36.544 4.477-54.009 10.216a210.48 210.48 0 0 0-30.101 12.537 213.468 213.468 0 0 0-27.873 17.057l-.404.292h-39.491l2.856-2.64a237.562 237.562 0 0 1 97.801-54.536zM239.998 280.733h24.578l-3.85 22.285h-25.437l.196-1.701c.363-3.195.807-6.442 1.314-9.729a234.116 234.116 0 0 1 1.697-9.625l.244-1.234 1.258.004zm-2.995 73.175h23.735l3.85 22.285h-25.844l-.244-1.238a233.56 233.56 0 0 1-1.697-9.637 238.384 238.384 0 0 1-1.314-9.725l-.192-1.689 1.706.004zm20.708 73.171h25.768l13.407 22.285h-29.91l-.443-.754a241.329 241.329 0 0 1-5.328-9.57 238.041 238.041 0 0 1-4.872-9.792l-1.019-2.169h2.397z" fill="#F49C48"/><path d="M325.078 276.515c13.036 0 23.604 10.568 23.604 23.604 0 13.039-10.568 23.603-23.604 23.603-13.035 0-23.603-10.568-23.603-23.603 0-13.036 10.568-23.604 23.603-23.604zm26.284 205.279H225.736c-2.221 0-4.354-.447-6.299-1.254a16.518 16.518 0 0 1-5.343-3.57c-3.223-3.227-4.733-7.153-4.845-11.043-.004-.16-.008-.32-.008-.479 0-.935.084-1.87.24-2.788-.108.1-.22.212-.324.315a16.959 16.959 0 0 0-3.646 5.46 16.79 16.79 0 0 0-1.302 6.442c0 4.042 1.498 8.163 4.852 11.522a16.536 16.536 0 0 0 5.344 3.571 16.417 16.417 0 0 0 6.298 1.25H346.33v.036h1.733c.459 0 .923.076 1.362.215.419.136.835.352 1.218.631 40.358 29.759 88.695 42.563 135.835 39.004 47.047-3.554 92.916-23.408 128.473-58.973a202.838 202.838 0 0 0 38.066-52.79 203.21 203.21 0 0 1-15.069 22.813 204.667 204.667 0 0 1-17.964 20.548c-35.561 35.557-81.427 55.418-128.474 58.977-47.143 3.558-95.477-9.242-135.839-39.008a4.301 4.301 0 0 0-2.58-.847h-1.733l.004-.032zm-184.555 4.637a16.656 16.656 0 0 0 3.606-5.395 17.017 17.017 0 0 0 1.062-3.687 16.176 16.176 0 0 1-1.913 1.538c-2.528 1.729-5.623 2.772-9.13 2.772h-48.193c-2.193 0-4.298-.44-6.215-1.238a16.38 16.38 0 0 1-5.288-3.539c-3.319-3.311-4.788-7.373-4.788-11.359v-.231c.012-.827.088-1.65.227-2.464a16.705 16.705 0 0 0-3.97 5.763 16.683 16.683 0 0 0-1.281 6.366c0 3.982 1.47 8.048 4.788 11.358A16.365 16.365 0 0 0 101 489.85a16.139 16.139 0 0 0 6.214 1.242h48.194c4.637 0 8.563-1.833 11.399-4.661zm124.244-77.82-192.108.008c-7.856 0-12.852-4.261-15.045-9.729a17.918 17.918 0 0 1-1.254-6.43v-.243c0-1.059.096-2.113.276-3.156-1.797 1.638-3.143 3.671-4.034 5.903a18.336 18.336 0 0 0-1.274 6.686 17.948 17.948 0 0 0 1.258 6.674c2.189 5.463 7.185 9.725 15.045 9.725l192.108-.004c.798 0 1.597.231 2.292.655a4.32 4.32 0 0 1 1.602 1.745c1.977 3.95 12.888 21.75 17.497 28.372h3.363a4.38 4.38 0 0 0 2.803-1.022 4.501 4.501 0 0 0 1.162-1.474c.268-.555.42-1.174.42-1.821 0-.991-.368-2.061-1.218-3.079-2.928-3.475-16.751-25.908-18.999-30.405a4.376 4.376 0 0 0-1.602-1.746 4.4 4.4 0 0 0-2.292-.659zm-154.426-80.072c0 4.038 1.49 8.147 4.849 11.498a16.469 16.469 0 0 0 11.65 4.833l111.464.02a4.37 4.37 0 0 1 2.931 1.13 4.34 4.34 0 0 1 1.41 2.799c.531 4.937 2.824 19.231 4.501 26.819h1.813c.164 0 .32-.012.476-.024a4.24 4.24 0 0 0 .818-.168 4.298 4.298 0 0 0 2.185-1.505 4.335 4.335 0 0 0 .867-2.64c0-.495-.08-1.019-.24-1.558-1.614-5.216-4.757-24.462-5.396-30.353a4.342 4.342 0 0 0-1.41-2.804 4.375 4.375 0 0 0-2.931-1.13l-111.464-.02a16.344 16.344 0 0 1-6.29-1.25 16.61 16.61 0 0 1-5.36-3.582c-3.227-3.219-4.729-7.133-4.841-11.019-.004-.16-.008-.32-.008-.48 0-.938.084-1.873.24-2.795-.108.107-.22.215-.328.319a16.9 16.9 0 0 0-3.642 5.464 16.803 16.803 0 0 0-1.294 6.446zm-34.862 6.777H31.998c-2.188 0-4.289-.439-6.21-1.242a16.43 16.43 0 0 1-5.292-3.546c-3.307-3.223-4.792-7.281-4.792-11.295v-.283c.015-.827.091-1.65.231-2.465-.18.168-.355.344-.523.52a16.768 16.768 0 0 0-3.499 5.379 16.758 16.758 0 0 0-1.238 6.283c0 4.013 1.486 8.071 4.793 11.294a16.415 16.415 0 0 0 5.292 3.547 16.168 16.168 0 0 0 6.21 1.242h69.765c4.656 0 8.586-1.837 11.422-4.673a16.722 16.722 0 0 0 3.594-5.396 17 17 0 0 0 1.055-3.666 16.614 16.614 0 0 1-1.913 1.538c-2.528 1.721-5.624 2.763-9.13 2.763zm173.464-73.027-176.284-.028a16.26 16.26 0 0 1-6.294-1.246 16.536 16.536 0 0 1-5.352-3.575c-3.227-3.227-4.737-7.161-4.848-11.055-.004-.159-.004-.319-.004-.479 0-.934.084-1.873.243-2.788-.116.108-.227.22-.335.328a16.96 16.96 0 0 0-3.643 5.456 17.043 17.043 0 0 0-1.294 6.43c0 4.049 1.498 8.175 4.857 11.538a16.507 16.507 0 0 0 5.352 3.57 16.397 16.397 0 0 0 6.294 1.25l176.284.028c.395 0 .767.044 1.098.132a4.314 4.314 0 0 1 2.341 1.558 4.31 4.31 0 0 1 .914 2.652c0 .375-.044.75-.135 1.106-.991 4.872-3.715 17.497-4.897 25.293h.092c.911 0 1.753-.276 2.452-.751a4.381 4.381 0 0 0 1.929-3.53c.068-5.244 4.19-24.203 5.456-30.446.092-.359.136-.734.136-1.106 0-.982-.34-1.913-.915-2.652a4.33 4.33 0 0 0-2.34-1.557 4.83 4.83 0 0 0-1.107-.128zm-81.298-68.574a16.759 16.759 0 0 0 3.594-5.392 16.493 16.493 0 0 0 1.055-3.674 15.893 15.893 0 0 1-1.914 1.541c-2.528 1.73-5.623 2.772-9.129 2.772h-31.488c-2.276 0-4.561-.615-6.478-1.414-2.284-.95-4.118-2.372-4.964-3.427l-.06.064c-3.315-3.315-4.789-7.384-4.789-11.37v-.224c.008-.823.084-1.641.224-2.452-.128.116-.252.24-.376.363a16.759 16.759 0 0 0-3.594 5.392 16.622 16.622 0 0 0-1.282 6.354c0 3.986 1.478 8.056 4.789 11.367l.06-.06c.842 1.058 2.675 2.476 4.964 3.427 1.913.798 4.201 1.413 6.478 1.413h31.487c4.649 0 8.579-1.841 11.423-4.68zm112.838-4.625-55.834.008c-2.217 0-4.341-.448-6.29-1.254a16.595 16.595 0 0 1-5.36-3.579c-3.223-3.219-4.733-7.149-4.845-11.043-.004-.156-.004-.315-.004-.475 0-.931.084-1.865.24-2.784a16.904 16.904 0 0 0-3.97 5.779 16.826 16.826 0 0 0-1.298 6.434c0 4.046 1.498 8.168 4.853 11.519a16.605 16.605 0 0 0 5.359 3.578 16.47 16.47 0 0 0 6.291 1.254l55.833-.008 4.01.028c.987 0 1.865.328 2.572.859.547.415.995.958 1.302 1.581.196.392.336.803.412 1.227.479-.723.934-1.41 1.366-2.049 1.222-1.821 2.224-3.251 2.847-4.062a4.243 4.243 0 0 0 .883-2.576c0-.679-.172-1.358-.479-1.969a4.522 4.522 0 0 0-1.302-1.582 4.213 4.213 0 0 0-2.572-.858l-4.014-.028zm390.657-64.661-41.572 25.289c4.625-4.309 7.521-10.451 7.521-17.273 0-13.04-10.568-23.603-23.604-23.603-13.04 0-23.603 10.567-23.603 23.603 0 13.036 10.567 23.604 23.603 23.604 2.784 0 5.452-.484 7.928-1.37l-101.248 61.625c-.607.371-1.222.743-1.829 1.11l-2.812 11.954-.834 3.538c54.719-33.292 109.423-66.613 164.154-99.89l-.854-1.314a194.541 194.541 0 0 0-5.544-8.067c-.435.263-.87.527-1.306.794zm-95.097-48.876c8.631 0 15.628 6.993 15.628 15.624 0 8.63-6.997 15.624-15.628 15.624s-15.628-6.993-15.628-15.624c0-8.63 6.997-15.624 15.628-15.624zM434.238 341.658c13.04 0 23.6 10.568 23.6 23.6 0 13.04-10.564 23.608-23.6 23.608-13.036 0-23.603-10.568-23.603-23.608-.004-13.032 10.563-23.6 23.603-23.6zm-84.182-132.867c8.631 0 15.628 6.994 15.628 15.624 0 8.631-6.997 15.624-15.628 15.624s-15.628-6.993-15.628-15.624c0-8.63 6.997-15.624 15.628-15.624zm70.883 49.911c8.626 0 15.624 6.998 15.624 15.628 0 8.627-6.998 15.624-15.624 15.624-8.635 0-15.628-6.997-15.628-15.624 0-8.63 6.993-15.628 15.628-15.628zm-90.022 116.445c8.631 0 15.624 6.997 15.624 15.624 0 8.63-6.993 15.624-15.624 15.624-8.634 0-15.627-6.994-15.627-15.624 0-8.631 6.997-15.624 15.627-15.624zm72.617 80.544c8.63 0 15.623 6.997 15.623 15.624 0 8.63-6.997 15.623-15.623 15.623-8.631 0-15.628-6.997-15.628-15.623 0-8.631 6.997-15.624 15.628-15.624zm112.674-89.159c8.634 0 15.628 6.993 15.628 15.624s-6.998 15.624-15.628 15.624c-8.627 0-15.624-6.997-15.624-15.624 0-8.631 6.997-15.624 15.624-15.624zm60.47 77.541c8.631 0 15.624 6.993 15.624 15.623 0 8.631-6.997 15.624-15.624 15.624-8.626 0-15.623-6.997-15.623-15.624-.004-8.63 6.993-15.623 15.623-15.623zm27.917-140.668c13.036 0 23.6 10.568 23.6 23.6 0 13.04-10.568 23.604-23.6 23.604-13.043 0-23.607-10.568-23.607-23.604 0-13.032 10.564-23.6 23.607-23.6zM474.624 455.363c13.036 0 23.603 10.568 23.603 23.6 0 13.04-10.567 23.603-23.603 23.603-13.04 0-23.604-10.567-23.604-23.603 0-13.032 10.564-23.6 23.604-23.6zm-47.715-303.3c13.04 0 23.604 10.568 23.604 23.603 0 13.04-10.568 23.604-23.604 23.604-13.035 0-23.603-10.568-23.603-23.604-.004-13.035 10.568-23.603 23.603-23.603zm157.262 2.64c8.631 0 15.624 6.997 15.624 15.624 0 8.63-6.997 15.624-15.624 15.624-8.631 0-15.628-6.994-15.628-15.624 0-8.631 6.993-15.624 15.628-15.624z" fill="#D1AA1F"/><path d="M311.28 500.25h35.637l.404.292a208.948 208.948 0 0 0 12.301 8.259h-23.84c43.637 33.061 95.924 49 147.868 47.982 55.403-1.082 110.43-21.447 154.199-60.862-1.111 1.813-2.233 3.586-3.355 5.364-44.408 41.927-101.18 63.578-158.344 64.696-55.003 1.082-110.382-16.854-155.48-53.997-.484-1.066-.971-2.101-1.446-3.183h-2.34a233.777 233.777 0 0 1-6.634-5.911l-2.856-2.64h3.886zm395.307-380.453 6.442 8.411 21.558-13.124-.842-1.31a240.886 240.886 0 0 0-5.436-8.055l-1.278.826-19.162 12.417-1.282.835zm-414.118 95.101h-29.666c1.198-2.2 2.44-4.397 3.73-6.582l.443-.759h29.91l-4.417 7.341zm-29.123 72.96H237.41c.344-2.005.707-3.97 1.09-5.895l.244-1.238h25.832l-1.23 7.133zm-1.286 73.73h-25.812c-.28-2.009-.535-4.006-.763-5.991l-.192-1.693h25.445l1.322 7.684zm26.216 73.463h-29.123a247.817 247.817 0 0 1-2.824-5.803l-1.019-2.173h28.165l4.801 7.976z" fill="#CF843E"/><path d="M471.509 80.214c19.514 0 38.501 2.252 56.712 6.51l.04.016.1.024a6.105 6.105 0 0 1 4.557 7.32l-52.143 221.607 194.44-118.326a6.091 6.091 0 0 1 8.371 2.029l.048.072a.17.17 0 0 1 .044.048c22.888 37.582 36.08 81.726 36.08 128.945 0 68.55-27.789 130.61-72.712 175.533-44.919 44.923-106.987 72.712-175.533 72.712-68.55 0-130.615-27.789-175.537-72.712-.735-.735-1.462-1.47-2.185-2.216h-72.788c-7.396 0-14.134-3.032-19.026-7.916l-.036-.036c-4.877-4.897-7.904-11.626-7.904-19.015 0-7.424 3.031-14.17 7.916-19.054l.375-.344c4.86-4.681 11.454-7.572 18.675-7.572h32.798a248.567 248.567 0 0 1-9.506-19.231H94.211c-7.4 0-14.135-3.035-19.03-7.919l-.037-.036c-4.88-4.897-7.904-11.622-7.904-19.015 0-7.405 3.036-14.146 7.932-19.043 4.873-4.9 11.618-7.927 19.043-7.927h133.35a247.996 247.996 0 0 1-2.852-19.235h-71.29c-7.404 0-14.146-3.035-19.03-7.915l-.02-.024c-4.885-4.889-7.92-11.623-7.92-19.031 0-7.421 3.035-14.17 7.92-19.055 4.884-4.884 11.63-7.916 19.05-7.916h71.294c.699-6.49 1.65-12.904 2.84-19.234H94.211c-7.4 0-14.135-3.031-19.03-7.916l-.037-.036c-4.88-4.896-7.904-11.626-7.904-19.014 0-7.401 3.032-14.134 7.92-19.035l.036-.036c4.897-4.88 11.626-7.904 19.019-7.904h150.088c2.9-6.566 6.071-12.98 9.506-19.23h-7.605c-7.404 0-14.146-3.035-19.03-7.916l-.024-.024c-4.885-4.888-7.916-11.622-7.916-19.03 0-7.409 3.035-14.147 7.916-19.031l.024-.024c4.884-4.884 11.626-7.916 19.03-7.916h47.583a182.68 182.68 0 0 1 2.185-2.216c44.918-44.931 106.987-72.72 175.537-72.716zm117.399-44.38 2.38.647.084.024c.771.216 1.546.431 2.316.655l.072.024c.779.228 1.562.455 2.337.695l1.13.343.06.02 1.186.368.032.012 1.146.367 1.178.384.22.072.959.32.04.011c1.146.387 2.292.779 3.426 1.186l.08.028 2.257.815.032.012.742.272.416.155.823.308.327.124.915.351.243.092.995.391.152.06 1.082.428.064.028 1.142.459.024.012 1.114.455.108.048 1.023.427.203.084.931.4.279.12.847.367c1.086.475 2.177.958 3.255 1.45l.104.048.623.283.491.232.703.323.411.192.783.371.324.156.866.416.24.111.947.46.151.076 1.031.51.072.037 1.09.547.016.008 1.078.551.092.052.991.511.179.088.903.475.259.14.819.431.344.184.735.396.419.231.647.356.507.275.563.316.583.323.48.268.659.38.403.227.739.423.319.184.819.475.236.136.894.531.152.088.975.583.072.048 1.042.631.008.004 1.03.631.084.056.947.587.163.104.867.547.244.152.783.5.315.207.703.455.399.256.188.12.887.583.02.015.543.356.551.367.459.312.623.42.384.259.695.475.303.216.771.531.228.164.842.587.148.108.224.155 1.749 1.259.999.726.079.06.915.675.152.112.834.627.232.168.751.575.3.232.215.167.839.643.595.464.447.351.523.411.795.631.168.132.587.476.372.295.662.535.292.244.735.599.22.18.802.667.14.12.875.734.072.064.934.795c.623.535 1.25 1.074 1.865 1.61l.14.123.779.691.867.771.055.048.28.252.631.575.348.315.559.511 1.809 1.678.547.515.344.328.619.587.267.26.687.654.204.2.743.727.139.136.803.794.072.072.867.867.866.879.072.067.787.811.859.887.195.204.655.686.256.272.587.623.324.344.515.555.383.415.452.491.443.488.383.419.508.563.319.352.563.635.256.283.623.707.187.22.687.778.124.148.743.859.064.076.795.934.795.943.059.072.731.878.116.14.663.807.779.955.236.291.539.667.06.08 1.405 1.777.064.084.408.519.347.452.46.599.287.379.515.679.236.308.563.75.172.236.623.835.112.155.667.915.064.08.718.998.719 1.007.715 1.01.104.152.599.863 1.25 1.829.14.212.264.391.423.635.311.471.372.559.359.556.316.479 19.058-11.598a237.343 237.343 0 0 0-59.967-63.295c-23.312-16.914-49.839-29.674-78.487-37.178l-5.104 21.714-.036-.012zm-2.792 11.874L543.294 229.71l159.702-97.182-.092-.148-.543-.818-.152-.232-.491-.739-.204-.307-.443-.651-.256-.388-.391-.575-.016-.02-1.31-1.885-.427-.611-.24-.332-.487-.691-.188-.251-.547-.759-.599-.819-.14-.191-.076-.096-.671-.911-.02-.024-.695-.922-.04-.052-.659-.871-.096-.128-.607-.787-.155-.203-.556-.711-.219-.276-.499-.631-.272-.351-.443-.555-.336-.42-.391-.479-.4-.491-.331-.404-.028-.036-.655-.79-.056-.068-.527-.631-.212-.256-.591-.703-.152-.179-.663-.771-.087-.108-.727-.839-.028-.036-.763-.87-.032-.04-.735-.823-.092-.112-.675-.751-.16-.179-.615-.675-.227-.252-.555-.603-.288-.316-.495-.535-.356-.383-.431-.46-.423-.447-.368-.391-.491-.515-.311-.316-.564-.583-.243-.252-.631-.647-.172-.179-.703-.711-.112-.112-.775-.77-.039-.045-.827-.81-.024-.02-.803-.787-.088-.088-.739-.715-.163-.152-.679-.643-.228-.22-.607-.575-.304-.28-.115-.107-.763-.711-.036-.036-.475-.435-.444-.408-.411-.375-.519-.463-.34-.308-.591-.523-.271-.248-.663-.583-.204-.175-.743-.648-.132-.111-.811-.703-.063-.056-.883-.751-.012-.008-.871-.739-.084-.072-.802-.667-.16-.127-.739-.604-.232-.191-.667-.54-.303-.251-.595-.475-.384-.304-.527-.415-.455-.364-.447-.351-.54-.415-.375-.288-.619-.475-.3-.232-.695-.527-.231-.172-.775-.579-.152-.116-.854-.63-.08-.057-.935-.683-.918-.667-.08-.056-.851-.607-.152-.104-.779-.55-.231-.16-.711-.492-.304-.211-.631-.436-.383-.26-.563-.379-.46-.311-.491-.324-.535-.36-.415-.267-.619-.407-.336-.224-.699-.451-.259-.168-.779-.499-.18-.112-.867-.547-.099-.064-.943-.587-.024-.016-.974-.599-.056-.032-.923-.563-.128-.084-.85-.507-.212-.124-.775-.46-.291-.171-.695-.403-.376-.22-.615-.356-.455-.26-.539-.303-.539-.303-.46-.256-.619-.343-.383-.212-.707-.387-.3-.164-1.006-.543-.875-.468-.139-.075-.959-.504-.056-.028-1.022-.527-.024-.016-.999-.507-.108-.06-.914-.46-.196-.091-.835-.415-.279-.132-.751-.368-.363-.18-.675-.323-.444-.212-.591-.28-.535-.25-.507-.236-.619-.288-.424-.196-.71-.32-.344-.155-.787-.355-.259-.112-.879-.391-.176-.076-.97-.42-.084-.036-1.062-.451-1.071-.447-.084-.036-.978-.408-.172-.072-.903-.363-.838-.336-.236-.091-.347-.136-.727-.284-.436-.171-.647-.248-.083-.036-.999-.375-.607-.232-.475-.176-.703-.26-.384-.14-.794-.283-.296-.103-.886-.316-.212-.072-.975-.34-.119-.043-1.071-.364-.032-.008-1.098-.371-.064-.02-1.046-.34-.148-.048-.959-.307-.243-.076-2.405-.747-.698-.212-.512-.151-.607-.18-.603-.176-.519-.148-.695-.2-.427-.119-.791-.22-.336-.092-.882-.24-.252-.067.012.04zm-58.026 193.39 47.566-202.185 7.9-33.572c.759-3.275 4.042-5.316 7.321-4.557 32.522 7.624 62.583 21.639 88.779 40.646a249.511 249.511 0 0 1 66.453 71.989 6.094 6.094 0 0 1-2.028 8.371l-29.455 17.924-177.171 107.814a6.094 6.094 0 0 1-4.804.894 6.097 6.097 0 0 1-4.561-7.324zm-8.467-143.763a237.02 237.02 0 0 0-48.118-4.908c-61.845 0-118.138 23.791-160.221 62.715h35.114a213.2 213.2 0 0 1 58.394-29.814c21.007-6.897 43.437-10.631 66.713-10.631 14.729 0 29.119 1.493 43.01 4.333l5.108-21.695zm-7.904 33.585a202.359 202.359 0 0 0-40.21-4.018c-22.002 0-43.162 3.518-62.943 10.016-20.381 6.694-39.331 16.559-56.269 29.004a6.1 6.1 0 0 1-3.926 1.429H246.2a14.74 14.74 0 0 0-10.432 4.33c-2.667 2.676-4.329 6.37-4.329 10.428 0 4.065 1.662 7.756 4.329 10.432 2.676 2.667 6.371 4.329 10.432 4.329h59.844v.028a6.084 6.084 0 0 1 4.841 9.753 201.328 201.328 0 0 0-10.257 14.857 200.467 200.467 0 0 0-8.758 15.46 6.107 6.107 0 0 1-5.552 3.559H94.215c-4.07 0-7.76 1.657-10.42 4.321l-.024.02a14.697 14.697 0 0 0-4.317 10.42c0 4.069 1.653 7.76 4.317 10.42l.024.024a14.702 14.702 0 0 0 10.42 4.313h176.284v.02a6.11 6.11 0 0 1 1.526.2 6.085 6.085 0 0 1 4.365 7.412 200.78 200.78 0 0 0-3.295 15.129 201.34 201.34 0 0 0-2.109 14.921 6.107 6.107 0 0 1-6.102 5.971H153.423c-4.053 0-7.744 1.665-10.42 4.341-2.675 2.676-4.337 6.37-4.337 10.42 0 4.066 1.658 7.756 4.329 10.432a14.748 14.748 0 0 0 10.432 4.329h111.465v.02a6.089 6.089 0 0 1 6.058 5.488 198.824 198.824 0 0 0 2.037 14.809l.108.527a201.821 201.821 0 0 0 3.179 14.701 6.104 6.104 0 0 1-5.763 8.112H94.215c-4.054 0-7.744 1.661-10.42 4.341h-.024a14.687 14.687 0 0 0-4.317 10.416c0 4.074 1.653 7.76 4.317 10.42l.024.024a14.69 14.69 0 0 0 10.42 4.317h192.103a6.107 6.107 0 0 1 5.436 3.339 200.65 200.65 0 0 0 8.854 15.66 203.319 203.319 0 0 0 9.929 14.418 6.1 6.1 0 0 1-4.493 10.232h-85.037a14.685 14.685 0 0 0-10.16 4.07l-.256.271c-2.676 2.676-4.337 6.366-4.337 10.42 0 4.07 1.653 7.76 4.317 10.42l.024.024a14.696 14.696 0 0 0 10.42 4.317h127.356v.032a6.02 6.02 0 0 1 3.598 1.187 200.95 200.95 0 0 0 56.589 29.211c19.789 6.498 40.953 10.016 62.955 10.016 55.662 0 106.052-22.557 142.528-59.033 36.472-36.476 59.033-86.866 59.033-142.524 0-36.204-9.553-70.18-26.263-99.547L474.936 333.499a6.096 6.096 0 0 1-4.805.895 6.102 6.102 0 0 1-4.557-7.321l46.145-196.153zm145.519 91.642c17.841 31.216 28.041 67.368 28.041 105.897 0 59.029-23.931 112.47-62.615 151.155-38.685 38.688-92.126 62.615-151.155 62.615-23.28 0-45.71-3.738-66.721-10.635-21.056-6.918-40.705-17.05-58.358-29.814h-35.146c42.087 38.924 98.38 62.715 160.229 62.715 65.179 0 124.192-26.419 166.903-69.134 42.714-42.71 69.133-101.723 69.133-166.902 0-42.77-11.379-82.884-31.268-117.475l-19.043 11.578zM267.843 447.835h26.351a208.115 208.115 0 0 1-3.886-5.963 211.933 211.933 0 0 1-7.692-13.272h-24.909c3.091 6.582 6.474 13 10.136 19.235zm-27.849-73.171h22.781a204.936 204.936 0 0 1-1.702-8.459l-.071-.539a210.142 210.142 0 0 1-1.554-10.237h-22.453a237.725 237.725 0 0 0 2.999 19.235zm-2.995-73.176h22.445a209.873 209.873 0 0 1 1.629-10.783c.5-2.8 1.067-5.615 1.694-8.451h-22.773a235.67 235.67 0 0 0-2.995 19.234zm20.712-73.175h24.909a220.19 220.19 0 0 1 7.708-13.295c1.25-1.993 2.536-3.97 3.866-5.935h-26.351a233.715 233.715 0 0 0-10.132 19.23zm-150.5 219.522h48.193c7.405 0 14.143 3.035 19.039 7.928 4.896 4.872 7.932 11.618 7.932 19.042 0 7.397-3.036 14.134-7.916 19.031l-.036.036c-4.896 4.88-11.626 7.904-19.015 7.904h-48.197c-7.405 0-14.142-3.036-19.031-7.916l-.024-.024c-4.884-4.889-7.916-11.622-7.916-19.031 0-7.42 3.036-14.17 7.916-19.054 4.884-4.881 11.63-7.916 19.055-7.916zm48.193 12.209h-48.193c-4.054 0-7.744 1.665-10.42 4.341s-4.338 6.37-4.338 10.42c0 4.066 1.662 7.756 4.33 10.432 2.676 2.668 6.366 4.329 10.432 4.329h48.193a14.68 14.68 0 0 0 10.416-4.317l.024-.024a14.697 14.697 0 0 0 4.318-10.42c0-4.054-1.666-7.744-4.342-10.42v-.024a14.703 14.703 0 0 0-10.42-4.317zM26.966 301.488h69.765c7.404 0 14.146 3.036 19.03 7.916l.02.024c4.885 4.889 7.92 11.622 7.92 19.031 0 7.408-3.035 14.142-7.92 19.031l-.02.024c-4.888 4.884-11.626 7.915-19.03 7.915H26.966c-7.424 0-14.166-3.035-19.054-7.915l-.344-.376C2.892 342.274 0 335.68 0 328.463c0-7.425 3.031-14.17 7.916-19.055l.371-.339c4.857-4.689 11.447-7.581 18.68-7.581zm69.765 12.206H26.966a14.74 14.74 0 0 0-10.172 4.077l-.252.26c-2.675 2.68-4.337 6.37-4.337 10.42 0 3.938 1.554 7.528 4.07 10.168l.272.252c2.675 2.68 6.366 4.341 10.42 4.341H96.73a14.73 14.73 0 0 0 10.432-4.329c2.668-2.676 4.329-6.37 4.329-10.428 0-4.066-1.661-7.756-4.329-10.432a14.77 14.77 0 0 0-10.432-4.329zm54.284-158.556h31.492c7.404 0 14.142 3.036 19.03 7.916l.024.024c4.885 4.888 7.916 11.622 7.916 19.031 0 7.408-3.035 14.142-7.916 19.034l-.024.02c-4.888 4.885-11.626 7.916-19.03 7.916h-31.492c-7.404 0-14.142-3.035-19.039-7.928-4.896-4.872-7.931-11.618-7.931-19.042 0-7.425 3.035-14.167 7.916-19.055l.375-.343c4.868-4.681 11.458-7.573 18.679-7.573zm31.492 12.213h-31.492c-3.942 0-7.524 1.55-10.164 4.066l-.256.272c-2.676 2.676-4.337 6.366-4.337 10.42 0 4.053 1.661 7.74 4.337 10.42v.024a14.714 14.714 0 0 0 10.416 4.317h31.492c4.061 0 7.756-1.662 10.431-4.329 2.668-2.676 4.33-6.375 4.33-10.432 0-4.066-1.662-7.756-4.33-10.432a14.722 14.722 0 0 0-10.427-4.326z" fill="#3A2C20"/><path d="M328.609 271.854c13.036 0 23.604 10.568 23.604 23.604 0 13.04-10.568 23.603-23.604 23.603s-23.604-10.567-23.604-23.603c0-13.036 10.568-23.604 23.604-23.604zM643.3 104.177c13.036 0 23.599 10.567 23.599 23.603 0 13.036-10.567 23.604-23.599 23.604-13.044 0-23.608-10.568-23.608-23.604s10.568-23.603 23.608-23.603zm-37.442-33.285c8.63 0 15.623 6.997 15.623 15.624 0 8.63-6.997 15.628-15.623 15.628-8.627 0-15.624-6.997-15.624-15.628 0-8.63 6.997-15.624 15.624-15.624zM437.765 336.998c13.036 0 23.603 10.567 23.603 23.603 0 13.036-10.567 23.604-23.603 23.604-13.036 0-23.604-10.568-23.604-23.604s10.572-23.603 23.604-23.603zm-84.178-132.867c8.63 0 15.623 6.997 15.623 15.624 0 8.63-6.997 15.623-15.623 15.623-8.631 0-15.628-6.993-15.628-15.623 0-8.631 6.997-15.624 15.628-15.624zm70.882 49.915c8.631 0 15.62 6.997 15.62 15.624 0 8.63-6.993 15.623-15.62 15.623-8.63 0-15.628-6.997-15.628-15.623 0-8.631 6.998-15.624 15.628-15.624zm-90.021 116.44c8.631 0 15.624 6.997 15.624 15.624 0 8.631-6.993 15.628-15.624 15.628s-15.628-6.997-15.628-15.628c.004-8.627 7.001-15.624 15.628-15.624zm72.616 80.544c8.631 0 15.624 6.997 15.624 15.624 0 8.63-6.997 15.628-15.624 15.628-8.631 0-15.624-6.998-15.624-15.628 0-8.627 6.997-15.624 15.624-15.624zm112.678-89.159c8.627 0 15.624 6.998 15.624 15.624 0 8.631-6.997 15.624-15.624 15.624-8.63 0-15.624-6.993-15.624-15.624 0-8.63 6.998-15.624 15.624-15.624zm60.467 77.541c8.627 0 15.624 6.997 15.624 15.624 0 8.63-6.997 15.624-15.624 15.624-8.635 0-15.628-6.994-15.628-15.624 0-8.631 6.997-15.624 15.628-15.624zm27.913-140.667c13.04 0 23.604 10.567 23.604 23.603 0 13.036-10.568 23.604-23.604 23.604s-23.604-10.568-23.604-23.604c-.004-13.036 10.568-23.603 23.604-23.603zM478.154 450.702c13.036 0 23.6 10.568 23.6 23.604s-10.568 23.604-23.6 23.604c-13.039 0-23.607-10.568-23.607-23.604s10.568-23.604 23.607-23.604zM430.44 147.406c13.036 0 23.604 10.568 23.604 23.6 0 13.04-10.568 23.603-23.604 23.603-13.04 0-23.604-10.567-23.604-23.603 0-13.036 10.568-23.6 23.604-23.6zm157.258 2.636c8.626 0 15.623 6.997 15.623 15.624 0 8.631-6.997 15.628-15.623 15.628-8.627 0-15.624-6.997-15.624-15.628 0-8.627 6.997-15.624 15.624-15.624z" fill="#3A2C20"/><g clip-path="url(#a)"><path d="M137.5 787.4v-1.1c-.1 0-.2-1.1-.2-1.1v-1.1c-.1 0-.2-1.1-.2-1.1v-.5l-.1-.6v-.5l-.1-.6v-.5l-.1-.6v-.5l-.1-.6v-.5l-.1-.6v-.5l-.1-.5v-1.1h-.7l-1.9.3-6.3.6-1.9.2-1.9.2-1.9.2-1.9.2h-.5l-1.4.2h-.5l-1.4.2h-.5l-1.9.2-1.9.2-1.9.2-1.9.2-1.9.2-1.9.2-1.9.2-1.9.2-1.9.2-1.9.2c18.9-23.8 29.2-37.1 31-40 7.3-12.7 10.4-26 9.1-39.5-1-10.2-4-19-9-26.3-.1-.2-.3-.4-.4-.6-.1-.2-.3-.4-.4-.6-.1-.2-.3-.4-.4-.6-.1-.2-.3-.4-.4-.6-.2-.2-.3-.4-.5-.6-.1-.2-.3-.3-.4-.5-.1-.2-.3-.3-.4-.5-.1-.2-.3-.4-.4-.5l-.6-.6c-.1-.2-.3-.3-.4-.5-.1-.2-.3-.3-.4-.5-2-2.1-4.3-4-6.7-5.8-1-.7-2-1.4-3.1-2.1-.7-.5-1.5-.9-2.3-1.4-.9-.5-1.8-1-2.7-1.4-1.1-.5-2.2-1.1-3.4-1.5-1.4-.6-2.9-1.1-4.4-1.6-2-.6-4.1-1.2-6.2-1.6-2.2-.4-4.5-.8-6.9-1-.9 0-1.8-.1-2.7-.2H79.5c-2.1 0-4.2.2-6.3.5-1.3.2-2.5.3-3.8.6-.6.1-1.1.2-1.7.3-4.3.9-8.4 2.2-12.3 3.9-14.6 6.4-26 18.8-34.4 37.3-.7 1.4-1.3 2.9-1.9 4.4l.5.3.5.4h.1l.5.4.5.4h.1l.5.4.5.4h.1l.5.4.6.4.5.3.6.4.5.3.6.4.5.3.6.4.5.3.6.4 1.1.8 1.1.8 1.1.8 1.1.8 17 12.2C58 700 67.9 690.2 79 690c4.8 0 9.1 1.7 12.6 4.8.7.6 1.3 1.2 1.9 1.8l.6.6c.1.1.2.3.3.4.1.2.3.3.4.5.1.2.3.3.4.5l.3.6.3.6.3.6c0 .2.2.4.3.6.1.2.2.5.3.7 0 .2.2.4.2.7 0 .2.2.5.2.7.3 1.1.5 2.2.6 3.4 0 .8 0 1.8-.1 2.8v.4c0 .3-.1.6-.2.8-.1.6-.3 1.2-.5 1.9-.3 1-.7 2-1.2 3.2 0 0 0 .2-.1.2-.6 1.3-1.2 2.7-2 4.2-4.6 8.9-12.8 21-24.7 36.4-17.2 22-26.1 33.3-26.3 33.5v.9l.1.6v1.5c.1 0 .2.9.2.9v1.3c.1 0 .4 2.6.4 2.6l2.5 25.4H52.1l.9-.2h.9l.9-.2h.9l.9-.2 84.7-8.3-2.5-25.9v-1.1l-1.3.2zM219.5 750.9V749.8L203.7 737l-1.1-.9-1.1-.9-1.1-.9-1.1-.9h-.1c0-.1-1-.9-1-.9l-.2-.2-.9-.7-.3-.2-.8-.7-.3-.3-.5-.4c-.1.2-.2.4-.3.5l-.6.9c-.1.2-.2.4-.4.6 0 .1-.1.2-.2.3-.8 1.3-1.6 2.6-2.4 3.8-.1.2-.2.4-.4.6 0 .1-.2.3-.3.4 0 0-.1.2-.2.3-10.8 16.8-22 30.8-34 42.3l-.2.2c-.1.1-.2.2-.4.3l-.5.5-.1.1.2.2.3.3.2.2.5.5.3.3.2.2.5.5.2.2.2.2.6.6.2.2.2.2.6.6.4.4 1 1 1 1 1 1 14.6 15.4c18.7-16.8 32.4-34.3 41.1-52.6v-.1l1-.2zM156.2 695.1l.4.2.4.3.4.3.4.2.4.3.3.2.4.3.8.5.4.3.7.5.4.2.8.6.4.2.8.6.3.2 1.2.8 1.1.8 1.2.7 1.1.8 17.8 12 16.4-24.5.2-.2.2-.3.1-.2.2-.2.2-.3.1-.2.2-.3.1-.2.2-.3.2-.2.1-.2.2-.3-22-14.3-1.3-.8-1.3-.9-1.3-.8-1.3-.9-.3-.2-.9-.6-.3-.2-.9-.6-.3-.2-1-.6-.3-.2-.6-.4-17 25-.4.6-.5.7-.3.5.4.3.2.1.2.1.4.3.3.2h.1l.3.3zM282.4 669.8H264c.5-3.4 1.1-7 1.6-10.7 0-.3 0-.6.1-.9 0-.3 0-.6.1-.9 0-.3 0-.6.1-.9 0-.3 0-.6.1-.9 0-.3 0-.6.1-.9 0-.3 0-.6.1-.9v-5.4l-25.7-2.2-2.7-.2h-1.3c0-.1-1-.2-1-.2H234c0-.1-.6-.2-.6-.2h-1c0 .3 0 .7-.1 1.1v.8c0 .7-.1 1.3-.2 2-.8 7.4-2.1 14.6-3.8 21.7-.1.6-.3 1.1-.4 1.7-1.5 5.8-3.3 11.4-5.4 17v.2c-.7 2-1.5 3.9-2.3 5.8 0 0 0 .2-.1.3-.1.3-.3.6-.4.9-1.4 3.3-3 6.5-4.6 9.7-1 2-2 3.9-3.1 5.8l.7.3.5.3.7.3.5.2.7.3.5.2.7.3.5.2.7.3.5.2.7.3.5.2.7.3.5.3.7.3.5.3 1.2.6 1.2.6 1.2.6 1.2.6 15.9 7.6c5.2-9 9.4-17.4 12.3-25.1h43.3c0 .3-.2.7-.3 1 0 .3-.2.7-.3 1 0 .3-.2.7-.3 1 0 .3-.2.7-.3 1 0 .3-.2.7-.3 1 0 .3-.2.7-.3 1-.1.3-.2.7-.3 1-.1.3-.2.7-.3 1-.1.3-.2.7-.4 1-.1.3-.2.7-.4 1-.1.3-.2.7-.4 1-.1.3-.3.7-.4 1-.1.3-.2.7-.4 1-.1.3-.3.7-.4 1-.1.3-.3.7-.4 1-.1.3-.3.7-.4 1-.1.3-.3.7-.4 1-.1.3-.3.7-.4 1-.6 1.3-1.2 2.6-1.8 4 0 .2-.2.4-.3.6l.6.2.4.2h.1l.6.2.6.2.6.3.5.2.6.2.7.3.6.2.7.3.6.2.7.3.5.2.7.3.5.2.7.3 1.2.5 1.2.5 1.2.5 1.2.5 13.7 5.4c4.5-8.7 8.2-18.3 11.1-28.7-.2-1.5-.2-3.1.2-4.7s1.1-3.1 2.1-4.4c1.2-5.2 2.2-10.6 3.1-16.2 0-.3.1-.7.2-1 0-.3.1-.7.2-1 0-.3 0-.7.1-1 0-.3 0-.7.1-1 .1-.3 0-.7.1-1 0-.3 0-.7.1-1 0-.3 0-.7.1-1 0-.3 0-.7.1-1 0-.3 0-.7.1-1 0-.3 0-.7.1-1 0-.3 0-.7.1-1 0-.3 0-.6.1-1l-53.3-.2h-1.1l1.3.5z" fill="#FDCF27"/><path d="M300.4 779.9c-.4 0-.8-.1-1.1-.2-.2 0-.5 0-.7-.1h-.5c-.4 0-.8-.1-1.1-.2-.8-.2-1.7-.3-2.5-.5-.4 0-.8-.2-1.1-.3-.4 0-.8-.2-1.1-.3-.4 0-.8-.2-1.1-.3-.3-.1-.8-.2-1.1-.3-.4-.1-.8-.2-1.1-.3-.4-.1-.8-.2-1.1-.3-.4-.1-.8-.3-1.1-.4-.4-.1-.8-.3-1.1-.4-.4-.1-.8-.3-1.1-.4-.4-.1-.8-.3-1.1-.4-.4-.2-.8-.3-1.1-.5-.4-.2-.8-.3-1.1-.5 2.3-8.6 3.6-20.3 4-34.9v-12h-17c0-.1-1.5-.1-1.5-.1h-15.7v16.4c0 1.6-.1 2.9-.3 3.7 0 .9-.2 1.8-.3 2.6-.1 1-.3 2-.4 3-.4 2.5-.9 4.9-1.5 7.2-.2.7-.4 1.3-.5 1.9-1 3.3-2.3 6.4-3.8 9.2-1.1 2-2.2 3.8-3.5 5.5-1.7 2.2-3.9 4.4-6.5 6.7-1.1 1-2.3 2-3.6 3-1.1.9-2.3 1.7-3.5 2.6-1.1.8-2.3 1.6-3.5 2.4-1.4.9-2.9 1.9-4.4 2.8-1.1.7-2.3 1.4-3.5 2.1l.6.9.2.3.6.8.9 1.2.9 1.2.9 1.2.9 1.2.9 1.2.9 1.2 13.7 18.2h2.4c10.6-6 19.7-12.7 27.2-20.4 13.3 8.5 30.6 12.9 52 12.9s3.8 0 5.7-.1l4.2-21.5.2-.9.2-.9.2-.9.2-1 .2-1 .2-1v-.3l.2-.7v-.2l.2-.8v-.2l.2-.8v-.2l.2-.8c0-.1.2-1 .2-1l.2-1c-8.1 0-15.4-.3-21.9-1-2.4-.3-4.7-.6-6.9-.9l-1-1.4zM513.4 748.8v-1l-.1-1v-1l-.1-1v-8.7l-14.8.7-6 .3h-12.1l-19.4.9-19.4.9-19.4.9-8.9.4h-2l-4 .2H402.8l-7.4.4h-3.1c0 .1-3.1.3-3.1.3l-3.1.2-3.2.2h-1.4l-1.8.2h-1.4l-1.8.2h-1.6l-3.3.2h-1.1l-6 .3h-3v1.6l.2 2.8v2l.2 2.4 1 21H374.3l28.1-1.4c0 .4 0 .7-.1 1.1-.1.4 0 .7-.1 1.1 0 .4 0 .7-.1 1.1 0 .4 0 .7-.1 1.1 0 .4 0 .7-.1 1.1 0 .4 0 .7-.1 1.1 0 .4 0 .7-.1 1.1 0 .4-.1.7-.2 1.1 0 .4-.1.7-.2 1.1 0 .4-.1.7-.2 1.1 0 .4-.1.7-.2 1.1 0 .3 0 .5-.1.8v.3c0 .3 0 .5-.1.8 0 .4-.1.7-.2 1.1 0 .4-.1.7-.2 1.1 0 .4-.1.7-.2 1.1 0 .4-.1.7-.2 1.1 0 .3-.1.7-.2 1.1l-.3 1.5-15 .9h-1.9V798.4l.2 3 1.4 22.2H395.5c31.6-2.1 59.1-4.8 82.8-8 .1.4.3.7.4 1.1.1.4.3.7.4 1.1.1.4.3.7.4 1.1.1.4.3.7.4 1.1.1.4.3.7.4 1.1.1.4.3.7.4 1.1.1.4.3.7.4 1.1.1.4.3.7.4 1.1.1.4.3.7.4 1.1v.2l.6-.2.5-.2.5-.2.5-.2.5-.2.5-.2.5-.2.5-.2 22.5-9.2c-3.2-8.5-7.9-19.8-14.1-33.9v-.2c-1.7-3.9-3.5-8-5.4-12.3l26.1-1.3-.8-17.3-.9-1.1zm-74.8 21 43.4-2.1-3 1.2-3 1.2-3 1.2-3 1.2-3 1.2-3 1.2-3 1.2-.6.2.4.8.5 1 .5 1 .5 1 .5 1 1.7 3.8.2.4.3.6v.3h-2.9c-2.3.2-4.6.5-6.9.7-.4 0-.7 0-1.1.1-.4.1-.7 0-1.1.1-.4 0-.7 0-1.1.1-.4 0-.7 0-1.1.1H449.1c-.4 0-.7 0-1.1.1-.4 0-.7 0-1.1.1-.4 0-.7 0-1.1.1-.4 0-.7 0-1.1.1-.4 0-.7 0-1.1.1-.4 0-.8 0-1.1.1-.4 0-.8 0-1.1.1-.4 0-.8 0-1.2.1-.4 0-.8 0-1.2.1-.4 0-.8 0-1.2.1-.4 0-.8 0-1.2.1 1-5.7 1.5-12.2 2-19.4v.8zM510.1 677.6c-7.3-.9-14.2-2-20.5-3.3-3.7-.8-7.2-1.6-10.6-2.5-2.1-.6-4.2-1.2-6.2-1.8-1.3-.4-2.5-.8-3.7-1.2h-.2c-1.9-.7-3.8-1.4-5.6-2.1-.4-.2-.8-.3-1.2-.5-.4-.2-.8-.3-1.2-.5-.4-.2-.8-.3-1.2-.5-.4-.2-.8-.4-1.2-.5l-1.2-.6-1.2-.6-1.2-.6-1.2-.6-1.2-.6c-.4-.2-.8-.4-1.2-.7-.4-.2-.8-.5-1.2-.7-.4-.2-.8-.5-1.2-.7.8-1.5 1.5-2.9 2.1-4.3 0-.1.1-.3.2-.4 0-.1.1-.3.2-.4 0-.1.1-.3.2-.4 0-.1.1-.3.2-.4 0-.1.1-.3.2-.4 0-.1.1-.3.2-.4 0-.1.1-.3.2-.4 0-.1.1-.3.2-.4 0-.1.1-.3.2-.4 0-.1.1-.3.2-.4 0-.1 0-.3.1-.4.1-.1.1-.3.1-.4l-16.5-8.3-1.8-.9-1.7-.9-1.6-.8-1.5-.8-.5-.2-1-.5-.4-.2-1-.5-.3-.2-1-.5-.3-.2-.7-.3c-12.8 20.7-34.7 40.4-65.6 59.3-.4.3-.9.5-1.3.8-.4.3-.9.5-1.3.8-.4.3-.9.5-1.3.8-.4.3-.9.5-1.3.8-.4.3-.9.5-1.3.8 0 0-.1 0-.2.1-.4.2-.8.4-1.1.7h-.2c-.4.2-.8.5-1.2.7h-.1c-.4.2-.8.5-1.2.7h-.1c-.4.2-.9.5-1.3.7-.4.3-.9.5-1.3.8h-.1c-.4.2-.8.5-1.3.7-.4.2-.9.5-1.3.7-.4.2-.8.4-1.2.7l.4.6.2.3.2.2.4.6.2.3.2.4.3.4.2.3.3.5v.1l.2.3.2.3.4.6c0 .1.3.6.3.6l.5.7c0 .1.3.5.3.5l.5.8c0 .1.2.5.2.5l.6.9c0 .1.2.4.2.4l.6 1c0 .1.8 1.4.8 1.4l.9 1.4.9 1.4.9 1.4.9 1.4 7.7 11.7s.2 0 .3-.1c0 0 .2 0 .3-.1 0 0 .2 0 .3-.1 0 0 .2 0 .3-.1 0 0 .2 0 .3-.1 0 0 .2 0 .3-.1.1-.1.2 0 .3-.1 0 0 .2 0 .3-.1 0 0 .2 0 .3-.1 0 0 .2 0 .3-.1 0 0 .2 0 .3-.1 0 0 .2 0 .3-.1 14-7 26.3-14.2 37-21.6V731.7h12l61 .2.3-15.9v-2.3l.1-7.2c16.1 4 30.5 6.3 42.6 6.7l4.6-23.7.2-.9.2-.9.2-.9.2-.9.2-.9.2-.9v-.7c.1 0 .2-.2.2-.2v-.7c.1 0 .2-.2.2-.2v-.6c.1 0 .2-.2.2-.2v-.6c.1 0 .2-.3.2-.3v-.6c.1 0 .2-.3.2-.3v-.6c.1 0 .2-.3.2-.3-4.7-.4-9.1-.9-13.5-1.4l-.7.2zm-45 26.4H411.2c7.1-5.6 13.3-11.3 18.6-17.2 9.8 7.5 21.6 13.2 35.4 17.3l-.1-.1z" fill="#FDCF27"/><path d="M662.1 660.2c-1.2-.6-2.3-1.2-3.4-1.7s-2.1-.9-3.1-1.3c-.6-.2-1.1-.4-1.7-.6-2.2-.8-4.6-1.6-7-2.3-3.5-1-7.3-1.8-11.4-2.5-3.1-.5-6.3-.9-9.7-1.3-1.4-.1-2.7-.2-4-.3-1 0-2-.1-3-.1h-6.9c-4.2.2-8.2.6-12.1 1.3-.4 0-.9.2-1.3.2-5.5 1.1-10.8 2.8-15.9 5-3.5 1.6-7 3.4-10.3 5.5-10.8 6.6-19.1 15.5-24.8 26.6-.3.5-.6 1.1-.8 1.7-.3.6-.6 1.2-.8 1.8-.4.8-.7 1.6-1 2.4-1 2.5-1.9 5-2.7 7.7-.7 2.5-1.4 5-2 7.7l-.3 1.5c-.6 3.2-1.1 6.6-1.5 10.1-.1 1.2-.3 2.3-.4 3.5 0 .9-.1 1.8-.2 2.8v.6c0 1 0 1.9-.1 2.8v7.5c0 .8 0 1.6.1 2.4.2 4.1.7 8.1 1.4 11.9.5 3 1.2 5.8 2 8.6.6 1.9 1.2 3.8 1.9 5.6.6 1.5 1.2 2.9 1.8 4.3.5 1.1 1.1 2.2 1.6 3.3.5 1 1 1.9 1.6 2.8 1.5 2.5 3.1 4.9 4.9 7.2 1.7 2.2 3.5 4.3 5.5 6.2l.7.7.7.7.6.6c.1.1.3.2.4.3.1.1.3.2.4.3.2.2.4.4.6.5.2.2.4.4.6.5.2.2.4.4.6.5.2.1.3.2.5.4.2.1.3.2.5.4.2.1.4.3.6.4 11.2 8.6 25.5 13.9 42.9 16.1 8.2 1.1 16.3 1.6 24.4 1.6 8.1 0 21.3-.9 31.8-2.6l7.6-80.3v-.9l.2-.9v-.9l.2-.9v-.9l.2-.9V720.1h-1.6l-1.6-.1h-.8l-54.5-2.6-3.2-.2h-5.6v3.6l-.1 1.8v1.5l-1.1 25.9h9l1 .1h1l1 .1 17.2.8v.9l-.2.9v.9l-.2.9v.9l-.2.9v.9l-.2.9v.9l-.2.9v.9l-.2.9v.3l-.1.9v.9l-.2.9v.9l-.2.9v.9l-.7 6v1.3c-8-.3-13.1-.4-15.6-.4h-1.8c-.8 0-1.6-.2-2.3-.3-1-.1-1.9-.3-2.9-.5-.6-.1-1.1-.2-1.7-.4-.3 0-.7-.2-1-.2-.2 0-.4-.1-.6-.2-4.5-1.1-8.5-2.7-12-4.8-.2-.1-.4-.2-.6-.4-.2-.1-.4-.3-.6-.4-.2-.1-.4-.3-.6-.4-.2-.1-.4-.3-.6-.4-.2-.1-.4-.3-.6-.4-.2-.1-.4-.3-.6-.4-.2-.1-.4-.3-.6-.4-.2-.2-.4-.3-.6-.5-.2-.2-.4-.3-.6-.5-.2-.1-.3-.3-.5-.4-.2-.2-.4-.3-.5-.5-8.5-8.1-12.1-20.5-10.8-36.9 2.1-26.9 16.5-40.2 43.3-40.2h3.4c11.3.4 24.6 6.4 40.1 18.1l17.5-29.2.2-.3.2-.3.2-.3v-.2c.1 0 .3-.2.3-.2v-.2c.1 0 .3-.2.3-.2v-.2c.1 0 .3-.2.3-.2v-.2c.1 0 .2-.2.2-.2v-.2c-6-4.4-11.5-8-16.6-10.9-1-.6-2.1-1.2-3.1-1.7l.6.4zM813.9 683.2c-.1-.2-.3-.4-.4-.5-.1-.2-.3-.4-.4-.6-.1-.2-.3-.4-.4-.6-.2-.2-.3-.4-.4-.6-.1-.2-.3-.4-.4-.5-.2-.2-.3-.4-.5-.5-.2-.2-.3-.4-.5-.5-.2-.2-.3-.4-.5-.5-.2-.2-.3-.4-.5-.5 0-.1-.2-.2-.3-.3-3.6-3.8-7.7-7.1-12.3-9.8l-2.7-1.5c-1.1-.6-2.3-1.2-3.5-1.7l-4.2-1.8c-2.1-.8-4.3-1.5-6.5-2.2-1.6-.5-3.2-.9-4.9-1.2-1.8-.4-3.6-.8-5.4-1.1-3.4-.6-6.8-1-10-1.2-1 0-1.9-.1-2.9-.2h-5c-3.3 0-6.5.4-9.5.9-.6 0-1.1.2-1.7.3-4 .8-7.7 1.9-11.3 3.5-3.4 1.4-6.6 3.2-9.6 5.3-5.6 3.9-10.5 8.8-14.7 14.6l-.6.9c-.3.5-.7.9-1 1.4-2.4 3.6-4.5 7.5-6.4 11.7-.6 1.2-1.1 2.5-1.6 3.8-.8 2.1-1.6 4.3-2.3 6.5-.5 1.7-1 3.4-1.5 5.2-.4 1.6-.8 3.3-1.2 4.9-.1.4-.2.9-.3 1.3l-.3 1.5c0 .4-.2.9-.3 1.3V721.1c0 .2 0 .4-.1.6l-.3 1.8c-.2 1.4-.5 2.8-.6 4.2v.3c0 .8-.2 1.5-.3 2.3l-.3 3.3c0 .9-.1 1.8-.2 2.7v7.4c0 .8 0 1.5.1 2.3v.2c0 1 .2 1.9.3 2.8 0 .8.2 1.7.3 2.5.1.8.2 1.5.3 2.3 0 .4.2.8.2 1.2.2.8.3 1.7.5 2.5.2 1.1.5 2.1.8 3.2.2.6.3 1.1.5 1.7.1.4.2.7.3 1.1.3.8.6 1.7.9 2.5.2.5.4 1.1.6 1.6 0 .2.2.4.3.7.5 1.1.9 2.2 1.5 3.3.2.5.4 1 .7 1.5.3.6.6 1.1.9 1.7.5.8.9 1.7 1.5 2.5 2.4 3.9 5.2 7.5 8.4 10.7l.8.8.8.8c.1.1.3.2.4.4.1.2.3.2.4.4l.4.4c.2.2.4.4.6.5l.6.6c.2.1.3.3.5.4.2.1.3.3.5.4.2.1.3.3.5.4.2.2.4.3.6.5 7.7 5.7 17 9.8 28.2 12.3 6.5 1.4 12.7 2.1 18.6 2.1 13.9 0 26.1-3.9 36.6-11.7 14-10.4 23.7-26.8 28.6-48.8 4.7-21 3.2-39.4-5-55.3-1.6-3.1-3.4-6-5.4-8.7v-.3zM730 752.1c-3.4-7.5-3.8-16.5-1.5-26.4 4.4-19.7 13.8-29.5 28.3-29.5s5.9.4 9.2 1.1c6 1.4 10.7 3.9 14.2 7.6.2.2.3.4.5.6.1.2.3.3.4.5.2.2.3.4.5.6.1.2.3.4.4.6.1.2.3.4.4.6.1.2.3.4.4.6.1.2.3.4.4.6.1.2.2.4.4.6.1.2.2.4.4.6.1.2.2.4.3.7.1.2.2.4.3.7.2.5.5 1.1.7 1.6.8 2.2 1.4 4.6 1.8 7.1V721.2c0 .4 0 .8.1 1.3 0 .8.1 1.6.1 2.4 0 1.5 0 3-.1 4.5 0 1.2-.2 2.3-.4 3.5-.1 1-.3 2.1-.5 3.2s-.5 2.1-.7 3.2c0 .3-.1.5-.2.8-.2.8-.4 1.5-.6 2.2-1.1 3.9-2.5 7.3-4.2 10.4-1.9 3.6-4.2 6.6-6.8 9.1-1.5 1.4-3.1 2.6-4.7 3.7-.9.5-1.8 1-2.7 1.4-.6.3-1.2.5-1.8.7-.1 0-.3 0-.4.1-.3.1-.7.2-1 .3-1.1.3-2.2.5-3.4.7-1 .1-2 .2-3 .2-.8 0-1.6 0-2.4-.1-.5 0-.9 0-1.4-.1-.3 0-.5 0-.8-.1h-.3c-.7-.1-1.3-.2-2-.4-2.6-.6-5-1.4-7.2-2.4l-.6-.3c-.2-.1-.4-.2-.7-.3-.2-.1-.4-.2-.6-.4-.2-.1-.4-.2-.6-.4-.2-.1-.4-.3-.6-.4-.2-.1-.4-.2-.6-.4-.2-.1-.4-.3-.6-.4-.2-.1-.4-.3-.5-.4-.2-.2-.4-.3-.6-.5-.2-.1-.3-.3-.5-.4-.2-.2-.4-.4-.6-.5-2.6-2.5-4.7-5.5-6.2-9.2v-.1zM871.9 644.6l-.6-.2-1.5-.2-1.2-.2-.7-.2-1.4-.2-.5-.1-.9-.1-.2 1.3-.2 1.1-.4 2.5-13.9 79.3-.6 3.8-1 5.3-1.9 10.9-1.9 11.2-1.5 8.5.5.1.2.1h.4l.7.1.1.1h.4l.7.2h.4l.9.2h.3l.9.2h.2l.9.2h.2l1 .2h.2l1.1.2 1.2.2 1.1.2 1.1.2 1.2.2 27.5 4.8 20-114.3.1-.8.2-.8.1-.8.2-.8.1-.8.1-.8.2-.8v-.3l.1-.5.1-.3.1-.5v-.3l.1-.5.1-.3v-.5l.1-.3.1-.5-34.5-6zM851.4 783.7l-4.3-.7-2.7-.5-.5-.1-.7-.1-.7-.1-.2-.1-.5-.1h-.1l-.7-.1-.3 1.3-.2 1.1-.1.6-.3 1.9-5.5 31.5.7.1h.2l.2.1.8.1h.2l.2.1.9.1.2.1.9.1.3.1.9.1.2.1.9.1.2.1 1 .1.2.1 1.1.2 1.2.2 1.1.2 1.1.2 1.2.2 27.5 4.8 4.7-26.8.2-.8.1-.8.1-.8.2-.8.1-.8.2-.8.1-.8v-.3l.1-.5.1-.3.1-.5v-.3l.1-.5.1-.3v-.3l.1-.2v-.3l.1-.3v-.2l-30.1-5.3-.7-.1z" fill="#F39C49"/><path d="M926.4 653.6c-.3-.4-.6-.7-1-1-.3-.4-.6-.7-1-1-.3-.4-.6-.7-1-1-.3-.4-.6-.7-1-1-.3-.4-.6-.7-1-1-.3-.4-.6-.7-1-1-.3-.4-.6-.7-1-1-.3-.4-.6-.7-1-1-.3-.4-.6-.7-1-1-.3-.4-.6-.7-1-1-.3-.4-.6-.7-1-1-1.7-2-4.1-3.4-6.9-3.9l-41.2-7.2c-.7-.1-1.4-.2-2.1-.2-2.5 0-4.9.8-6.9 2.2-2.6 1.8-4.4 4.6-4.9 7.8l-10.3 59.2c-.3-.7-.7-1.4-1-2.1-3.9-7.6-8.7-14.1-14.6-19.6l-1-1-1-1-1-1-1-1-1-1-1-1-1-1-1-1-1-1-1-1-1-1c-9.9-9.7-22.7-16.4-38.3-19.9-8.4-1.9-16.4-2.8-23.9-2.8-15.6 0-29.4 4.1-41 12.2-5.8 4-10.9 8.9-15.4 14.6-.3-.3-.6-.7-1-1-.3-.3-.6-.7-1-1-.3-.3-.6-.7-1-1-.3-.3-.6-.7-1-1-.3-.3-.6-.7-1-1-.3-.3-.6-.7-1-1-.3-.3-.6-.7-1-1-.6-.6-1.2-1.2-1.9-1.7-12.1-8.7-20.9-13.9-28.8-17-9.5-3.8-20.3-6.3-33.1-7.5-3.8-.4-7.5-.5-11.1-.5-18.5 0-35.3 4.7-50 14-10.9 6.7-19.7 15.4-26.2 26l-.1-.1c-.3-.4-.6-.7-1-1-.3-.4-.6-.7-1-1-.3-.4-.6-.7-1-1-.3-.4-.6-.7-1-1-.3-.4-.6-.7-1-1-.3-.4-.6-.7-1-1-.3-.4-.6-.7-1-1-2-2.3-4.9-3.7-7.9-4-19.1-1.6-35.1-4.4-48.1-8.4-.7-2-1.8-3.8-3.4-5.2-.3-.4-.6-.7-1-1-.3-.4-.6-.7-1-1-.3-.4-.6-.7-1-1-.3-.4-.6-.7-1-1-.3-.4-.6-.7-1-1-.3-.4-.6-.7-1-1-.3-.4-.6-.7-1-1-.3-.4-.6-.7-1-1-.3-.4-.6-.7-1-1-.3-.4-.6-.7-1-1-.3-.4-.6-.7-1-1-1-1.1-2.2-2-3.5-2.7l-28.3-14.3c-1.7-.9-3.6-1.3-5.4-1.3-4 0-7.9 2-10.2 5.7-10.7 17.2-28.8 34.1-53.9 50.4-.3-2.3-1.3-4.4-2.9-6.2-.3-.3-.6-.7-1-1-.3-.3-.6-.7-1-1-.3-.3-.6-.7-1-1-.3-.3-.6-.7-1-1-.3-.3-.6-.7-1-1-.3-.3-.6-.7-1-1-.3-.3-.6-.7-1-1-.3-.3-.6-.7-1-1-.3-.3-.6-.7-1-1-.3-.3-.6-.7-1-1-.3-.3-.6-.7-1-1-.3-.3-.6-.7-1-1-2.3-2.5-5.5-4-8.9-4h-46.3c-.4-2-1.2-3.7-2.4-5.2-.4-.5-.9-1-1.4-1.5-.3-.4-.6-.7-1-1-.3-.4-.6-.7-1-1-.3-.4-.6-.7-1-1-.3-.4-.6-.7-1-1-.3-.4-.6-.7-1-1-.3-.4-.6-.7-1-1-.3-.4-.6-.7-1-1-.3-.4-.6-.7-1-1-.3-.4-.6-.7-1-1-.3-.4-.6-.7-1-1-.3-.4-.6-.7-1-1-2-2.3-4.9-3.7-7.9-4l-33.7-2.9h-1.1c-6.2 0-11.4 4.7-11.9 11-1.1 12.4-3.6 24.5-7.5 36l-.5-.5c-.7-.8-1.5-1.5-2.4-2.1l-31.8-20.7c-2-1.3-4.3-1.9-6.5-1.9-3.8 0-7.6 1.8-9.9 5.3l-13.3 19.6c-2.3-3.4-4.9-6.6-7.8-9.5a11057381375912.799 11057381375912.799 0 0 0-11-11c-2.5-2.5-5.2-4.9-8.2-7.1-11.9-8.7-25.9-13.1-41.5-13.1-3.2 0-6.6.2-9.9.6-29.6 3.1-51 21.2-64.3 53.5-2 4.8-.6 10.2 3.2 13.5.3.3.6.7 1 1 .3.3.6.7 1 1 .3.3.6.7 1 1 .3.3.6.7 1 1 .3.3.6.7 1 1 .3.3.6.7 1 1 .3.3.6.7 1 1 .3.3.6.7 1 1 .3.3.6.7 1 1 .3.3.6.7 1 1 .3.3.6.7 1 1 .6.6 1.2 1.3 2 1.8l30.1 21.5c2.1 1.5 4.5 2.2 7 2.2s2-.1 3-.4c-1.5 2.1-3.1 4.2-4.8 6.4-17.2 22-25.5 32.6-26.2 33.4-2 2.4-2.9 5.6-2.6 8.7l3.3 33.2c.3 3.1 1.8 5.9 4 7.8.3.4.6.7 1 1 .3.4.6.7 1 1 .3.4.6.7 1 1 .3.4.6.7 1 1 .3.4.6.7 1 1 .3.4.6.7 1 1 .3.4.6.7 1 1 .3.4.6.7 1 1 .3.4.6.7 1 1 .3.4.6.7 1 1 .3.4.6.7 1 1 2.2 2.5 5.4 4 8.9 4H58l95.4-9.4c6.6-.6 11.4-6.5 10.8-13.1l-2-20.6 7.2 7.6c.2.2.4.3.5.5l.5.5c.2.2.4.3.5.5l.5.5c.2.2.4.3.5.5l.5.5c.2.2.4.3.5.5l.5.5c.2.2.4.3.5.5l.5.5c.2.2.4.3.5.5l.5.5c.2.2.4.3.5.5l.5.5c.2.2.4.3.5.5l.5.5c.2.2.4.3.5.5l.5.5c.2.2.4.3.5.5l.5.5c.2.2.4.3.5.5l.5.5c.2.2.4.3.5.5l.5.5c2.4 2.5 5.5 3.8 8.7 3.8 3.2 0 5.7-1 8-3 4.9-4.3 9.4-8.8 13.7-13.3l14.5 19.2c.5.6 1 1.2 1.6 1.7.3.4.6.7 1 1 .3.4.6.7 1 1 .3.4.6.7 1 1 .3.4.6.7 1 1 .3.4.6.7 1 1 .3.4.6.7 1 1 .3.4.6.7 1 1 .3.4.6.7 1 1 .3.4.6.7 1 1 .3.4.6.7 1 1 .3.4.6.7 1 1 2.3 2.6 5.6 4 9 4 3.4 0 3.9-.5 5.7-1.5 9.6-5.2 18.1-11.1 25.4-17.3 13.9 6.7 30.8 10.1 50.2 10.1 19.4 0 4.1 0 6.1-.1 5.6-.2 10.3-4.2 11.4-9.7l6.5-33c.7-3.5-.2-7.2-2.5-9.9-.4-.5-.8-.9-1.3-1.3-.3-.4-.6-.7-1-1-.3-.4-.6-.7-1-1-.3-.4-.6-.7-1-1-.3-.4-.6-.7-1-1-.3-.4-.6-.7-1-1-.3-.4-.6-.7-1-1-.3-.4-.6-.7-1-1-.3-.4-.6-.7-1-1-.3-.4-.6-.7-1-1-.3-.4-.6-.7-1-1-.3-.4-.6-.7-1-1-2.3-2.6-5.5-4-9-4-8.5 0-15.5-.4-21.3-1.1.5-5 .8-10.6 1-16.7l17.4 6.9c1.4.6 2.9.8 4.4.8 4.4 0 8.5-2.4 10.7-6.5 2.6-5 4.9-10.3 7.1-15.9l1 1.5c-.7 1.6-1 3.4-.9 5.2l1.4 29.9c.2 3.3 1.7 6.3 4 8.3.3.4.6.7 1 1 .3.4.6.7 1 1 .3.4.6.7 1 1 .3.4.6.7 1 1 .3.4.6.7 1 1 .3.4.6.7 1 1 .3.4.6.7 1 1 .3.4.6.7 1 1 .3.4.6.7 1 1 .3.4.6.7 1 1 .3.4.6.7 1 1 1.2 1.4 2.8 2.5 4.6 3.2l1.7 27.6c.2 3.3 1.7 6.1 4 8.2.3.4.6.7 1 1 .3.4.6.7 1 1 .3.4.6.7 1 1 .3.4.6.7 1 1 .3.4.6.7 1 1 .3.4.6.7 1 1 .3.4.6.7 1 1 .3.4.6.7 1 1 .3.4.6.7 1 1 .3.4.6.7 1 1 .3.4.6.7 1 1 2.2 2.5 5.4 4.1 9 4.1h.7c30.7-1.8 58.8-4.3 83.6-7.4l.5.5c.3.4.6.7 1 1 .3.4.6.7 1 1 .3.4.6.7 1 1 .3.4.6.7 1 1 1.1 1.2 2.4 2.2 4 3 1.6.7 3.3 1.1 5 1.1 1.7 0 3.1-.3 4.5-.9l26.7-10.9c6-2.5 9-9.2 6.7-15.3-2.8-7.6-6.8-17.2-12.8-31l8.7-.4c4.7-.2 8.6-3.1 10.4-7.1 1.9 3.2 4 6.4 6.3 9.3 2 2.5 4.1 4.9 6.3 7.2l1 1 1 1 1 1 1 1 1 1 1 1 1 1 1 1 1 1 1 1 1 1c13.7 14.3 33 23 57.3 26 8.6 1.1 17.3 1.7 25.9 1.7 8.6 0 22.5-.9 33.8-2.8 5.4-.9 9.5-5.3 10-10.7l3.4-35.6c1.9 2.5 4 4.9 6.2 7.1l1 1 1 1 1 1 1 1 1 1 1 1 1 1 1 1 1 1 1 1 1 1c10.4 10.9 24.3 18.3 41.6 22.2h.1c7.3 1.6 14.4 2.4 21.1 2.4 16.5 0 31.3-4.7 43.8-14.1 3.2-2.4 6.2-5 9-7.9l-1.1 6.5c-.7 4.2.8 8.3 3.8 11 .3.4.6.7 1 1 .3.4.6.7 1 1 .3.4.6.7 1 1 .3.4.6.7 1 1 .3.4.6.7 1 1 .3.4.6.7 1 1 .3.4.6.7 1 1 .3.4.6.7 1 1 .3.4.6.7 1 1 .3.4.6.7 1 1 .3.4.6.7 1 1 1.7 2 4.1 3.4 6.9 3.9l41.2 7.2c.7.1 1.4.2 2.1.2 2.5 0 4.9-.8 6.9-2.2 2.6-1.8 4.4-4.6 4.9-7.8l6.4-36.4c.5-2.7 0-5.4-1.2-7.7 1.9-1.7 3.3-4.1 3.8-6.8l21.6-124c.7-4.2-.8-8.3-3.8-11l-.4-.1zm-871 169.1h-.9l-.9.2h-.9l-.9.2h-.9l-.9.2H44.6l-2.5-25.4-.3-2.6V794c-.1 0-.2-.9-.2-.9v-1.5c-.1 0-.2-.6-.2-.6v-.9c.1-.3 8.9-11.5 26.2-33.5 11.9-15.4 20.2-27.5 24.7-36.4.8-1.5 1.4-2.9 2-4.2 0 0 0-.2.1-.2.5-1.1.9-2.2 1.2-3.2.2-.7.4-1.3.5-1.9 0-.3.1-.6.2-.8v-.4c.2-1 .2-2 .1-2.8-.1-1.2-.3-2.3-.6-3.4 0-.3-.2-.5-.2-.7 0-.2-.1-.4-.2-.7 0-.2-.2-.5-.3-.7 0-.2-.2-.4-.3-.6l-.3-.6-.3-.6-.3-.6c-.1-.2-.3-.3-.4-.5-.1-.2-.2-.3-.4-.5-.1-.1-.2-.3-.3-.4l-.6-.6c-.6-.6-1.2-1.2-1.9-1.8-3.5-3.1-7.8-4.8-12.6-4.8-11.1.2-21 9.9-29.7 29.3l-17-12.2-1.1-.8-1.1-.8-1.1-.8-1.1-.8-.6-.4-.5-.3-.6-.4-.5-.3-.6-.4-.5-.3-.6-.4-.5-.3-.6-.4-.5-.3H21l-.5-.5-.5-.3h-.1l-.5-.5-.5-.3h-.1l-.5-.5-.5-.3c.6-1.5 1.3-3 1.9-4.4 8.4-18.4 19.8-30.8 34.4-37.3 3.9-1.7 8-3 12.3-3.9.6-.1 1.1-.2 1.7-.3 1.2-.2 2.5-.4 3.8-.6 2.1-.2 4.2-.4 6.3-.5H83.4c.9 0 1.8 0 2.7.2 2.4.2 4.7.5 6.9 1 2.1.4 4.2.9 6.2 1.6 1.5.5 3 1 4.4 1.6 1.1.5 2.3 1 3.4 1.5.9.4 1.8.9 2.7 1.4.8.4 1.5.9 2.3 1.4 1 .7 2.1 1.3 3.1 2.1 2.5 1.8 4.7 3.7 6.7 5.8.1.2.3.3.4.5.1.2.3.3.4.5l.6.6c.2.2.3.3.4.5.1.2.3.3.4.5.1.2.3.3.4.5.2.2.3.4.5.6.1.2.3.4.4.6.1.2.3.4.4.6.1.2.3.4.4.6.1.2.3.4.4.6 5 7.3 8 16 9 26.3 1.3 13.5-1.8 26.7-9.1 39.5-1.8 2.9-12 16.2-31 40l1.9-.2 1.9-.2 1.9-.2 1.9-.2 1.9-.2 1.9-.2 1.9-.2 1.9-.2 1.9-.2 1.9-.2h.5l1.4-.2h.5l1.4-.2h.5l1.9-.2 1.9-.2 1.9-.2 1.9-.2 6.3-.6 1.9-.2h.7v.5l.1.5v1.1l.1.6v.5l.1.6v.5l.1.6v.5l.1.6v.5l.1.6v.5l.2 1.1v1.1c.1 0 .2 1.1.2 1.1v1.1c.1 0 .2 1.1.2 1.1l2.5 25.9-84.7 8.3 1.2-.3zm99.2-129.4.5-.7.4-.6 17-25 .6.4.3.2.9.6.3.2.9.6.3.2.9.6.3.2 1.3.8 1.3.8 1.3.9 1.3.9 22 14.3-.2.2-.2.2-.2.2-.2.2-.2.2-.2.2-.2.2-.2.2-.2.2-.2.2-.2.2-.2.2-16.4 24.5-17.8-12-1.2-.8-1.2-.8-1.2-.8-1.2-.8-.4-.2-.8-.5-.4-.2-.8-.5-.4-.2-.8-.5-.4-.2-.8-.5-.4-.2-.4-.2-.4-.3-.4-.2-.4-.2-.4-.3-.4-.3-.4-.2h-.1l-.3-.3-.4-.2h-.2c0-.1-.2-.2-.2-.2l-.4-.3.3-.5 1.1.1zm-6 77.5c-.1-.1-.2-.2-.4-.3-.3-.4-.6-.7-1-1-.3-.4-.6-.7-1-1-.3-.4-.6-.7-1-1-.4-.5-.9-.9-1.3-1.3-.2-.2-.4-.3-.7-.5 3.7-4.8 5.1-6.9 5.8-8l.2-.3c7.7-13.3 11.3-27.2 10.9-41.4l21.1 14.2c-10.5 16.4-21.2 29.7-32.5 40.6h-.1zm29.7 32.9-14.6-15.4-1-1-1-1-1-1-.4-.4-.6-.6-.2-.2-.2-.2-.6-.6-.2-.2-.2-.2-.5-.5-.2-.2-.3-.3-.5-.5-.2-.2-.3-.3-.2-.2.1-.1.5-.5c.1-.1.2-.2.4-.3l.2-.2c12-11.5 23.2-25.6 34-42.3 0 0 .1-.2.2-.3 0-.1.2-.3.3-.4.1-.2.2-.4.4-.6.8-1.3 1.6-2.5 2.4-3.8 0-.1.1-.2.2-.3.1-.2.2-.4.4-.6l.6-.9c.1-.2.2-.4.3-.5l.5.4.3.3.8.7.3.2.9.7.2.2 1 .8h.1c0 .1 1.1 1 1.1 1l1.1.9 1.1.9 1.1.9 15.8 12.8v1.2c-8.8 18.3-22.4 35.9-41.1 52.6l-1 .2zm150.8-21.9-.2.9-.2 1c0 .1-.2 1-.2 1v.2l-.2.8v.2l-.2.8v.2l-.2.7v.3l-.2 1-.2 1-.2 1-.2.9-.2.9-.2.9-4.2 21.5c-1.9 0-3.8.1-5.7.1-21.4 0-38.8-4.4-52-12.9-7.5 7.7-16.6 14.4-27.2 20.4h-2.4l-13.7-18.2-.9-1.2-.9-1.2-.9-1.2-.9-1.2-.9-1.2-.9-1.2-.6-.8-.2-.3-.6-.8c1.2-.7 2.4-1.4 3.5-2.1 1.5-.9 3-1.9 4.4-2.8 1.2-.8 2.4-1.6 3.5-2.4 1.2-.9 2.4-1.8 3.5-2.6 1.3-1 2.5-2 3.6-3 2.6-2.3 4.8-4.6 6.5-6.7 1.3-1.7 2.5-3.5 3.5-5.5 1.5-2.8 2.8-5.9 3.8-9.2.2-.6.4-1.3.5-1.9.6-2.3 1.1-4.7 1.5-7.2.2-1 .3-2 .4-3 0-.9.2-1.7.3-2.6.1-.9.2-2.1.3-3.7V726.3h17.2l17 .1v12c-.4 14.6-1.7 26.3-4 34.9.4.2.7.3 1.1.5.4.2.7.3 1.1.5.4.2.8.3 1.1.4.4.1.8.3 1.1.4.4.1.8.3 1.1.4.4.1.8.3 1.1.4.4.1.8.2 1.1.3.4.1.7.2 1.1.3.4.1.8.2 1.1.3.3.1.7.2 1.1.3.4 0 .8.2 1.1.3.4 0 .7.2 1.1.3.8.2 1.6.3 2.5.5.4 0 .8.1 1.1.2h.5c.2 0 .5 0 .7.1.4 0 .8.1 1.1.2 2.2.4 4.5.7 6.9.9 6.5.7 13.8 1 21.9 1l1 1.2zm-103.8-43.7 13.2 6.3c0 .5 0 .9-.1 1.2v.7c-.1 1.3-.3 2.6-.4 3.9l-.7-.7c-.3-.4-.6-.7-1-1-.3-.4-.6-.7-1-1-.3-.4-.6-.7-1-1-.3-.4-.6-.7-1-1-.3-.4-.6-.7-1-1-.3-.4-.6-.7-1-1-.3-.4-.6-.7-1-1-.3-.4-.6-.7-1-1-.4-.5-.9-1-1.5-1.4l-2.4-2h-.1zm111.5-67.2c0 .3 0 .7-.1 1 0 .3 0 .7-.1 1 0 .3 0 .7-.1 1 0 .3 0 .7-.1 1 0 .3 0 .7-.1 1 0 .3 0 .7-.1 1 0 .3 0 .7-.1 1-.1.3 0 .7-.1 1 0 .3 0 .7-.1 1 0 .3-.1.7-.2 1 0 .3-.1.7-.2 1-.9 5.6-1.9 11-3.1 16.2-1 1.3-1.7 2.8-2.1 4.4-.4 1.5-.4 3.1-.2 4.7-2.9 10.4-6.6 20-11.1 28.7l-13.7-5.4-1.2-.5-1.2-.5-1.2-.5-1.2-.5-.7-.3-.5-.2-.7-.3-.5-.2-.7-.3-.6-.2-.7-.3-.6-.2-.7-.3-.6-.2-.5-.2-.6-.2-.6-.3-.6-.2h-.1l-.4-.2-.6-.2c0-.2.2-.4.3-.6.6-1.4 1.2-2.7 1.8-4 .1-.3.3-.7.4-1 .1-.3.3-.7.4-1 .1-.3.3-.7.4-1 .1-.3.3-.7.4-1 .1-.3.3-.7.4-1 .1-.3.3-.7.4-1 .1-.3.3-.7.4-1 .1-.3.3-.7.4-1 .1-.3.2-.7.4-1 .1-.3.2-.7.4-1 .1-.3.2-.7.3-1 .1-.3.2-.7.3-1 .1-.3.2-.7.3-1 .1-.3.2-.7.3-1 0-.3.2-.7.3-1 0-.3.2-.7.3-1 0-.3.2-.7.3-1 0-.3.2-.7.3-1H256c-2.9 7.7-7.1 16.1-12.3 25.1l-15.9-7.6-1.2-.6-1.2-.6-1.2-.6-1.2-.6-.5-.3-.7-.3-.5-.3-.7-.3-.5-.2-.7-.3-.5-.2-.7-.3-.5-.2-.7-.3-.5-.2-.7-.3-.5-.2-.7-.3-.5-.2-.7-.3c1.1-1.9 2.1-3.9 3.1-5.8 1.7-3.2 3.2-6.5 4.6-9.7.1-.3.3-.6.4-.9 0 0 0-.2.1-.3.8-1.9 1.6-3.9 2.3-5.8v-.2c2.1-5.6 3.9-11.2 5.4-17 .1-.6.3-1.1.4-1.7 1.7-7.1 3-14.3 3.8-21.7 0-.7.1-1.3.2-2v-.8c0-.4 0-.8.1-1.2h1l.6.1h1.5c0 .1 1 .2 1 .2h1.3c0 .1 2.7.3 2.7.3l25.7 2.2v5.4c0 .3 0 .6-.1.9 0 .3 0 .6-.1.9 0 .3 0 .6-.1.9 0 .3 0 .6-.1.9 0 .3 0 .6-.1.9 0 .3 0 .6-.1.9-.5 3.8-1.1 7.4-1.6 10.7H284.9l53.3.2c0 .3 0 .7-.1 1l-1.3-.5zm156.7 108.8v.2c6.2 14.1 10.9 25.4 14.1 33.9l-22.5 9.2-.5.2-.5.2-.5.2-.5.2-.5.2-.5.2-.5.2-.6.3v-.2c-.1-.3-.2-.7-.4-1.1-.1-.3-.3-.7-.4-1.1-.1-.3-.3-.7-.4-1.1-.1-.3-.3-.7-.4-1.1-.1-.3-.3-.7-.4-1.1-.1-.3-.3-.7-.4-1.1-.1-.3-.3-.7-.4-1.1-.1-.4-.3-.7-.4-1.1-.1-.4-.3-.7-.4-1.1-23.7 3.2-51.2 5.9-82.8 8h-11.4l-1.4-22.2-.2-3V792.1l1.8-.1 15-.9.3-1.5c0-.4.1-.7.2-1.1 0-.4.1-.7.2-1.1 0-.4.1-.7.2-1.1 0-.4.1-.7.2-1.1 0-.4.1-.7.2-1.1 0-.3 0-.5.1-.8v-.3c0-.3 0-.5.1-.8 0-.4.1-.7.2-1.1 0-.4.1-.7.2-1.1 0-.4.1-.7.2-1.1 0-.4.1-.7.2-1.1 0-.4 0-.7.1-1.1 0-.4 0-.7.1-1.1 0-.4 0-.7.1-1.1 0-.4 0-.7.1-1.1 0-.4 0-.7.1-1.1 0-.4 0-.7.1-1.1.1-.4 0-.7.1-1.1l-28.1 1.4h-11.4l-1-21v-2.4c-.1 0-.2-2-.2-2v-2.8c-.1 0-.2-1.6-.2-1.6H363.5l6-.3H370.6l3.3-.2h1.6l1.8-.2h1.4l1.8-.2h1.4l3.2-.2 3.1-.2 3.1-.2h3.1c0-.1 7.4-.5 7.4-.5h4.4l4-.2h2l8.9-.4 19.4-.9 19.4-.9 19.4-.9H491.4l6-.3 14.8-.7v9.7l.1 1v1l.1 1 .8 17.3-26.1 1.3c1.9 4.3 3.7 8.4 5.4 12.3l1 .7zm30-100.4v.6c-.1 0-.2.3-.2.3v.6c-.1 0-.2.3-.2.3v.6c-.1 0-.2.2-.2.2v.6c-.1 0-.2.2-.2.2v.7c-.1 0-.2.2-.2.2v.7c-.1 0-.3.9-.3.9l-.2.9-.2.9-.2.9-.2.9-.2.9-4.6 23.7c-12.2-.5-26.5-2.7-42.6-6.7v7.2c-.1 0-.1.3-.1.3v2l-.3 15.9-61-.2H400.6V711.7c-10.7 7.3-23 14.6-37 21.6 0 0-.2 0-.3.1 0 0-.2 0-.3.1 0 0-.2 0-.3.1 0 0-.2 0-.3.1 0 0-.2 0-.3.1 0 0-.2 0-.3.1-.1.1-.2 0-.3.1 0 0-.2 0-.3.1 0 0-.2 0-.3.1 0 0-.2 0-.3.1 0 0-.2 0-.3.1 0 0-.2 0-.3.1l-7.7-11.7-.9-1.4-.9-1.4-.9-1.4-.9-1.4-.8-1.2c0-.1-.6-1.1-.6-1.1l-.2-.3c0-.1-.6-1-.6-1l-.2-.3c0-.1-.5-1-.5-1l-.3-.4c0-.1-.5-.9-.5-.9l-.3-.5c0-.1-.4-.7-.4-.7l-.2-.3-.2-.3v-.1l-.3-.5-.2-.3-.3-.4-.2-.4-.2-.3-.4-.6-.2-.2-.2-.3-.4-.6c.4-.2.8-.4 1.2-.7.4-.2.9-.5 1.3-.7.4-.2.8-.5 1.3-.7h.1c.5-.3.9-.5 1.3-.8.4-.2.9-.5 1.3-.7h.1c.4-.2.8-.5 1.2-.7h.1c.4-.2.8-.5 1.2-.7h.2c.4-.2.8-.4 1.1-.7 0 0 .1 0 .2-.1.4-.3.9-.5 1.3-.8.4-.3.9-.5 1.3-.8.4-.3.9-.5 1.3-.8.4-.3.9-.5 1.3-.8.4-.3.9-.5 1.3-.8 30.8-18.8 52.8-38.6 65.6-59.3l.7.3.3.2 1 .5.3.2 1 .5.4.2 1 .5.5.2 1.5.8 1.6.8 1.7.9 1.8.9 16.5 8.3c0 .1 0 .3-.1.4-.1.1 0 .3-.1.4 0 .1-.1.3-.2.4 0 .1-.1.3-.2.4 0 .1-.1.3-.2.4 0 .1-.1.3-.2.4 0 .1-.1.3-.2.4 0 .1-.1.3-.2.4 0 .1-.1.3-.2.4 0 .1-.1.3-.2.4 0 .1-.1.3-.2.4 0 .1-.1.3-.2.4-.6 1.4-1.4 2.8-2.1 4.3.4.2.8.5 1.2.7.4.2.8.5 1.2.7.4.2.8.4 1.2.7l1.2.6 1.2.6 1.2.6 1.2.6 1.2.6c.4.2.8.4 1.2.5.4.2.8.3 1.2.5.4.2.8.4 1.2.5.4.2.8.3 1.2.5 1.8.7 3.7 1.4 5.6 2.1h.2c1.2.4 2.4.8 3.7 1.2 2 .6 4 1.2 6.2 1.8 3.4.9 6.9 1.7 10.6 2.5 6.4 1.3 13.2 2.4 20.5 3.3 4.3.5 8.8 1 13.5 1.4v.3l.6-.2zm158.2-6.3v.2c-.1 0-.2.2-.2.2v.2c-.1 0-.3.2-.3.2v.2c-.1 0-.3.2-.3.2v.2c-.1 0-.3.2-.3.2l-.2.3-.2.3-.2.3-17.5 29.2C647 693 633.7 687 622.4 686.6H619c-26.8 0-41.2 13.3-43.3 40.2-1.3 16.5 2.3 28.8 10.8 36.9.2.2.4.3.5.5.2.1.3.3.5.4.2.2.4.3.6.5.2.2.4.3.6.5.2.1.4.3.6.4.2.1.4.3.6.4.2.1.4.3.6.4.2.1.4.3.6.4.2.1.4.3.6.4.2.1.4.3.6.4.2.1.4.3.6.4 3.5 2 7.5 3.6 12 4.8.2 0 .4.1.6.2.3 0 .7.2 1 .2.6.1 1.1.2 1.7.4.9.2 1.9.3 2.9.5.8.1 1.5.2 2.3.3h1.8c2.5 0 7.7.2 15.6.4v-1.3l.6-6v-.9l.2-.9v-.9l.2-.9v-.9l.2-.9v-.3l.1-.9v-.9l.2-.9v-.9l.2-.9v-.9l.2-.9v-.9l.2-.9v-.9l.2-.9v-.9l-17.1-.8h-1l-1-.1h-1l-1-.1h-8l1-25.9V723l.1-1.8V717.6h5.6l3.2.2 54.5 2.6H670.8l1.3.1h.4v6.7l-.2.9v.9l-.2.9v.9l-.2.9-7.6 80.3c-10.5 1.7-21.1 2.6-31.8 2.6s-16.2-.5-24.4-1.6c-17.4-2.1-31.8-7.5-42.9-16.1-.2-.1-.4-.3-.6-.4-.2-.1-.3-.2-.5-.4-.2-.1-.3-.2-.5-.4s-.4-.4-.6-.5c-.2-.2-.4-.4-.6-.5-.2-.2-.4-.4-.6-.5-.1-.1-.3-.2-.4-.3-.1-.1-.3-.2-.4-.3l-.6-.6-.7-.7-.7-.7c-2-1.9-3.8-4-5.5-6.2-1.8-2.3-3.4-4.7-4.9-7.2-.6-.9-1.1-1.9-1.6-2.8-.6-1.1-1.1-2.2-1.6-3.3-.7-1.4-1.3-2.9-1.8-4.3-.7-1.8-1.4-3.7-1.9-5.6-.8-2.8-1.5-5.6-2-8.6-.7-3.8-1.1-7.8-1.4-11.9 0-.8 0-1.6-.1-2.4v-7.5c0-.9 0-1.9.1-2.8v-.6c0-.9.1-1.8.2-2.8 0-1.2.2-2.3.4-3.5.4-3.5.9-6.8 1.5-10.1 0-.5.2-1 .3-1.5.6-2.7 1.2-5.2 2-7.7.8-2.7 1.7-5.2 2.7-7.7.3-.8.7-1.6 1-2.4.3-.6.6-1.2.8-1.8.3-.6.6-1.1.8-1.7 5.7-11.1 14-20 24.8-26.6 3.3-2.1 6.8-4 10.3-5.5 5.1-2.2 10.4-3.9 15.9-5 .4 0 .9-.2 1.3-.2 3.9-.7 8-1.2 12.1-1.3h6.9c1 0 2 0 3 .1 1.3 0 2.7.2 4 .3 3.4.3 6.6.8 9.7 1.3 4.1.7 7.8 1.5 11.4 2.5 2.5.7 4.8 1.5 7 2.3.6.2 1.2.4 1.7.6 1 .4 2 .9 3.1 1.3 1.1.5 2.2 1.1 3.4 1.7 1 .5 2 1.1 3.1 1.7 5 2.9 10.6 6.5 16.7 10.9v.2l-.7-.5zm142.6 74.2c-4.9 22.1-14.5 38.4-28.6 48.8-10.5 7.8-22.7 11.7-36.6 11.7-13.9 0-12.1-.7-18.6-2.1-11.1-2.5-20.5-6.6-28.2-12.3-.2-.2-.4-.3-.6-.5-.2-.1-.3-.3-.5-.4-.2-.1-.3-.3-.5-.4-.2-.1-.4-.3-.5-.4l-.6-.6c-.2-.2-.4-.4-.6-.5-.1-.1-.3-.2-.4-.4-.1-.1-.3-.2-.4-.4-.1-.2-.3-.2-.4-.4l-.8-.8-.8-.8c-3.2-3.2-6-6.8-8.4-10.7-.5-.8-1-1.7-1.5-2.5-.3-.6-.6-1.1-.9-1.7-.2-.5-.5-1-.7-1.5l-1.5-3.3c0-.2-.2-.4-.3-.7-.2-.5-.4-1.1-.6-1.6-.3-.8-.6-1.6-.9-2.5-.1-.4-.2-.7-.3-1.1-.2-.6-.3-1.1-.5-1.7-.3-1.1-.6-2.1-.8-3.2-.2-.8-.3-1.7-.5-2.5 0-.4-.2-.8-.2-1.2-.1-.8-.2-1.5-.3-2.3-.1-.8-.2-1.7-.3-2.5 0-.9-.2-1.9-.3-2.8v-.2c0-.8-.1-1.5-.1-2.3V736c0-.9.1-1.8.2-2.7 0-1.1.2-2.2.3-3.3 0-.8.2-1.5.3-2.3v-.3l.6-4.2.3-1.8c0-.2 0-.4.1-.6V720.2c0-.4.2-.9.3-1.3l.3-1.5c0-.4.2-.9.3-1.3.4-1.7.8-3.3 1.2-4.9.5-1.8 1-3.5 1.5-5.2.7-2.2 1.5-4.4 2.3-6.5.5-1.3 1-2.6 1.6-3.8 1.9-4.2 4-8.2 6.4-11.7.3-.5.7-1 1-1.4l.6-.9c4.2-5.8 9.1-10.6 14.7-14.6 3-2.1 6.2-3.9 9.6-5.3 3.6-1.5 7.3-2.7 11.3-3.5.6-.1 1.1-.2 1.7-.3 3.1-.5 6.2-.8 9.5-.9h5c1 0 1.9 0 2.9.2 3.2.2 6.6.6 10 1.2 1.8.3 3.6.7 5.4 1.1 1.7.4 3.3.8 4.9 1.2 2.2.6 4.4 1.4 6.5 2.2 1.5.6 2.9 1.2 4.2 1.8 1.2.5 2.3 1.1 3.5 1.7l2.7 1.5c4.6 2.8 8.7 6 12.3 9.8 0 .1.2.2.3.3.2.2.3.4.5.5.2.2.3.4.5.5.2.2.3.4.5.5.2.2.3.4.5.5.1.2.3.3.4.5.2.2.3.4.4.6.2.2.3.4.4.6.1.2.3.4.4.6.1.2.3.4.4.5 2 2.7 3.8 5.6 5.4 8.7 8.2 15.8 9.7 34.3 5 55.3v.3zm57.9 42.1v.3l-.1.3v.8l-.1.5v.3l-.1.5v.3l-.1.5v.3l-.2.8v.8c-.1 0-.3.8-.3.8v.8c-.1 0-.3.8-.3.8v.8c-.1 0-.3.8-.3.8l-4.7 26.8-27.6-4.8-1.1-.2-1.1-.2-1.1-.2-1.1-.2-1.1-.2h-.2l-.9-.2h-.2l-.9-.2h-.2l-.9-.2h-.2l-.9-.2h-.2l-.9-.2h-1.1c0-.1-.2-.2-.2-.2h-.2l-.7-.2 5.5-31.5.3-1.8v-.6c.1 0 .3-1.1.3-1.1l.2-1.3h.7c0 .1.2.2.2.2h.5l.2.1h.7c0 .1.7.2.7.2h.5l2.7.6 4.3.8h.7c0 .1 30.1 5.4 30.1 5.4v.2l-.6-.2zm24.1-138.2v.3l-.1.5v.3l-.1.5v.3l-.1.5v.3l-.1.5v.3l-.2.8v.8c-.1 0-.3.8-.3.8v.8c-.1 0-.3.8-.3.8v.8c-.1 0-.3.8-.3.8l-20 114.4-27.6-4.8-1.1-.2-1.1-.2-1.1-.2-1.1-.2-1.1-.2h-.2l-.9-.2h-.2l-.9-.2h-.2l-.9-.2h-.2l-.9-.2h-1.1c0-.1-.2-.2-.2-.2h-.8c0-.1-.2-.1-.2-.1h-.9l1.5-8.6 2-11.2 1.9-10.8.9-5.3.7-3.8 13.9-79.4.4-2.5.2-1.1.2-1.4.9.2h.5l1.4.3h.7c0 .1 1.3.3 1.3.3l1.4.3h.7c0 .1 34.4 6.1 34.4 6.1v.5l-.8-.2z" fill="#3A2C1F"/><path d="M411.1 703.9H465c-13.8-4.1-25.6-9.9-35.4-17.3-5.4 5.9-11.6 11.7-18.6 17.2l.1.1zM436.6 789.1c.4 0 .8 0 1.2-.1.4 0 .8 0 1.2-.1.4 0 .8 0 1.2-.1.4 0 .8 0 1.2-.1.4 0 .8 0 1.1-.1.4 0 .8 0 1.1-.1.4 0 .7 0 1.1-.1.4 0 .7 0 1.1-.1.4 0 .7 0 1.1-.1.4 0 .7 0 1.1-.1.4 0 .7 0 1.1-.1H450.8c.4 0 .7 0 1.1-.1.4 0 .7 0 1.1-.1.4 0 .7 0 1.1-.1.4-.1.7 0 1.1-.1 2.3-.2 4.6-.5 6.9-.7h3v-.3c-.1 0-.4-.6-.4-.6l-.2-.4-1.7-3.8-.5-1-.5-1-.5-1-.5-1-.4-.8.6-.2 3-1.2 3-1.2 3-1.2 3-1.2 3-1.2 3-1.2 3-1.2-43.4 2.1c-.5 7.1-1 13.7-2 19.4v-.8zM787.3 722.5c0-.4 0-.9-.1-1.3V720.3c-.4-2.5-1-4.8-1.8-7.1-.2-.6-.4-1.1-.7-1.6-.1-.2-.2-.4-.3-.7-.1-.2-.2-.4-.3-.7-.1-.2-.2-.4-.4-.6-.1-.2-.2-.4-.4-.6-.1-.2-.3-.4-.4-.6-.1-.2-.3-.4-.4-.6-.1-.2-.3-.4-.4-.6-.1-.2-.3-.4-.4-.6-.2-.2-.3-.4-.5-.6-.1-.2-.3-.3-.4-.5-.2-.2-.3-.4-.5-.6-3.5-3.7-8.2-6.2-14.2-7.6-3.3-.8-6.3-1.1-9.2-1.1-14.5 0-23.9 9.8-28.3 29.5-2.3 9.9-1.8 18.8 1.5 26.4 1.5 3.6 3.6 6.7 6.2 9.2.2.2.4.4.6.5.2.1.3.3.5.4.2.2.4.3.6.5.2.1.4.3.5.4.2.1.4.3.6.4.2.1.4.3.6.4.2.1.4.3.6.4.2.1.4.2.6.4.2.1.4.2.6.4.2.1.4.2.7.3l.6.3c2.2 1 4.6 1.9 7.2 2.4.7.2 1.4.3 2 .4h.3c.3 0 .5 0 .8.1.5 0 .9.1 1.4.1.8 0 1.6.1 2.4.1 1 0 2 0 3-.2 1.1-.1 2.3-.4 3.4-.7.3 0 .7-.2 1-.3.1 0 .3 0 .4-.1.6-.2 1.2-.4 1.8-.7.9-.4 1.8-.9 2.7-1.4 1.6-1 3.2-2.2 4.7-3.7 2.6-2.5 4.9-5.5 6.8-9.1 1.7-3.1 3.1-6.5 4.2-10.4.2-.7.4-1.5.6-2.2 0-.3.1-.5.2-.8.3-1.1.5-2.2.7-3.2.2-1.1.4-2.1.5-3.2.2-1.2.3-2.4.4-3.5.1-1.5.1-3 .1-4.5 0-.8 0-1.6-.1-2.4v.1zm-13.2 13.9v.3c-1.8 7.3-4.6 12.9-8.5 16.7-2.7 2.6-5.3 3.7-8.6 3.7s-2.7-.2-4.3-.5h-.3c-.2 0-.3-.1-.5-.2-1.2-4.5-1.2-9.8.2-15.8 4.5-20.3 13-20.3 16.6-20.3 3.6 0 3.9.3 6.2.8.9 4.5.6 9.6-.9 15.4l.1-.1z" fill="#3A2C1F"/></g><defs><clipPath id="a"><path fill="#fff" transform="translate(6 624)" d="M0 0h924.4v225.5H0z"/></clipPath></defs></svg>