<svg width="1339" height="300" fill="none" xmlns="http://www.w3.org/2000/svg"><path d="m282.249 119.182 22.478-95.54c5.028 1.736 10.087 3.59 15.136 5.239 9.38 3.931 18.25 9.46 26.172 16.132 8.041 6.77 15.108 14.717 20.737 23.36l.442.684c-28.472 17.312-56.931 34.647-85.401 51.968l.436-1.843zM128.306 85.979h53.152c.276 0 .54-.048.779-.133.282-.106.505-.243.733-.434 4.47-3.286 9.211-6.23 14.181-8.79a104.78 104.78 0 0 1 15.349-6.428 105.614 105.614 0 0 1 26.824-5.074c9.095-.53 18.287.106 27.294 1.93l.912.185-24.221 102.95c-.467 1.991 1.715 3.537 3.508 2.382 29.596-18.692 60.272-36.686 90.226-54.906l.459.806c11.771 20.684 15.864 44.014 12.841 66.358-3.036 22.422-13.238 43.861-30.035 60.657-18.498 18.501-42.36 28.834-66.838 30.683-24.524 1.854-49.672-4.808-70.668-20.291a2.258 2.258 0 0 0-1.342-.441h-.902v-.019h-65.361a8.533 8.533 0 0 1-6.057-2.51c-1.747-1.745-2.524-3.889-2.524-5.994 0-1.151.236-2.294.677-3.349a8.742 8.742 0 0 1 1.895-2.841c1.494-1.496 3.565-2.466 6.011-2.466h44.242a2.28 2.28 0 0 0 1.459-.53c.256-.214.463-.478.605-.769.139-.289.218-.611.218-.947 0-.516-.191-1.072-.634-1.602-1.523-1.806-8.714-13.479-9.886-15.816a2.255 2.255 0 0 0-.833-.908 2.316 2.316 0 0 0-1.193-.343l-99.944.004c-4.089 0-6.686-2.217-7.827-5.062a9.366 9.366 0 0 1-.654-3.472 9.448 9.448 0 0 1 .662-3.476c1.156-2.888 3.774-5.151 7.817-5.151h91.718c.235 0 .461-.035.673-.097a2.234 2.234 0 0 0 1.137-.786c.28-.372.451-.843.451-1.371 0-.26-.042-.532-.125-.812-.839-2.714-2.475-12.727-2.807-15.792a2.27 2.27 0 0 0-2.259-2.046l-57.983-.009a8.396 8.396 0 0 1-3.272-.65 8.648 8.648 0 0 1-2.788-1.862c-1.748-1.743-2.523-3.881-2.523-5.984 0-1.151.237-2.293.677-3.349a8.804 8.804 0 0 1 1.895-2.842c1.496-1.499 3.568-2.469 6.013-2.469h57.988c.621 0 1.186-.247 1.595-.65.41-.403.669-.962.684-1.575.037-2.728 2.179-12.594 2.838-15.841a2.254 2.254 0 0 0-.405-1.955 2.253 2.253 0 0 0-1.218-.811 2.365 2.365 0 0 0-.571-.068l-91.712-.015a8.452 8.452 0 0 1-3.274-.648 8.587 8.587 0 0 1-2.785-1.86c-1.747-1.747-2.526-3.894-2.526-6a8.796 8.796 0 0 1 2.566-6.186c1.498-1.494 3.57-2.464 6.017-2.464h99.944a2.267 2.267 0 0 0 2.07-1.324c1.124-2.429 8.267-13.711 9.996-15.943.318-.417.461-.887.461-1.338 0-.353-.089-.706-.251-1.026a2.402 2.402 0 0 0-.678-.823 2.204 2.204 0 0 0-1.338-.445l-2.086-.016-29.047.004a8.564 8.564 0 0 1-3.273-.653 8.656 8.656 0 0 1-2.788-1.861c-1.746-1.744-2.525-3.888-2.525-5.993a8.71 8.71 0 0 1 .675-3.347 8.81 8.81 0 0 1 1.893-2.838c1.498-1.49 3.568-2.46 6.018-2.458zm-41.151 166.94c-1.473 1.471-3.516 2.425-5.93 2.425H56.15a8.373 8.373 0 0 1-3.235-.647 8.515 8.515 0 0 1-2.751-1.838c-1.727-1.723-2.491-3.838-2.491-5.91 0-1.138.235-2.269.669-3.312a8.689 8.689 0 0 1 1.872-2.809c1.475-1.477 3.522-2.435 5.936-2.435h25.073a8.473 8.473 0 0 1 5.982 2.481c1.724 1.731 2.493 3.852 2.493 5.928a8.63 8.63 0 0 1-.667 3.31 8.648 8.648 0 0 1-1.876 2.807zM50.7 179.207H14.405a8.358 8.358 0 0 1-3.23-.646 8.54 8.54 0 0 1-2.754-1.845c-1.72-1.677-2.493-3.788-2.493-5.876 0-1.12.222-2.234.644-3.268a8.755 8.755 0 0 1 1.82-2.799c1.473-1.517 3.539-2.514 6.013-2.514H50.7c1.139 0 2.232.23 3.231.646a8.52 8.52 0 0 1 2.753 1.841c1.725 1.72 2.494 3.837 2.494 5.917a8.627 8.627 0 0 1-.667 3.308 8.674 8.674 0 0 1-1.87 2.807c-1.474 1.473-3.518 2.429-5.94 2.429zm44.623-76.138H78.939c-1.184 0-2.372-.32-3.37-.736-1.188-.494-2.142-1.234-2.58-1.783l-.034.034c-1.722-1.725-2.49-3.842-2.49-5.916a8.732 8.732 0 0 1 2.537-6.11c1.478-1.476 3.52-2.434 5.935-2.434H95.32c1.138 0 2.231.229 3.233.646a8.543 8.543 0 0 1 2.753 1.84c1.724 1.72 2.491 3.839 2.491 5.917a8.712 8.712 0 0 1-2.535 6.113c-1.475 1.473-3.52 2.431-5.938 2.429z" fill="#FDCF25"/><path d="M162.317 260.108h18.54l.21.152a110.419 110.419 0 0 0 14.505 8.88 110.126 110.126 0 0 0 75.661 9.022 110.573 110.573 0 0 0 52.52-29.353c17.564-17.568 28.221-39.987 31.375-63.422 3.141-23.365-1.17-47.746-13.514-69.351l-.384-.669 11.255-6.848.403.702c13.913 24.198 18.802 51.54 15.313 77.749-3.503 26.294-15.433 51.456-35.133 71.156-23.467 23.466-54.11 35.574-84.978 36.178-30.861.607-61.947-10.289-86.309-32.823l-1.486-1.373h2.022zM346.32 39.098c-3.513-2.758-7.187-5.29-11.195-7.726a104.898 104.898 0 0 0-13.853-7.066c-4.749-2.001-9.657-3.67-14.727-5.043l-.74-.202 3.017-12.83.788.206a123.114 123.114 0 0 1 41.115 19.477 124.23 124.23 0 0 1 31.381 33.128l.438.682-11.216 6.827-10.925-14.264-3.931-4.161c-3.322-3.315-6.649-6.28-10.152-9.029zm-206.601 68.735h15.11l-6.975 11.596h-14.651l.53-1.13a121.533 121.533 0 0 1 5.307-10.071l.23-.395h.449zm72.949-56.217c18.547-5.144 38.439-5.992 58.199-1.897l.8.166-3.019 12.825-.754-.154a110.992 110.992 0 0 0-28.578-2.057 110.314 110.314 0 0 0-28.098 5.315 109.502 109.502 0 0 0-15.66 6.522 111.072 111.072 0 0 0-14.501 8.874l-.21.152h-20.545l1.485-1.374a123.592 123.592 0 0 1 50.881-28.372zm-87.435 94.288h12.786l-2.003 11.594h-13.233l.102-.885c.189-1.662.419-3.351.683-5.061.268-1.725.563-3.395.883-5.008l.127-.642.655.002zm-1.559 38.07h12.349l2.003 11.594H124.58l-.126-.644a125.608 125.608 0 0 1-1.567-10.074l-.1-.878.887.002zm10.774 38.067h13.406l6.975 11.594h-15.561l-.23-.393a122.676 122.676 0 0 1-5.307-10.073l-.53-1.128h1.247z" fill="#F49C48"/><path d="M169.496 143.71c6.782 0 12.28 5.498 12.28 12.28 0 6.784-5.498 12.28-12.28 12.28-6.782 0-12.28-5.498-12.28-12.28 0-6.782 5.498-12.28 12.28-12.28zm13.674 106.797h-65.357a8.542 8.542 0 0 1-3.277-.653 8.6 8.6 0 0 1-2.78-1.857c-1.677-1.679-2.462-3.722-2.52-5.745-.002-.084-.004-.167-.004-.25 0-.486.043-.972.124-1.45-.056.052-.114.11-.168.164a8.796 8.796 0 0 0-1.897 2.84 8.735 8.735 0 0 0-.678 3.352c0 2.103.78 4.247 2.525 5.994a8.54 8.54 0 0 0 6.057 2.508h65.357v.019h.901c.239 0 .48.039.709.112.218.071.434.183.634.328 20.996 15.482 46.143 22.143 70.668 20.292 24.476-1.849 48.339-12.178 66.838-30.681a105.49 105.49 0 0 0 19.803-27.464 105.644 105.644 0 0 1-17.185 22.559c-18.501 18.498-42.362 28.831-66.838 30.682-24.527 1.852-49.672-4.808-70.67-20.293a2.258 2.258 0 0 0-.634-.329 2.357 2.357 0 0 0-.709-.112h-.901l.002-.016zm-96.015 2.412a8.657 8.657 0 0 0 1.876-2.807 8.85 8.85 0 0 0 .553-1.918c-.31.291-.642.557-.995.8-1.316.9-2.926 1.442-4.75 1.442H58.766a8.407 8.407 0 0 1-3.233-.644 8.521 8.521 0 0 1-2.75-1.841c-1.728-1.723-2.492-3.836-2.492-5.909v-.121c.006-.43.046-.858.118-1.282a8.689 8.689 0 0 0-2.065 2.998 8.682 8.682 0 0 0-.667 3.312c0 2.072.765 4.187 2.491 5.91a8.515 8.515 0 0 0 2.751 1.838 8.39 8.39 0 0 0 3.233.647h25.073c2.412 0 4.455-.954 5.93-2.425zm64.638-40.486-99.944.004c-4.087 0-6.686-2.217-7.827-5.061a9.326 9.326 0 0 1-.652-3.345v-.127c0-.551.05-1.099.143-1.642a8.285 8.285 0 0 0-2.099 3.071 9.539 9.539 0 0 0-.662 3.479 9.337 9.337 0 0 0 .654 3.472c1.139 2.842 3.738 5.059 7.827 5.059l99.944-.002a2.3 2.3 0 0 1 1.193.341c.345.212.638.519.833.908 1.028 2.055 6.705 11.315 9.103 14.76h1.749c.555 0 1.064-.203 1.459-.532.255-.214.463-.475.604-.766a2.17 2.17 0 0 0 .219-.948c0-.515-.192-1.072-.634-1.602-1.523-1.807-8.714-13.478-9.884-15.818a2.275 2.275 0 0 0-2.026-1.251zm-80.34-41.658c0 2.101.775 4.239 2.522 5.982a8.563 8.563 0 0 0 6.061 2.515l57.99.01c.577 0 1.119.22 1.525.588.401.364.677.875.733 1.456.276 2.569 1.469 10.005 2.342 13.953h.943c.085 0 .166-.006.247-.013.146-.016.291-.043.426-.087a2.24 2.24 0 0 0 1.137-.783 2.26 2.26 0 0 0 .451-1.374c0-.257-.042-.529-.125-.81-.839-2.714-2.475-12.726-2.807-15.791a2.259 2.259 0 0 0-.733-1.459 2.28 2.28 0 0 0-1.526-.588l-57.989-.01a8.503 8.503 0 0 1-3.272-.651 8.634 8.634 0 0 1-2.789-1.863c-1.678-1.675-2.46-3.711-2.518-5.733a8.74 8.74 0 0 1 .12-1.704c-.055.056-.114.112-.17.166a8.786 8.786 0 0 0-1.895 2.843 8.744 8.744 0 0 0-.673 3.353zm-18.137 3.526H17.021a8.359 8.359 0 0 1-3.23-.646 8.54 8.54 0 0 1-2.754-1.845c-1.72-1.677-2.493-3.788-2.493-5.876v-.147c.008-.43.048-.858.12-1.282a8.72 8.72 0 0 0-2.092 3.069 8.713 8.713 0 0 0-.644 3.268c0 2.088.773 4.199 2.493 5.876a8.54 8.54 0 0 0 2.753 1.845c1 .416 2.093.646 3.231.646H50.7c2.423 0 4.467-.956 5.943-2.431a8.706 8.706 0 0 0 1.87-2.807 8.867 8.867 0 0 0 .548-1.907c-.31.289-.644.559-.995.8-1.315.895-2.926 1.437-4.75 1.437zm90.245-37.992-91.712-.014a8.46 8.46 0 0 1-3.274-.649 8.6 8.6 0 0 1-2.785-1.859c-1.679-1.679-2.464-3.726-2.522-5.752-.002-.083-.002-.166-.002-.249 0-.486.043-.975.127-1.45a8.821 8.821 0 0 0-2.07 3.008 8.874 8.874 0 0 0-.673 3.346c0 2.106.779 4.253 2.526 6.002a8.598 8.598 0 0 0 2.785 1.858 8.546 8.546 0 0 0 3.274.65l91.712.015c.206 0 .399.023.571.068.493.129.919.418 1.218.811.301.386.476.868.476 1.379 0 .196-.023.391-.071.576-.515 2.535-1.932 9.103-2.547 13.158h.048a2.258 2.258 0 0 0 1.595-.65 2.28 2.28 0 0 0 .684-1.577c.035-2.728 2.179-12.591 2.838-15.839.048-.187.071-.382.071-.575a2.25 2.25 0 0 0-.476-1.38 2.246 2.246 0 0 0-1.218-.81 2.478 2.478 0 0 0-.575-.067zm-42.296-35.676a8.702 8.702 0 0 0 2.419-4.716c-.31.293-.642.559-.995.802-1.316.9-2.926 1.442-4.75 1.442H81.557c-1.184 0-2.372-.32-3.37-.736-1.188-.494-2.142-1.234-2.582-1.782l-.032.033c-1.724-1.725-2.49-3.842-2.49-5.916v-.116c.003-.428.043-.854.115-1.276-.066.06-.13.125-.195.19-.8.8-1.436 1.761-1.87 2.804a8.648 8.648 0 0 0-.667 3.306c0 2.074.769 4.19 2.491 5.913l.032-.031c.438.551 1.392 1.288 2.582 1.783.996.416 2.186.736 3.37.736h16.382c2.418 0 4.463-.958 5.942-2.436zm58.704-2.406-29.047.004a8.539 8.539 0 0 1-3.273-.652 8.631 8.631 0 0 1-2.788-1.862c-1.677-1.674-2.463-3.719-2.521-5.745-.002-.08-.002-.164-.002-.247 0-.484.044-.97.125-1.448a8.792 8.792 0 0 0-2.065 3.007 8.745 8.745 0 0 0-.676 3.347c0 2.104.779 4.249 2.525 5.992a8.586 8.586 0 0 0 6.061 2.514l29.047-.004 2.086.014c.514 0 .971.171 1.338.447.285.216.518.499.678.823.102.204.174.418.214.638.249-.376.486-.734.71-1.066a46.738 46.738 0 0 1 1.482-2.113c.318-.42.459-.889.459-1.34a2.29 2.29 0 0 0-.249-1.025 2.342 2.342 0 0 0-.678-.822 2.187 2.187 0 0 0-1.338-.447l-2.088-.015zm203.239-33.64-21.627 13.157a12.247 12.247 0 0 0 3.912-8.986c0-6.784-5.498-12.28-12.28-12.28-6.784 0-12.279 5.498-12.279 12.28 0 6.782 5.497 12.28 12.279 12.28 1.449 0 2.836-.252 4.125-.713l-52.674 32.06c-.316.194-.636.387-.952.578l-1.463 6.219-.434 1.841c28.468-17.321 56.927-34.656 85.401-51.968l-.444-.684a101.705 101.705 0 0 0-2.884-4.197c-.227.137-.453.275-.68.414zM313.734 39.16a8.129 8.129 0 1 1 0 16.257 8.129 8.129 0 1 1 0-16.257zM226.286 177.6c6.784 0 12.278 5.498 12.278 12.278 0 6.784-5.496 12.282-12.278 12.282s-12.28-5.498-12.28-12.282c-.002-6.78 5.496-12.278 12.28-12.278zm-43.796-69.124a8.13 8.13 0 1 1 0 16.257 8.13 8.13 0 1 1 0-16.257zm36.877 25.966a8.13 8.13 0 1 1-.004 16.26 8.13 8.13 0 0 1 .004-16.26zm-46.833 60.58a8.129 8.129 0 0 1 0 16.257 8.13 8.13 0 1 1 0-16.257zm37.778 41.903c4.49 0 8.128 3.64 8.128 8.128a8.128 8.128 0 0 1-8.128 8.129 8.128 8.128 0 1 1 0-16.257zm58.619-46.385a8.128 8.128 0 1 1 0 16.257 8.13 8.13 0 0 1 0-16.257zm31.459 40.341a8.129 8.129 0 1 1 0 16.254 8.129 8.129 0 0 1 0-16.254zm14.524-73.182c6.782 0 12.278 5.498 12.278 12.278 0 6.784-5.498 12.279-12.278 12.279-6.786 0-12.282-5.497-12.282-12.279 0-6.78 5.496-12.278 12.282-12.278zm-67.617 79.056c6.782 0 12.279 5.498 12.279 12.277 0 6.784-5.497 12.28-12.279 12.28-6.784 0-12.28-5.498-12.28-12.28 0-6.779 5.496-12.277 12.28-12.277zM222.473 78.964c6.784 0 12.28 5.498 12.28 12.28 0 6.784-5.498 12.28-12.28 12.28-6.782 0-12.279-5.498-12.279-12.28-.003-6.782 5.497-12.28 12.279-12.28zm81.815 1.374a8.13 8.13 0 0 1 0 16.256 8.129 8.129 0 1 1 0-16.256z" fill="#D1AA1F"/><path d="M162.317 260.108h18.54l.21.152c2.08 1.506 4.216 2.94 6.4 4.297h-12.403c22.702 17.2 49.905 25.492 76.929 24.962 28.823-.563 57.451-11.158 80.221-31.663-.578.943-1.161 1.866-1.745 2.79-23.103 21.813-52.639 33.077-82.378 33.658-28.616.563-57.426-8.768-80.889-28.091-.251-.555-.505-1.093-.752-1.656h-1.218a124.011 124.011 0 0 1-3.451-3.076l-1.485-1.373h2.021zm205.658-197.93 3.351 4.376 11.216-6.828-.438-.682c-.914-1.419-1.86-2.813-2.828-4.19l-.665.43-9.969 6.46-.667.434zm-215.444 49.476h-15.434c.623-1.145 1.27-2.288 1.941-3.424l.23-.395h15.561l-2.298 3.819zm-15.151 37.957h-13.494c.179-1.043.368-2.065.568-3.067l.126-.644H138.02l-.64 3.711zm-.669 38.358h-13.429a125.863 125.863 0 0 1-.397-3.116l-.1-.881h13.238l.688 3.997zm13.638 38.219h-15.151c-.499-.993-.989-1.999-1.469-3.019l-.53-1.13h14.653l2.497 4.149z" fill="#CF843E"/><path d="M245.676 41.585c10.152 0 20.03 1.172 29.505 3.386l.02.009.052.012a3.176 3.176 0 0 1 2.371 3.809l-27.127 115.29 101.157-61.559a3.17 3.17 0 0 1 4.355 1.056l.025.037a.14.14 0 0 1 .023.025c11.907 19.552 18.77 42.518 18.77 67.084 0 35.663-14.457 67.95-37.828 91.321-23.369 23.371-55.66 37.828-91.321 37.828-35.663 0-67.952-14.457-91.323-37.828-.382-.382-.76-.765-1.137-1.153h-37.867c-3.848 0-7.354-1.577-9.899-4.118l-.019-.019c-2.537-2.547-4.112-6.049-4.112-9.892 0-3.863 1.578-7.372 4.119-9.914l.195-.178c2.529-2.435 5.959-3.94 9.716-3.94h17.063a129.565 129.565 0 0 1-4.946-10.004h-78.08c-3.851 0-7.354-1.579-9.902-4.121l-.018-.018c-2.54-2.548-4.112-6.047-4.112-9.893 0-3.852 1.579-7.359 4.126-9.907a13.938 13.938 0 0 1 9.907-4.124h69.376a128.655 128.655 0 0 1-1.484-10.007H80.192c-3.852 0-7.36-1.579-9.9-4.118l-.01-.012c-2.542-2.544-4.12-6.047-4.12-9.901 0-3.861 1.578-7.372 4.12-9.913a13.99 13.99 0 0 1 9.91-4.118h37.091c.364-3.377.858-6.714 1.477-10.007H49.387c-3.85 0-7.353-1.577-9.9-4.118l-.02-.019c-2.538-2.547-4.111-6.048-4.111-9.892 0-3.85 1.577-7.354 4.12-9.903l.019-.019c2.547-2.539 6.048-4.112 9.894-4.112h78.084a128.663 128.663 0 0 1 4.945-10.004h-3.956c-3.853 0-7.36-1.579-9.901-4.118l-.013-.013c-2.541-2.543-4.118-6.046-4.118-9.9 0-3.855 1.579-7.36 4.118-9.901l.013-.013c2.541-2.54 6.048-4.118 9.901-4.118h24.754c.376-.388.755-.77 1.137-1.153 23.369-23.375 55.66-37.833 91.323-37.83zm61.077-23.089 1.238.337.044.012c.401.113.804.225 1.205.341l.037.012c.405.119.813.237 1.216.362l.588.179.031.01.617.191.017.006.596.192.613.2.114.037.499.166.021.006c.596.201 1.192.405 1.782.617l.042.015 1.174.424.017.006.386.141.216.081.428.16.17.064.476.183.127.048.517.204.079.03.563.223.034.015.594.239.012.006.58.237.056.025.532.222.106.044.484.207.146.063.44.191c.565.247 1.133.499 1.694.754l.054.025.324.148.255.12.366.168.214.1.407.193.169.081.45.217.125.058.493.239.078.04.537.265.037.019.567.284.009.005.561.286.047.027.516.266.093.046.47.247.135.073.426.224.178.096.383.206.218.12.336.185.264.143.293.165.304.168.249.14.343.197.21.118.384.22.166.096.426.247.123.07.465.277.079.046.507.303.038.025.542.328.004.002.536.329.044.029.492.305.085.054.451.285.127.079.407.26.164.108.366.236.208.133.098.063.461.303.01.008.283.185.287.192.238.162.325.218.199.135.362.247.157.112.402.277.118.085.438.305.077.056.117.081.91.655.519.378.042.031.476.351.078.059.435.326.12.087.391.3.156.12.112.087.436.335.31.24.233.184.272.213.413.329.087.068.306.248.193.153.345.279.152.127.382.311.114.094.418.347.073.062.455.382.037.034.486.413c.324.279.651.559.971.837l.072.065.406.36.45.4.03.025.145.131.328.3.181.163.291.266.941.873.285.268.178.17.323.306.139.135.357.34.106.105.387.378.072.07.418.414.037.037.451.451.451.457.037.036.41.421.447.462.101.106.341.357.133.141.306.325.168.178.268.289.199.216.235.256.231.253.199.218.264.293.166.183.293.33.133.148.324.368.098.114.357.405.065.077.386.447.034.04.413.485.414.49.031.038.38.457.06.073.345.42.405.496.123.152.28.347.032.042.731.924.033.044.212.27.181.235.239.311.149.198.268.353.123.16.293.39.089.123.324.434.059.082.347.475.033.042.374.52.374.523.372.526.054.079.312.448.65.952.073.11.137.204.22.33.162.245.193.291.187.29.164.248 9.916-6.034a123.493 123.493 0 0 0-31.198-32.928 122.295 122.295 0 0 0-40.833-19.343l-2.656 11.297-.018-.006zm-1.453 6.178-22.278 94.687 83.085-50.56-.048-.076-.282-.426-.079-.12-.256-.385-.106-.16-.231-.339-.133-.201-.203-.3-.009-.01-.681-.98-.222-.319-.125-.172-.253-.36-.098-.13-.285-.395-.311-.426-.073-.1-.04-.05-.349-.473-.01-.013-.362-.48-.02-.027-.343-.453-.05-.066-.316-.41-.081-.106-.289-.37-.114-.143-.26-.328-.141-.183-.231-.289-.174-.218-.204-.25-.208-.255-.172-.21-.015-.018-.34-.412-.03-.035-.274-.328-.11-.133-.307-.366-.079-.094-.345-.4-.046-.057-.378-.436-.015-.019-.397-.453-.016-.02-.383-.428-.047-.059-.351-.39-.084-.094-.32-.351-.118-.13-.289-.315-.149-.164-.258-.278-.185-.2-.224-.239-.221-.232-.191-.204-.255-.268-.162-.164-.293-.303-.127-.131-.328-.337-.09-.094-.365-.37-.059-.057-.403-.402-.02-.022-.431-.422-.012-.01-.418-.41-.045-.046-.385-.371-.085-.08-.353-.334-.119-.114-.315-.3-.158-.145-.061-.056-.396-.37-.019-.019-.247-.226-.231-.212-.214-.195-.27-.241-.177-.16-.307-.272-.142-.13-.345-.303-.106-.091-.386-.337-.069-.058-.421-.366-.034-.029-.459-.39-.006-.004-.453-.385-.044-.037-.417-.347-.083-.067-.385-.313-.12-.1-.347-.28-.158-.132-.31-.247-.199-.158-.274-.216-.237-.189-.233-.183-.281-.216-.195-.15-.322-.247-.156-.12-.361-.275-.121-.089-.403-.301-.079-.06-.445-.329-.041-.029-.486-.355-.478-.347-.042-.03-.442-.315-.079-.054-.405-.287-.121-.083-.37-.255-.158-.11-.328-.227-.199-.135-.293-.197-.239-.163-.256-.168-.278-.187-.216-.139-.322-.212-.175-.116-.364-.235-.135-.087-.405-.26-.093-.058-.451-.285-.052-.033-.491-.306-.012-.008-.507-.312-.029-.016-.48-.293-.067-.044-.442-.264-.11-.064-.403-.24-.152-.088-.362-.21-.195-.114-.32-.185-.237-.136-.28-.157-.281-.158-.239-.133-.322-.179-.199-.11-.368-.202-.156-.085-.523-.282-.455-.244-.073-.039-.499-.262-.029-.014-.532-.275-.012-.008-.52-.264-.056-.031-.476-.239-.101-.048-.435-.216-.145-.068-.391-.192-.189-.093-.351-.168-.231-.11-.307-.146-.279-.13-.263-.123-.323-.15-.22-.102-.37-.166-.178-.081-.41-.185-.135-.058-.457-.204-.091-.04-.505-.218-.044-.018-.552-.235-.557-.233-.044-.018-.509-.212-.089-.038-.47-.189-.436-.174-.123-.048-.181-.07-.378-.148-.226-.09-.337-.128-.044-.02-.519-.194-.316-.121-.247-.091-.366-.135-.199-.073-.414-.148-.153-.054-.462-.164-.11-.037-.507-.177-.062-.023-.557-.189-.017-.004-.571-.193-.033-.01-.545-.177-.076-.025-.499-.16-.127-.04-1.251-.388-.363-.11-.266-.08-.316-.093-.314-.091-.27-.077-.362-.104-.222-.062-.411-.115-.175-.047-.459-.125-.131-.035.006.02zm-30.188 100.61 24.747-105.186 4.109-17.466a3.176 3.176 0 0 1 3.809-2.37 128.598 128.598 0 0 1 46.187 21.145 129.814 129.814 0 0 1 34.573 37.452 3.17 3.17 0 0 1-1.056 4.355l-15.324 9.326-92.172 56.09a3.175 3.175 0 0 1-4.873-3.346zm-4.405-74.792a123.298 123.298 0 0 0-25.033-2.553c-32.175 0-61.461 12.377-83.355 32.627h18.268a110.918 110.918 0 0 1 30.38-15.51 111.08 111.08 0 0 1 34.707-5.532c7.663 0 15.149.777 22.376 2.255l2.657-11.287zm-4.112 17.472a105.277 105.277 0 0 0-20.919-2.09c-11.447 0-22.455 1.83-32.746 5.211a104.541 104.541 0 0 0-29.274 15.089 3.17 3.17 0 0 1-2.042.744h-53.155a7.667 7.667 0 0 0-5.427 2.252 7.674 7.674 0 0 0-2.252 5.425c0 2.115.864 4.035 2.252 5.428a7.68 7.68 0 0 0 5.427 2.252h31.134v.014a3.164 3.164 0 0 1 2.518 5.074 105.072 105.072 0 0 0-9.892 15.773 3.177 3.177 0 0 1-2.888 1.851H49.389a7.644 7.644 0 0 0-5.42 2.248l-.013.011a7.645 7.645 0 0 0-2.246 5.421c0 2.117.86 4.037 2.246 5.421l.012.012a7.648 7.648 0 0 0 5.421 2.244h91.712v.011a3.168 3.168 0 0 1 3.065 3.96 104.733 104.733 0 0 0-1.715 7.87 105.461 105.461 0 0 0-1.097 7.763 3.176 3.176 0 0 1-3.175 3.106H80.192a7.658 7.658 0 0 0-5.42 2.259 7.658 7.658 0 0 0-2.257 5.421c0 2.115.862 4.035 2.252 5.427a7.672 7.672 0 0 0 5.428 2.252h57.989v.011a3.168 3.168 0 0 1 3.152 2.855 103.45 103.45 0 0 0 1.059 7.704l.056.274a105.441 105.441 0 0 0 1.654 7.649 3.176 3.176 0 0 1-2.998 4.22H49.389a7.648 7.648 0 0 0-5.42 2.258h-.013a7.642 7.642 0 0 0-2.246 5.419c0 2.12.86 4.037 2.246 5.421l.012.013a7.642 7.642 0 0 0 5.421 2.246h99.942a3.178 3.178 0 0 1 2.828 1.737 104.36 104.36 0 0 0 9.772 15.648 3.173 3.173 0 0 1-2.338 5.323h-44.24a7.639 7.639 0 0 0-5.286 2.117l-.133.141a7.657 7.657 0 0 0-2.257 5.421 7.64 7.64 0 0 0 2.247 5.421l.012.013a7.646 7.646 0 0 0 5.421 2.246h66.257v.017c.65 0 1.309.199 1.872.617a104.531 104.531 0 0 0 29.44 15.197c10.295 3.38 21.306 5.211 32.752 5.211 28.958 0 55.174-11.736 74.15-30.712 18.975-18.977 30.712-45.192 30.712-74.148 0-18.835-4.97-36.511-13.663-51.789l-89.418 54.413a3.175 3.175 0 0 1-2.5.466 3.176 3.176 0 0 1-2.371-3.809l24.007-102.049zm75.707 47.677c9.281 16.24 14.588 35.048 14.588 55.093 0 30.71-12.45 58.513-32.576 78.638-20.125 20.128-47.928 32.576-78.638 32.576a111.13 111.13 0 0 1-34.712-5.533 110.934 110.934 0 0 1-30.36-15.511h-18.285c21.896 20.25 51.182 32.627 83.359 32.627 33.91 0 64.611-13.744 86.831-35.966 22.222-22.22 35.967-52.922 35.967-86.831 0-22.251-5.92-43.12-16.267-61.116l-9.907 6.023zM139.719 232.839h13.709a106.773 106.773 0 0 1-2.021-3.102 109.392 109.392 0 0 1-4.002-6.905h-12.959a122.76 122.76 0 0 0 5.273 10.007zm-14.488-38.067h11.851c-.33-1.482-.625-2.948-.885-4.401l-.037-.28a109.311 109.311 0 0 1-.808-5.326H123.67c.387 3.379.908 6.716 1.561 10.007zm-1.559-38.069h11.677c.239-1.918.524-3.786.848-5.61.26-1.457.555-2.922.881-4.397h-11.847a122.746 122.746 0 0 0-1.559 10.007zm10.776-38.07h12.959a114.182 114.182 0 0 1 4.01-6.917 105.64 105.64 0 0 1 2.011-3.087h-13.709a121.575 121.575 0 0 0-5.271 10.004zM56.15 232.839h25.073c3.852 0 7.357 1.579 9.905 4.125a13.944 13.944 0 0 1 4.126 9.906c0 3.848-1.579 7.354-4.118 9.901l-.019.019c-2.547 2.539-6.048 4.112-9.892 4.112H56.15c-3.852 0-7.357-1.579-9.9-4.118l-.013-.013c-2.541-2.543-4.118-6.046-4.118-9.901 0-3.86 1.58-7.372 4.118-9.913a14 14 0 0 1 9.913-4.118zm25.073 6.352H56.15a7.657 7.657 0 0 0-5.42 2.258 7.662 7.662 0 0 0-2.257 5.421c0 2.116.864 4.035 2.252 5.428a7.672 7.672 0 0 0 5.427 2.252h25.073c2.117 0 4.035-.86 5.419-2.246l.012-.013a7.643 7.643 0 0 0 2.246-5.421 7.658 7.658 0 0 0-2.258-5.421v-.012a7.649 7.649 0 0 0-5.421-2.246zm-66.82-82.488h36.295c3.852 0 7.36 1.579 9.9 4.118l.011.012c2.541 2.543 4.12 6.047 4.12 9.901s-1.579 7.357-4.12 9.901l-.01.012c-2.543 2.541-6.049 4.118-9.9 4.118H14.402c-3.862 0-7.37-1.579-9.913-4.118l-.179-.195c-2.433-2.531-3.937-5.961-3.937-9.716a13.99 13.99 0 0 1 4.118-9.913l.193-.177c2.527-2.439 5.955-3.943 9.718-3.943zm36.295 6.349H14.403a7.67 7.67 0 0 0-5.292 2.122l-.13.135a7.662 7.662 0 0 0-2.257 5.421c0 2.048.808 3.916 2.117 5.29l.141.131a7.648 7.648 0 0 0 5.421 2.258h36.295a7.663 7.663 0 0 0 5.427-2.252 7.674 7.674 0 0 0 2.253-5.425 7.672 7.672 0 0 0-2.253-5.427 7.684 7.684 0 0 0-5.427-2.253zM78.94 80.564h16.384c3.852 0 7.357 1.58 9.901 4.118l.012.013c2.541 2.543 4.118 6.046 4.118 9.9 0 3.855-1.579 7.358-4.118 9.903l-.012.01c-2.544 2.542-6.049 4.119-9.901 4.119H78.94c-3.853 0-7.358-1.579-9.905-4.125a13.947 13.947 0 0 1-4.127-9.907c0-3.862 1.58-7.37 4.118-9.913l.196-.178c2.532-2.436 5.96-3.94 9.718-3.94zm16.384 6.354H78.94c-2.051 0-3.915.806-5.288 2.115l-.133.141a7.655 7.655 0 0 0-2.257 5.421c0 2.11.864 4.027 2.257 5.421v.013a7.653 7.653 0 0 0 5.418 2.246h16.384a7.68 7.68 0 0 0 5.427-2.252A7.681 7.681 0 0 0 103 94.595a7.672 7.672 0 0 0-2.252-5.427 7.66 7.66 0 0 0-5.425-2.25z" fill="#3A2C20"/><path d="M171.333 141.285c6.782 0 12.279 5.498 12.279 12.28 0 6.784-5.497 12.28-12.279 12.28s-12.28-5.498-12.28-12.28c0-6.782 5.498-12.28 12.28-12.28zM335.05 54.051c6.782 0 12.278 5.498 12.278 12.28 0 6.782-5.498 12.28-12.278 12.28-6.786 0-12.282-5.498-12.282-12.28 0-6.782 5.498-12.28 12.282-12.28zm-19.479-17.316a8.13 8.13 0 0 1 0 16.259 8.13 8.13 0 0 1 0-16.259zm-87.45 138.441c6.782 0 12.279 5.498 12.279 12.28 0 6.782-5.497 12.28-12.279 12.28s-12.28-5.498-12.28-12.28c0-6.782 5.5-12.28 12.28-12.28zm-43.794-69.124a8.129 8.129 0 1 1-8.13 8.129 8.129 8.129 0 0 1 8.13-8.129zm36.877 25.968a8.127 8.127 0 0 1 8.126 8.129 8.126 8.126 0 0 1-8.126 8.128 8.13 8.13 0 0 1-8.131-8.128 8.13 8.13 0 0 1 8.131-8.129zm-46.834 60.579a8.129 8.129 0 1 1 0 16.258 8.13 8.13 0 0 1 0-16.258zm37.779 41.902a8.13 8.13 0 1 1-.003 16.259 8.13 8.13 0 0 1 .003-16.259zm58.62-46.384a8.128 8.128 0 1 1 0 16.256 8.128 8.128 0 1 1 0-16.256zm31.458 40.34a8.13 8.13 0 1 1-.001 16.255 8.13 8.13 0 0 1 .001-16.255zm14.522-73.182c6.784 0 12.28 5.498 12.28 12.28 0 6.782-5.498 12.28-12.28 12.28-6.782 0-12.28-5.498-12.28-12.28-.002-6.782 5.498-12.28 12.28-12.28zm-67.616 79.056c6.782 0 12.278 5.498 12.278 12.28 0 6.782-5.498 12.279-12.278 12.279-6.784 0-12.281-5.497-12.281-12.279s5.497-12.28 12.281-12.28zM224.31 76.541c6.782 0 12.28 5.498 12.28 12.278 0 6.784-5.498 12.28-12.28 12.28-6.784 0-12.28-5.498-12.28-12.28 0-6.782 5.498-12.278 12.28-12.278zm81.813 1.372a8.13 8.13 0 0 1 0 16.258 8.13 8.13 0 0 1 0-16.258z" fill="#3A2C20"/><g clip-path="url(#a)"><path d="M545.5 193.4v-1.1c-.1 0-.2-1.1-.2-1.1v-1.1c-.1 0-.2-1.1-.2-1.1v-.5l-.1-.6v-.5l-.1-.6v-.5l-.1-.6v-.5l-.1-.6v-.5l-.1-.6v-.5l-.1-.5v-1.1h-.7l-1.9.3-6.3.6-1.9.2-1.9.2-1.9.2-1.9.2h-.5l-1.4.2h-.5l-1.4.2h-.5l-1.9.2-1.9.2-1.9.2-1.9.2-1.9.2-1.9.2-1.9.2-1.9.2-1.9.2-1.9.2c18.9-23.8 29.2-37.1 31-40 7.3-12.7 10.4-26 9.1-39.5-1-10.2-4-19-9-26.3-.1-.2-.3-.4-.4-.6-.1-.2-.3-.4-.4-.6-.1-.2-.3-.4-.4-.6-.1-.2-.3-.4-.4-.6-.2-.2-.3-.4-.5-.6-.1-.2-.3-.3-.4-.5-.1-.2-.3-.3-.4-.5-.1-.2-.3-.4-.4-.5l-.6-.6c-.1-.2-.3-.3-.4-.5-.1-.2-.3-.3-.4-.5-2-2.1-4.3-4-6.7-5.8-1-.7-2-1.4-3.1-2.1-.7-.5-1.5-.9-2.3-1.4-.9-.5-1.8-1-2.7-1.4-1.1-.5-2.2-1.1-3.4-1.5-1.4-.6-2.9-1.1-4.4-1.6-2-.6-4.1-1.2-6.2-1.6-2.2-.4-4.5-.8-6.9-1-.9 0-1.8-.1-2.7-.2H487.5c-2.1 0-4.2.2-6.3.5-1.3.2-2.5.3-3.8.6-.6.1-1.1.2-1.7.3-4.3.9-8.4 2.2-12.3 3.9-14.6 6.4-26 18.8-34.4 37.3-.7 1.4-1.3 2.9-1.9 4.4l.5.3.5.4h.1l.5.4.5.4h.1l.5.4.5.4h.1l.5.4.6.4.5.3.6.4.5.3.6.4.5.3.6.4.5.3.6.4 1.1.8 1.1.8 1.1.8 1.1.8 17 12.2C466 106 475.9 96.2 487 96c4.8 0 9.1 1.7 12.6 4.8.7.6 1.3 1.2 1.9 1.8l.6.6c.1.1.2.3.3.4.1.2.3.3.4.5.1.2.3.3.4.5l.3.6.3.6.3.6c0 .2.2.4.3.6.1.2.2.5.3.7 0 .2.2.4.2.7 0 .2.2.5.2.7.3 1.1.5 2.2.6 3.4 0 .8 0 1.8-.1 2.8v.4c0 .3-.1.6-.2.8-.1.6-.3 1.2-.5 1.9-.3 1-.7 2-1.2 3.2 0 0 0 .2-.1.2-.6 1.3-1.2 2.7-2 4.2-4.6 8.9-12.8 21-24.7 36.4-17.2 22-26.1 33.3-26.3 33.5v.9l.1.6v1.5c.1 0 .2.9.2.9v1.3c.1 0 .4 2.6.4 2.6l2.5 25.4H460.1l.9-.2h.9l.9-.2h.9l.9-.2 84.7-8.3-2.5-25.9v-1.1l-1.3.2zM627.5 156.9V155.8L611.7 143l-1.1-.9-1.1-.9-1.1-.9-1.1-.9h-.1c0-.1-1-.9-1-.9l-.2-.2-.9-.7-.3-.2-.8-.7-.3-.3-.5-.4c-.1.2-.2.4-.3.5l-.6.9c-.1.2-.2.4-.4.6 0 .1-.1.2-.2.3-.8 1.3-1.6 2.6-2.4 3.8-.1.2-.2.4-.4.6 0 .1-.2.3-.3.4 0 0-.1.2-.2.3-10.8 16.8-22 30.8-34 42.3l-.2.2c-.1.1-.2.2-.4.3l-.5.5-.1.1.2.2.3.3.2.2.5.5.3.3.2.2.5.5.2.2.2.2.6.6.2.2.2.2.6.6.4.4 1 1 1 1 1 1 14.6 15.4c18.7-16.8 32.4-34.3 41.1-52.6v-.1l1-.2zM564.2 101.1l.4.2.4.3.4.3.4.2.4.3.3.2.4.3.8.5.4.3.7.5.4.2.8.6.4.2.8.6.3.2 1.2.8 1.1.8 1.2.7 1.1.8 17.8 12 16.4-24.5.2-.2.2-.3.1-.2.2-.2.2-.3.1-.2.2-.3.1-.2.2-.3.2-.2.1-.2.2-.3-22-14.3-1.3-.8-1.3-.9-1.3-.8-1.3-.9-.3-.2-.9-.6-.3-.2-.9-.6-.3-.2-1-.6-.3-.2-.6-.4-17 25-.4.6-.5.7-.3.5.4.3.2.1.2.1.4.3.3.2h.1l.3.3zM690.4 75.8H672c.5-3.4 1.1-7 1.6-10.7 0-.3 0-.6.1-.9 0-.3 0-.6.1-.9 0-.3 0-.6.1-.9 0-.3 0-.6.1-.9 0-.3 0-.6.1-.9 0-.3 0-.6.1-.9v-5.4l-25.7-2.2-2.7-.2h-1.3c0-.1-1-.2-1-.2H642c0-.1-.6-.2-.6-.2h-1c0 .3 0 .7-.1 1.1v.8c0 .7-.1 1.3-.2 2-.8 7.4-2.1 14.6-3.8 21.7-.1.6-.3 1.1-.4 1.7-1.5 5.8-3.3 11.4-5.4 17v.2c-.7 2-1.5 3.9-2.3 5.8 0 0 0 .2-.1.3-.1.3-.3.6-.4.9-1.4 3.3-3 6.5-4.6 9.7-1 2-2 3.9-3.1 5.8l.7.3.5.3.7.3.5.2.7.3.5.2.7.3.5.2.7.3.5.2.7.3.5.2.7.3.5.3.7.3.5.3 1.2.6 1.2.6 1.2.6 1.2.6 15.9 7.6c5.2-9 9.4-17.4 12.3-25.1h43.3c0 .3-.2.7-.3 1 0 .3-.2.7-.3 1 0 .3-.2.7-.3 1 0 .3-.2.7-.3 1 0 .3-.2.7-.3 1 0 .3-.2.7-.3 1-.1.3-.2.7-.3 1-.1.3-.2.7-.3 1-.1.3-.2.7-.4 1-.1.3-.2.7-.4 1-.1.3-.2.7-.4 1-.1.3-.3.7-.4 1-.1.3-.2.7-.4 1-.1.3-.3.7-.4 1-.1.3-.3.7-.4 1-.1.3-.3.7-.4 1-.1.3-.3.7-.4 1-.1.3-.3.7-.4 1-.6 1.3-1.2 2.6-1.8 4 0 .2-.2.4-.3.6l.6.2.4.2h.1l.6.2.6.2.6.3.5.2.6.2.7.3.6.2.7.3.6.2.7.3.5.2.7.3.5.2.7.3 1.2.5 1.2.5 1.2.5 1.2.5 13.7 5.4c4.5-8.7 8.2-18.3 11.1-28.7-.2-1.5-.2-3.1.2-4.7s1.1-3.1 2.1-4.4c1.2-5.2 2.2-10.6 3.1-16.2 0-.3.1-.7.2-1 0-.3.1-.7.2-1 0-.3 0-.7.1-1 0-.3 0-.7.1-1 .1-.3 0-.7.1-1 0-.3 0-.7.1-1 0-.3 0-.7.1-1 0-.3 0-.7.1-1 0-.3 0-.7.1-1 0-.3 0-.7.1-1 0-.3 0-.7.1-1 0-.3 0-.6.1-1l-53.3-.2h-1.1l1.3.5z" fill="#FDCF27"/><path d="M708.4 185.9c-.4 0-.8-.1-1.1-.2-.2 0-.5 0-.7-.1h-.5c-.4 0-.8-.1-1.1-.2-.8-.2-1.7-.3-2.5-.5-.4 0-.8-.2-1.1-.3-.4 0-.8-.2-1.1-.3-.4 0-.8-.2-1.1-.3-.3-.1-.8-.2-1.1-.3-.4-.1-.8-.2-1.1-.3-.4-.1-.8-.2-1.1-.3-.4-.1-.8-.3-1.1-.4-.4-.1-.8-.3-1.1-.4-.4-.1-.8-.3-1.1-.4-.4-.1-.8-.3-1.1-.4-.4-.2-.8-.3-1.1-.5-.4-.2-.8-.3-1.1-.5 2.3-8.6 3.6-20.3 4-34.9v-12h-17c0-.1-1.5-.1-1.5-.1h-15.7v16.4c0 1.6-.1 2.9-.3 3.7 0 .9-.2 1.8-.3 2.6-.1 1-.3 2-.4 3-.4 2.5-.9 4.9-1.5 7.2-.2.7-.4 1.3-.5 1.9-1 3.3-2.3 6.4-3.8 9.2-1.1 2-2.2 3.8-3.5 5.5-1.7 2.2-3.9 4.4-6.5 6.7-1.1 1-2.3 2-3.6 3-1.1.9-2.3 1.7-3.5 2.6-1.1.8-2.3 1.6-3.5 2.4-1.4.9-2.9 1.9-4.4 2.8-1.1.7-2.3 1.4-3.5 2.1l.6.9.2.3.6.8.9 1.2.9 1.2.9 1.2.9 1.2.9 1.2.9 1.2 13.7 18.2h2.4c10.6-6 19.7-12.7 27.2-20.4 13.3 8.5 30.6 12.9 52 12.9s3.8 0 5.7-.1l4.2-21.5.2-.9.2-.9.2-.9.2-1 .2-1 .2-1v-.3l.2-.7v-.2l.2-.8v-.2l.2-.8v-.2l.2-.8c0-.1.2-1 .2-1l.2-1c-8.1 0-15.4-.3-21.9-1-2.4-.3-4.7-.6-6.9-.9l-1-1.4zM921.4 154.8v-1l-.1-1v-1l-.1-1v-8.7l-14.8.7-6 .3h-12.1l-19.4.9-19.4.9-19.4.9-8.9.4h-2l-4 .2H810.8l-7.4.4h-3.1c0 .1-3.1.3-3.1.3l-3.1.2-3.2.2h-1.4l-1.8.2h-1.4l-1.8.2h-1.6l-3.3.2h-1.1l-6 .3h-3v1.6l.2 2.8v2l.2 2.4 1 21H782.3l28.1-1.4c0 .4 0 .7-.1 1.1-.1.4 0 .7-.1 1.1 0 .4 0 .7-.1 1.1 0 .4 0 .7-.1 1.1 0 .4 0 .7-.1 1.1 0 .4 0 .7-.1 1.1 0 .4 0 .7-.1 1.1 0 .4-.1.7-.2 1.1 0 .4-.1.7-.2 1.1 0 .4-.1.7-.2 1.1 0 .4-.1.7-.2 1.1 0 .3 0 .5-.1.8v.3c0 .3 0 .5-.1.8 0 .4-.1.7-.2 1.1 0 .4-.1.7-.2 1.1 0 .4-.1.7-.2 1.1 0 .4-.1.7-.2 1.1 0 .3-.1.7-.2 1.1l-.3 1.5-15 .9h-1.9V204.4l.2 3 1.4 22.2H803.5c31.6-2.1 59.1-4.8 82.8-8 .1.4.3.7.4 1.1.1.4.3.7.4 1.1.1.4.3.7.4 1.1.1.4.3.7.4 1.1.1.4.3.7.4 1.1.1.4.3.7.4 1.1.1.4.3.7.4 1.1.1.4.3.7.4 1.1.1.4.3.7.4 1.1v.2l.6-.2.5-.2.5-.2.5-.2.5-.2.5-.2.5-.2.5-.2 22.5-9.2c-3.2-8.5-7.9-19.8-14.1-33.9v-.2c-1.7-3.9-3.5-8-5.4-12.3l26.1-1.3-.8-17.3-.9-1.1zm-74.8 21 43.4-2.1-3 1.2-3 1.2-3 1.2-3 1.2-3 1.2-3 1.2-3 1.2-.6.2.4.8.5 1 .5 1 .5 1 .5 1 1.7 3.8.2.4.3.6v.3h-2.9c-2.3.2-4.6.5-6.9.7-.4 0-.7 0-1.1.1-.4.1-.7 0-1.1.1-.4 0-.7 0-1.1.1-.4 0-.7 0-1.1.1H857.1c-.4 0-.7 0-1.1.1-.4 0-.7 0-1.1.1-.4 0-.7 0-1.1.1-.4 0-.7 0-1.1.1-.4 0-.7 0-1.1.1-.4 0-.8 0-1.1.1-.4 0-.8 0-1.1.1-.4 0-.8 0-1.2.1-.4 0-.8 0-1.2.1-.4 0-.8 0-1.2.1-.4 0-.8 0-1.2.1 1-5.7 1.5-12.2 2-19.4v.8zM918.1 83.6c-7.3-.9-14.2-2-20.5-3.3-3.7-.8-7.2-1.6-10.6-2.5-2.1-.6-4.2-1.2-6.2-1.8-1.3-.4-2.5-.8-3.7-1.2h-.2c-1.9-.7-3.8-1.4-5.6-2.1-.4-.2-.8-.3-1.2-.5-.4-.2-.8-.3-1.2-.5-.4-.2-.8-.3-1.2-.5-.4-.2-.8-.4-1.2-.5l-1.2-.6-1.2-.6-1.2-.6-1.2-.6-1.2-.6c-.4-.2-.8-.4-1.2-.7-.4-.2-.8-.5-1.2-.7-.4-.2-.8-.5-1.2-.7.8-1.5 1.5-2.9 2.1-4.3 0-.1.1-.3.2-.4 0-.1.1-.3.2-.4 0-.1.1-.3.2-.4 0-.1.1-.3.2-.4 0-.1.1-.3.2-.4 0-.1.1-.3.2-.4 0-.1.1-.3.2-.4 0-.1.1-.3.2-.4 0-.1.1-.3.2-.4 0-.1.1-.3.2-.4 0-.1 0-.3.1-.4.1-.1.1-.3.1-.4l-16.5-8.3-1.8-.9-1.7-.9-1.6-.8-1.5-.8-.5-.2-1-.5-.4-.2-1-.5-.3-.2-1-.5-.3-.2-.7-.3c-12.8 20.7-34.7 40.4-65.6 59.3-.4.3-.9.5-1.3.8-.4.3-.9.5-1.3.8-.4.3-.9.5-1.3.8-.4.3-.9.5-1.3.8-.4.3-.9.5-1.3.8 0 0-.1 0-.2.1-.4.2-.8.4-1.1.7h-.2c-.4.2-.8.5-1.2.7h-.1c-.4.2-.8.5-1.2.7h-.1c-.4.2-.9.5-1.3.7-.4.3-.9.5-1.3.8h-.1c-.4.2-.8.5-1.3.7-.4.2-.9.5-1.3.7-.4.2-.8.4-1.2.7l.4.6.2.3.2.2.4.6.2.3.2.4.3.4.2.3.3.5v.1l.2.3.2.3.4.6c0 .1.3.6.3.6l.5.7c0 .1.3.5.3.5l.5.8c0 .1.2.5.2.5l.6.9c0 .1.2.4.2.4l.6 1c0 .1.8 1.4.8 1.4l.9 1.4.9 1.4.9 1.4.9 1.4 7.7 11.7s.2 0 .3-.1c0 0 .2 0 .3-.1 0 0 .2 0 .3-.1 0 0 .2 0 .3-.1 0 0 .2 0 .3-.1 0 0 .2 0 .3-.1.1-.1.2 0 .3-.1 0 0 .2 0 .3-.1 0 0 .2 0 .3-.1 0 0 .2 0 .3-.1 0 0 .2 0 .3-.1 0 0 .2 0 .3-.1 14-7 26.3-14.2 37-21.6V137.7h12l61 .2.3-15.9v-2.3l.1-7.2c16.1 4 30.5 6.3 42.6 6.7l4.6-23.7.2-.9.2-.9.2-.9.2-.9.2-.9.2-.9v-.7c.1 0 .2-.2.2-.2v-.7c.1 0 .2-.2.2-.2v-.6c.1 0 .2-.2.2-.2v-.6c.1 0 .2-.3.2-.3V86c.1 0 .2-.3.2-.3v-.6c.1 0 .2-.3.2-.3-4.7-.4-9.1-.9-13.5-1.4l-.7.2zm-45 26.4H819.2c7.1-5.6 13.3-11.3 18.6-17.2 9.8 7.5 21.6 13.2 35.4 17.3l-.1-.1z" fill="#FDCF27"/><path d="M1070.1 66.2c-1.2-.6-2.3-1.2-3.4-1.7s-2.1-.9-3.1-1.3c-.6-.2-1.1-.4-1.7-.6-2.2-.8-4.6-1.6-7-2.3-3.5-1-7.3-1.8-11.4-2.5-3.1-.5-6.3-.9-9.7-1.3-1.4-.1-2.7-.2-4-.3-1 0-2-.1-3-.1h-6.9c-4.2.2-8.2.6-12.1 1.3-.4 0-.9.2-1.3.2-5.5 1.1-10.8 2.8-15.9 5-3.5 1.6-7 3.4-10.3 5.5-10.8 6.6-19.1 15.5-24.8 26.6-.3.5-.6 1.1-.8 1.7-.3.6-.6 1.2-.8 1.8-.4.8-.7 1.6-1 2.4-1 2.5-1.9 5-2.7 7.7-.7 2.5-1.4 5-2 7.7l-.3 1.5c-.6 3.2-1.1 6.6-1.5 10.1-.1 1.2-.3 2.3-.4 3.5 0 .9-.1 1.8-.2 2.8v.6c0 1 0 1.9-.1 2.8v7.5c0 .8 0 1.6.1 2.4.2 4.1.7 8.1 1.4 11.9.5 3 1.2 5.8 2 8.6.6 1.9 1.2 3.8 1.9 5.6.6 1.5 1.2 2.9 1.8 4.3.5 1.1 1.1 2.2 1.6 3.3.5 1 1 1.9 1.6 2.8 1.5 2.5 3.1 4.9 4.9 7.2 1.7 2.2 3.5 4.3 5.5 6.2l.7.7.7.7.6.6c.1.1.3.2.4.3.1.1.3.2.4.3.2.2.4.4.6.5.2.2.4.4.6.5.2.2.4.4.6.5.2.1.3.2.5.4.2.1.3.2.5.4.2.1.4.3.6.4 11.2 8.6 25.5 13.9 42.9 16.1 8.2 1.1 16.3 1.6 24.4 1.6 8.1 0 21.3-.9 31.8-2.6l7.6-80.3v-.9l.2-.9v-.9l.2-.9v-.9l.2-.9V126.1h-1.6l-1.6-.1h-.8l-54.5-2.6-3.2-.2h-5.6v3.6l-.1 1.8v1.5l-1.1 25.9h9l1 .1h1l1 .1 17.2.8v.9l-.2.9v.9l-.2.9v.9l-.2.9v.9l-.2.9v.9l-.2.9v.9l-.2.9v.3l-.1.9v.9l-.2.9v.9l-.2.9v.9l-.7 6v1.3c-8-.3-13.1-.4-15.6-.4h-1.8c-.8 0-1.6-.2-2.3-.3-1-.1-1.9-.3-2.9-.5-.6-.1-1.1-.2-1.7-.4-.3 0-.7-.2-1-.2-.2 0-.4-.1-.6-.2-4.5-1.1-8.5-2.7-12-4.8-.2-.1-.4-.2-.6-.4-.2-.1-.4-.3-.6-.4-.2-.1-.4-.3-.6-.4-.2-.1-.4-.3-.6-.4-.2-.1-.4-.3-.6-.4-.2-.1-.4-.3-.6-.4-.2-.1-.4-.3-.6-.4-.2-.2-.4-.3-.6-.5-.2-.2-.4-.3-.6-.5-.2-.1-.3-.3-.5-.4-.2-.2-.4-.3-.5-.5-8.5-8.1-12.1-20.5-10.8-36.9 2.1-26.9 16.5-40.2 43.3-40.2h3.4c11.3.4 24.6 6.4 40.1 18.1l17.5-29.2.2-.3.2-.3.2-.3V80c.1 0 .3-.2.3-.2v-.2c.1 0 .3-.2.3-.2v-.2c.1 0 .3-.2.3-.2v-.2c.1 0 .2-.2.2-.2v-.2c-6-4.4-11.5-8-16.6-10.9-1-.6-2.1-1.2-3.1-1.7l.6.4zM1221.9 89.2c-.1-.2-.3-.4-.4-.5-.1-.2-.3-.4-.4-.6-.1-.2-.3-.4-.4-.6-.2-.2-.3-.4-.4-.6-.1-.2-.3-.4-.4-.5-.2-.2-.3-.4-.5-.5-.2-.2-.3-.4-.5-.5-.2-.2-.3-.4-.5-.5-.2-.2-.3-.4-.5-.5 0-.1-.2-.2-.3-.3-3.6-3.8-7.7-7.1-12.3-9.8l-2.7-1.5c-1.1-.6-2.3-1.2-3.5-1.7l-4.2-1.8c-2.1-.8-4.3-1.5-6.5-2.2-1.6-.5-3.2-.9-4.9-1.2-1.8-.4-3.6-.8-5.4-1.1-3.4-.6-6.8-1-10-1.2-1 0-1.9-.1-2.9-.2h-5c-3.3 0-6.5.4-9.5.9-.6 0-1.1.2-1.7.3-4 .8-7.7 1.9-11.3 3.5-3.4 1.4-6.6 3.2-9.6 5.3-5.6 3.9-10.5 8.8-14.7 14.6l-.6.9c-.3.5-.7.9-1 1.4-2.4 3.6-4.5 7.5-6.4 11.7-.6 1.2-1.1 2.5-1.6 3.8-.8 2.1-1.6 4.3-2.3 6.5-.5 1.7-1 3.4-1.5 5.2-.4 1.6-.8 3.3-1.2 4.9-.1.4-.2.9-.3 1.3l-.3 1.5c0 .4-.2.9-.3 1.3V127.1c0 .2 0 .4-.1.6l-.3 1.8c-.2 1.4-.5 2.8-.6 4.2v.3c0 .8-.2 1.5-.3 2.3l-.3 3.3c0 .9-.1 1.8-.2 2.7v7.4c0 .8 0 1.5.1 2.3v.2c0 1 .2 1.9.3 2.8 0 .8.2 1.7.3 2.5.1.8.2 1.5.3 2.3 0 .4.2.8.2 1.2.2.8.3 1.7.5 2.5.2 1.1.5 2.1.8 3.2.2.6.3 1.1.5 1.7.1.4.2.7.3 1.1.3.8.6 1.7.9 2.5.2.5.4 1.1.6 1.6 0 .2.2.4.3.7.5 1.1.9 2.2 1.5 3.3.2.5.4 1 .7 1.5.3.6.6 1.1.9 1.7.5.8.9 1.7 1.5 2.5 2.4 3.9 5.2 7.5 8.4 10.7l.8.8.8.8c.1.1.3.2.4.4.1.2.3.2.4.4l.4.4c.2.2.4.4.6.5l.6.6c.2.1.3.3.5.4.2.1.3.3.5.4.2.1.3.3.5.4.2.2.4.3.6.5 7.7 5.7 17 9.8 28.2 12.3 6.5 1.4 12.7 2.1 18.6 2.1 13.9 0 26.1-3.9 36.6-11.7 14-10.4 23.7-26.8 28.6-48.8 4.7-21 3.2-39.4-5-55.3-1.6-3.1-3.4-6-5.4-8.7v-.3zm-83.9 68.9c-3.4-7.5-3.8-16.5-1.5-26.4 4.4-19.7 13.8-29.5 28.3-29.5s5.9.4 9.2 1.1c6 1.4 10.7 3.9 14.2 7.6.2.2.3.4.5.6.1.2.3.3.4.5.2.2.3.4.5.6.1.2.3.4.4.6.1.2.3.4.4.6.1.2.3.4.4.6.1.2.3.4.4.6.1.2.2.4.4.6.1.2.2.4.4.6.1.2.2.4.3.7.1.2.2.4.3.7.2.5.5 1.1.7 1.6.8 2.2 1.4 4.6 1.8 7.1V127.2c0 .4 0 .8.1 1.3 0 .8.1 1.6.1 2.4 0 1.5 0 3-.1 4.5 0 1.2-.2 2.3-.4 3.5-.1 1-.3 2.1-.5 3.2s-.5 2.1-.7 3.2c0 .3-.1.5-.2.8-.2.8-.4 1.5-.6 2.2-1.1 3.9-2.5 7.3-4.2 10.4-1.9 3.6-4.2 6.6-6.8 9.1-1.5 1.4-3.1 2.6-4.7 3.7-.9.5-1.8 1-2.7 1.4-.6.3-1.2.5-1.8.7-.1 0-.3 0-.4.1-.3.1-.7.2-1 .3-1.1.3-2.2.5-3.4.7-1 .1-2 .2-3 .2-.8 0-1.6 0-2.4-.1-.5 0-.9 0-1.4-.1-.3 0-.5 0-.8-.1h-.3c-.7-.1-1.3-.2-2-.4-2.6-.6-5-1.4-7.2-2.4l-.6-.3c-.2-.1-.4-.2-.7-.3-.2-.1-.4-.2-.6-.4-.2-.1-.4-.2-.6-.4-.2-.1-.4-.3-.6-.4-.2-.1-.4-.2-.6-.4-.2-.1-.4-.3-.6-.4-.2-.1-.4-.3-.5-.4-.2-.2-.4-.3-.6-.5-.2-.1-.3-.3-.5-.4-.2-.2-.4-.4-.6-.5-2.6-2.5-4.7-5.5-6.2-9.2v-.1zM1279.9 50.6l-.6-.2-1.5-.2-1.2-.2-.7-.2-1.4-.2-.5-.1-.9-.1-.2 1.3-.2 1.1-.4 2.5-13.9 79.3-.6 3.8-1 5.3-1.9 10.9-1.9 11.2-1.5 8.5.5.1.2.1h.4l.7.1.1.1h.4l.7.2h.4l.9.2h.3l.9.2h.2l.9.2h.2l1 .2h.2l1.1.2 1.2.2 1.1.2 1.1.2 1.2.2 27.5 4.8 20-114.3.1-.8.2-.8.1-.8.2-.8.1-.8.1-.8.2-.8v-.3l.1-.5.1-.3.1-.5v-.3l.1-.5.1-.3v-.5l.1-.3.1-.5-34.5-6zM1259.4 189.7l-4.3-.7-2.7-.5-.5-.1-.7-.1-.7-.1-.2-.1-.5-.1h-.1l-.7-.1-.3 1.3-.2 1.1-.1.6-.3 1.9-5.5 31.5.7.1h.2l.2.1.8.1h.2l.2.1.9.1.2.1.9.1.3.1.9.1.2.1.9.1.2.1 1 .1.2.1 1.1.2 1.2.2 1.1.2 1.1.2 1.2.2 27.5 4.8 4.7-26.8.2-.8.1-.8.1-.8.2-.8.1-.8.2-.8.1-.8v-.3l.1-.5.1-.3.1-.5v-.3l.1-.5.1-.3v-.3l.1-.2v-.3l.1-.3v-.2l-30.1-5.3-.7-.1z" fill="#F39C49"/><path d="M1334.4 59.6c-.3-.4-.6-.7-1-1-.3-.4-.6-.7-1-1-.3-.4-.6-.7-1-1-.3-.4-.6-.7-1-1-.3-.4-.6-.7-1-1-.3-.4-.6-.7-1-1-.3-.4-.6-.7-1-1-.3-.4-.6-.7-1-1-.3-.4-.6-.7-1-1-.3-.4-.6-.7-1-1-.3-.4-.6-.7-1-1-1.7-2-4.1-3.4-6.9-3.9l-41.2-7.2c-.7-.1-1.4-.2-2.1-.2-2.5 0-4.9.8-6.9 2.2-2.6 1.8-4.4 4.6-4.9 7.8l-10.3 59.2c-.3-.7-.7-1.4-1-2.1-3.9-7.6-8.7-14.1-14.6-19.6l-1-1-1-1-1-1-1-1-1-1-1-1-1-1-1-1-1-1-1-1-1-1c-9.9-9.7-22.7-16.4-38.3-19.9-8.4-1.9-16.4-2.8-23.9-2.8-15.6 0-29.4 4.1-41 12.2-5.8 4-10.9 8.9-15.4 14.6-.3-.3-.6-.7-1-1-.3-.3-.6-.7-1-1-.3-.3-.6-.7-1-1-.3-.3-.6-.7-1-1-.3-.3-.6-.7-1-1-.3-.3-.6-.7-1-1-.3-.3-.6-.7-1-1-.6-.6-1.2-1.2-1.9-1.7-12.1-8.7-20.9-13.9-28.8-17-9.5-3.8-20.3-6.3-33.1-7.5-3.8-.4-7.5-.5-11.1-.5-18.5 0-35.3 4.7-50 14-10.9 6.7-19.7 15.4-26.2 26l-.1-.1c-.3-.4-.6-.7-1-1-.3-.4-.6-.7-1-1-.3-.4-.6-.7-1-1-.3-.4-.6-.7-1-1-.3-.4-.6-.7-1-1-.3-.4-.6-.7-1-1-.3-.4-.6-.7-1-1-2-2.3-4.9-3.7-7.9-4-19.1-1.6-35.1-4.4-48.1-8.4-.7-2-1.8-3.8-3.4-5.2-.3-.4-.6-.7-1-1-.3-.4-.6-.7-1-1-.3-.4-.6-.7-1-1-.3-.4-.6-.7-1-1-.3-.4-.6-.7-1-1-.3-.4-.6-.7-1-1-.3-.4-.6-.7-1-1-.3-.4-.6-.7-1-1-.3-.4-.6-.7-1-1-.3-.4-.6-.7-1-1-.3-.4-.6-.7-1-1-1-1.1-2.2-2-3.5-2.7l-28.3-14.3c-1.7-.9-3.6-1.3-5.4-1.3-4 0-7.9 2-10.2 5.7C812.2 53.1 794.1 70 769 86.3c-.3-2.3-1.3-4.4-2.9-6.2-.3-.3-.6-.7-1-1-.3-.3-.6-.7-1-1-.3-.3-.6-.7-1-1-.3-.3-.6-.7-1-1-.3-.3-.6-.7-1-1-.3-.3-.6-.7-1-1-.3-.3-.6-.7-1-1-.3-.3-.6-.7-1-1-.3-.3-.6-.7-1-1-.3-.3-.6-.7-1-1-.3-.3-.6-.7-1-1-.3-.3-.6-.7-1-1-2.3-2.5-5.5-4-8.9-4h-46.3c-.4-2-1.2-3.7-2.4-5.2-.4-.5-.9-1-1.4-1.5-.3-.4-.6-.7-1-1-.3-.4-.6-.7-1-1-.3-.4-.6-.7-1-1-.3-.4-.6-.7-1-1-.3-.4-.6-.7-1-1-.3-.4-.6-.7-1-1-.3-.4-.6-.7-1-1-.3-.4-.6-.7-1-1-.3-.4-.6-.7-1-1-.3-.4-.6-.7-1-1-.3-.4-.6-.7-1-1-2-2.3-4.9-3.7-7.9-4l-33.7-2.9h-1.1c-6.2 0-11.4 4.7-11.9 11-1.1 12.4-3.6 24.5-7.5 36l-.5-.5c-.7-.8-1.5-1.5-2.4-2.1l-31.8-20.7c-2-1.3-4.3-1.9-6.5-1.9-3.8 0-7.6 1.8-9.9 5.3l-13.3 19.6c-2.3-3.4-4.9-6.6-7.8-9.5a8293036031934.6 8293036031934.6 0 0 0-11-11c-2.5-2.5-5.2-4.9-8.2-7.1-11.9-8.7-25.9-13.1-41.5-13.1-3.2 0-6.6.2-9.9.6-29.6 3.1-51 21.2-64.3 53.5-2 4.8-.6 10.2 3.2 13.5.3.3.6.7 1 1 .3.3.6.7 1 1 .3.3.6.7 1 1 .3.3.6.7 1 1 .3.3.6.7 1 1 .3.3.6.7 1 1 .3.3.6.7 1 1 .3.3.6.7 1 1 .3.3.6.7 1 1 .3.3.6.7 1 1 .3.3.6.7 1 1 .6.6 1.2 1.3 2 1.8l30.1 21.5c2.1 1.5 4.5 2.2 7 2.2s2-.1 3-.4c-1.5 2.1-3.1 4.2-4.8 6.4-17.2 22-25.5 32.6-26.2 33.4-2 2.4-2.9 5.6-2.6 8.7l3.3 33.2c.3 3.1 1.8 5.9 4 7.8.3.4.6.7 1 1 .3.4.6.7 1 1 .3.4.6.7 1 1 .3.4.6.7 1 1 .3.4.6.7 1 1 .3.4.6.7 1 1 .3.4.6.7 1 1 .3.4.6.7 1 1 .3.4.6.7 1 1 .3.4.6.7 1 1 .3.4.6.7 1 1 2.2 2.5 5.4 4 8.9 4h1.2l95.4-9.4c6.6-.6 11.4-6.5 10.8-13.1l-2-20.6 7.2 7.6c.2.2.4.3.5.5l.5.5c.2.2.4.3.5.5l.5.5c.2.2.4.3.5.5l.5.5c.2.2.4.3.5.5l.5.5c.2.2.4.3.5.5l.5.5c.2.2.4.3.5.5l.5.5c.2.2.4.3.5.5l.5.5c.2.2.4.3.5.5l.5.5c.2.2.4.3.5.5l.5.5c.2.2.4.3.5.5l.5.5c.2.2.4.3.5.5l.5.5c.2.2.4.3.5.5l.5.5c2.4 2.5 5.5 3.8 8.7 3.8 3.2 0 5.7-1 8-3 4.9-4.3 9.4-8.8 13.7-13.3l14.5 19.2c.5.6 1 1.2 1.6 1.7.3.4.6.7 1 1 .3.4.6.7 1 1 .3.4.6.7 1 1 .3.4.6.7 1 1 .3.4.6.7 1 1 .3.4.6.7 1 1 .3.4.6.7 1 1 .3.4.6.7 1 1 .3.4.6.7 1 1 .3.4.6.7 1 1 .3.4.6.7 1 1 2.3 2.6 5.6 4 9 4 3.4 0 3.9-.5 5.7-1.5 9.6-5.2 18.1-11.1 25.4-17.3 13.9 6.7 30.8 10.1 50.2 10.1 19.4 0 4.1 0 6.1-.1 5.6-.2 10.3-4.2 11.4-9.7l6.5-33c.7-3.5-.2-7.2-2.5-9.9-.4-.5-.8-.9-1.3-1.3-.3-.4-.6-.7-1-1-.3-.4-.6-.7-1-1-.3-.4-.6-.7-1-1-.3-.4-.6-.7-1-1-.3-.4-.6-.7-1-1-.3-.4-.6-.7-1-1-.3-.4-.6-.7-1-1-.3-.4-.6-.7-1-1-.3-.4-.6-.7-1-1-.3-.4-.6-.7-1-1-.3-.4-.6-.7-1-1-2.3-2.6-5.5-4-9-4-8.5 0-15.5-.4-21.3-1.1.5-5 .8-10.6 1-16.7l17.4 6.9c1.4.6 2.9.8 4.4.8 4.4 0 8.5-2.4 10.7-6.5 2.6-5 4.9-10.3 7.1-15.9l1 1.5c-.7 1.6-1 3.4-.9 5.2l1.4 29.9c.2 3.3 1.7 6.3 4 8.3.3.4.6.7 1 1 .3.4.6.7 1 1 .3.4.6.7 1 1 .3.4.6.7 1 1 .3.4.6.7 1 1 .3.4.6.7 1 1 .3.4.6.7 1 1 .3.4.6.7 1 1 .3.4.6.7 1 1 .3.4.6.7 1 1 .3.4.6.7 1 1 1.2 1.4 2.8 2.5 4.6 3.2l1.7 27.6c.2 3.3 1.7 6.1 4 8.2.3.4.6.7 1 1 .3.4.6.7 1 1 .3.4.6.7 1 1 .3.4.6.7 1 1 .3.4.6.7 1 1 .3.4.6.7 1 1 .3.4.6.7 1 1 .3.4.6.7 1 1 .3.4.6.7 1 1 .3.4.6.7 1 1 .3.4.6.7 1 1 2.2 2.5 5.4 4.1 9 4.1h.7c30.7-1.8 58.8-4.3 83.6-7.4l.5.5c.3.4.6.7 1 1 .3.4.6.7 1 1 .3.4.6.7 1 1 .3.4.6.7 1 1 1.1 1.2 2.4 2.2 4 3 1.6.7 3.3 1.1 5 1.1 1.7 0 3.1-.3 4.5-.9l26.7-10.9c6-2.5 9-9.2 6.7-15.3-2.8-7.6-6.8-17.2-12.8-31l8.7-.4c4.7-.2 8.6-3.1 10.4-7.1 1.9 3.2 4 6.4 6.3 9.3 2 2.5 4.1 4.9 6.3 7.2a8293036031934.6 8293036031934.6 0 0 0 11 11c13.7 14.3 33 23 57.3 26 8.6 1.1 17.3 1.7 25.9 1.7 8.6 0 22.5-.9 33.8-2.8 5.4-.9 9.5-5.3 10-10.7l3.4-35.6c1.9 2.5 4 4.9 6.2 7.1l1 1 1 1 1 1 1 1 1 1 1 1 1 1 1 1 1 1 1 1 1 1c10.4 10.9 24.3 18.3 41.6 22.2h.1c7.3 1.6 14.4 2.4 21.1 2.4 16.5 0 31.3-4.7 43.8-14.1 3.2-2.4 6.2-5 9-7.9l-1.1 6.5c-.7 4.2.8 8.3 3.8 11 .3.4.6.7 1 1 .3.4.6.7 1 1 .3.4.6.7 1 1 .3.4.6.7 1 1 .3.4.6.7 1 1 .3.4.6.7 1 1 .3.4.6.7 1 1 .3.4.6.7 1 1 .3.4.6.7 1 1 .3.4.6.7 1 1 .3.4.6.7 1 1 1.7 2 4.1 3.4 6.9 3.9l41.2 7.2c.7.1 1.4.2 2.1.2 2.5 0 4.9-.8 6.9-2.2 2.6-1.8 4.4-4.6 4.9-7.8l6.4-36.4c.5-2.7 0-5.4-1.2-7.7 1.9-1.7 3.3-4.1 3.8-6.8l21.6-124c.7-4.2-.8-8.3-3.8-11l-.4-.1zm-871 169.1h-.9l-.9.2h-.9l-.9.2h-.9l-.9.2H452.6l-2.5-25.4-.3-2.6V200c-.1 0-.2-.9-.2-.9v-1.5c-.1 0-.2-.6-.2-.6v-.9c.1-.3 8.9-11.5 26.2-33.5 11.9-15.4 20.2-27.5 24.7-36.4.8-1.5 1.4-2.9 2-4.2 0 0 0-.2.1-.2.5-1.1.9-2.2 1.2-3.2.2-.7.4-1.3.5-1.9 0-.3.1-.6.2-.8v-.4c.2-1 .2-2 .1-2.8-.1-1.2-.3-2.3-.6-3.4 0-.3-.2-.5-.2-.7 0-.2-.1-.4-.2-.7 0-.2-.2-.5-.3-.7 0-.2-.2-.4-.3-.6l-.3-.6-.3-.6-.3-.6c-.1-.2-.3-.3-.4-.5-.1-.2-.2-.3-.4-.5-.1-.1-.2-.3-.3-.4l-.6-.6c-.6-.6-1.2-1.2-1.9-1.8-3.5-3.1-7.8-4.8-12.6-4.8-11.1.2-21 9.9-29.7 29.3l-17-12.2-1.1-.8-1.1-.8-1.1-.8-1.1-.8-.6-.4-.5-.3-.6-.4-.5-.3-.6-.4-.5-.3-.6-.4-.5-.3-.6-.4-.5-.3h-.1l-.5-.5-.5-.3h-.1l-.5-.5-.5-.3h-.1l-.5-.5-.5-.3c.6-1.5 1.3-3 1.9-4.4 8.4-18.4 19.8-30.8 34.4-37.3 3.9-1.7 8-3 12.3-3.9.6-.1 1.1-.2 1.7-.3 1.2-.2 2.5-.4 3.8-.6 2.1-.2 4.2-.4 6.3-.5H491.4c.9 0 1.8 0 2.7.2 2.4.2 4.7.5 6.9 1 2.1.4 4.2.9 6.2 1.6 1.5.5 3 1 4.4 1.6 1.1.5 2.3 1 3.4 1.5.9.4 1.8.9 2.7 1.4.8.4 1.5.9 2.3 1.4 1 .7 2.1 1.3 3.1 2.1 2.5 1.8 4.7 3.7 6.7 5.8.1.2.3.3.4.5.1.2.3.3.4.5l.6.6c.2.2.3.3.4.5.1.2.3.3.4.5.1.2.3.3.4.5.2.2.3.4.5.6.1.2.3.4.4.6.1.2.3.4.4.6.1.2.3.4.4.6.1.2.3.4.4.6 5 7.3 8 16 9 26.3 1.3 13.5-1.8 26.7-9.1 39.5-1.8 2.9-12 16.2-31 40l1.9-.2 1.9-.2 1.9-.2 1.9-.2 1.9-.2 1.9-.2 1.9-.2 1.9-.2 1.9-.2 1.9-.2h.5l1.4-.2h.5l1.4-.2h.5l1.9-.2 1.9-.2 1.9-.2 1.9-.2 6.3-.6 1.9-.2h.7v.5l.1.5v1.1l.1.6v.5l.1.6v.5l.1.6v.5l.1.6v.5l.1.6v.5l.2 1.1v1.1c.1 0 .2 1.1.2 1.1v1.1c.1 0 .2 1.1.2 1.1l2.5 25.9-84.7 8.3 1.2-.3zm99.2-129.4.5-.7.4-.6 17-25 .6.4.3.2.9.6.3.2.9.6.3.2.9.6.3.2 1.3.8 1.3.8 1.3.9 1.3.9 22 14.3-.2.2-.2.2-.2.2-.2.2-.2.2-.2.2-.2.2-.2.2-.2.2-.2.2-.2.2-.2.2-16.4 24.5-17.8-12-1.2-.8-1.2-.8-1.2-.8-1.2-.8-.4-.2-.8-.5-.4-.2-.8-.5-.4-.2-.8-.5-.4-.2-.8-.5-.4-.2-.4-.2-.4-.3-.4-.2-.4-.2-.4-.3-.4-.3-.4-.2h-.1l-.3-.3-.4-.2h-.2c0-.1-.2-.2-.2-.2l-.4-.3.3-.5 1.1.1zm-6 77.5c-.1-.1-.2-.2-.4-.3-.3-.4-.6-.7-1-1-.3-.4-.6-.7-1-1-.3-.4-.6-.7-1-1-.4-.5-.9-.9-1.3-1.3-.2-.2-.4-.3-.7-.5 3.7-4.8 5.1-6.9 5.8-8l.2-.3c7.7-13.3 11.3-27.2 10.9-41.4l21.1 14.2c-10.5 16.4-21.2 29.7-32.5 40.6h-.1zm29.7 32.9-14.6-15.4-1-1-1-1-1-1-.4-.4-.6-.6-.2-.2-.2-.2-.6-.6-.2-.2-.2-.2-.5-.5-.2-.2-.3-.3-.5-.5-.2-.2-.3-.3-.2-.2.1-.1.5-.5c.1-.1.2-.2.4-.3l.2-.2c12-11.5 23.2-25.6 34-42.3 0 0 .1-.2.2-.3 0-.1.2-.3.3-.4.1-.2.2-.4.4-.6.8-1.3 1.6-2.5 2.4-3.8 0-.1.1-.2.2-.3.1-.2.2-.4.4-.6l.6-.9c.1-.2.2-.4.3-.5l.5.4.3.3.8.7.3.2.9.7.2.2 1 .8h.1c0 .1 1.1 1 1.1 1l1.1.9 1.1.9 1.1.9 15.8 12.8v1.2c-8.8 18.3-22.4 35.9-41.1 52.6l-1 .2zm150.8-21.9-.2.9-.2 1c0 .1-.2 1-.2 1v.2l-.2.8v.2l-.2.8v.2l-.2.7v.3l-.2 1-.2 1-.2 1-.2.9-.2.9-.2.9-4.2 21.5c-1.9 0-3.8.1-5.7.1-21.4 0-38.8-4.4-52-12.9-7.5 7.7-16.6 14.4-27.2 20.4h-2.4l-13.7-18.2-.9-1.2-.9-1.2-.9-1.2-.9-1.2-.9-1.2-.9-1.2-.6-.8-.2-.3-.6-.8c1.2-.7 2.4-1.4 3.5-2.1 1.5-.9 3-1.9 4.4-2.8 1.2-.8 2.4-1.6 3.5-2.4 1.2-.9 2.4-1.8 3.5-2.6 1.3-1 2.5-2 3.6-3 2.6-2.3 4.8-4.6 6.5-6.7 1.3-1.7 2.5-3.5 3.5-5.5 1.5-2.8 2.8-5.9 3.8-9.2.2-.6.4-1.3.5-1.9.6-2.3 1.1-4.7 1.5-7.2.2-1 .3-2 .4-3 0-.9.2-1.7.3-2.6.1-.9.2-2.1.3-3.7V132.3h17.2l17 .1v12c-.4 14.6-1.7 26.3-4 34.9.4.2.7.3 1.1.5.4.2.7.3 1.1.5.4.2.8.3 1.1.4.4.1.8.3 1.1.4.4.1.8.3 1.1.4.4.1.8.3 1.1.4.4.1.8.2 1.1.3.4.1.7.2 1.1.3.4.1.8.2 1.1.3.3.1.7.2 1.1.3.4 0 .8.2 1.1.3.4 0 .7.2 1.1.3.8.2 1.6.3 2.5.5.4 0 .8.1 1.1.2h.5c.2 0 .5 0 .7.1.4 0 .8.1 1.1.2 2.2.4 4.5.7 6.9.9 6.5.7 13.8 1 21.9 1l1 1.2zm-103.8-43.7 13.2 6.3c0 .5 0 .9-.1 1.2v.7c-.1 1.3-.3 2.6-.4 3.9l-.7-.7c-.3-.4-.6-.7-1-1-.3-.4-.6-.7-1-1-.3-.4-.6-.7-1-1-.3-.4-.6-.7-1-1-.3-.4-.6-.7-1-1-.3-.4-.6-.7-1-1-.3-.4-.6-.7-1-1-.3-.4-.6-.7-1-1-.4-.5-.9-1-1.5-1.4l-2.4-2h-.1zm111.5-67.2c0 .3 0 .7-.1 1 0 .3 0 .7-.1 1 0 .3 0 .7-.1 1 0 .3 0 .7-.1 1 0 .3 0 .7-.1 1 0 .3 0 .7-.1 1 0 .3 0 .7-.1 1-.1.3 0 .7-.1 1 0 .3 0 .7-.1 1 0 .3-.1.7-.2 1 0 .3-.1.7-.2 1-.9 5.6-1.9 11-3.1 16.2-1 1.3-1.7 2.8-2.1 4.4-.4 1.5-.4 3.1-.2 4.7-2.9 10.4-6.6 20-11.1 28.7l-13.7-5.4-1.2-.5-1.2-.5-1.2-.5-1.2-.5-.7-.3-.5-.2-.7-.3-.5-.2-.7-.3-.6-.2-.7-.3-.6-.2-.7-.3-.6-.2-.5-.2-.6-.2-.6-.3-.6-.2h-.1l-.4-.2-.6-.2c0-.2.2-.4.3-.6.6-1.4 1.2-2.7 1.8-4 .1-.3.3-.7.4-1 .1-.3.3-.7.4-1 .1-.3.3-.7.4-1 .1-.3.3-.7.4-1 .1-.3.3-.7.4-1 .1-.3.3-.7.4-1 .1-.3.3-.7.4-1 .1-.3.3-.7.4-1 .1-.3.2-.7.4-1 .1-.3.2-.7.4-1 .1-.3.2-.7.3-1 .1-.3.2-.7.3-1 .1-.3.2-.7.3-1 .1-.3.2-.7.3-1 0-.3.2-.7.3-1 0-.3.2-.7.3-1 0-.3.2-.7.3-1 0-.3.2-.7.3-1H664c-2.9 7.7-7.1 16.1-12.3 25.1l-15.9-7.6-1.2-.6-1.2-.6-1.2-.6-1.2-.6-.5-.3-.7-.3-.5-.3-.7-.3-.5-.2-.7-.3-.5-.2-.7-.3-.5-.2-.7-.3-.5-.2-.7-.3-.5-.2-.7-.3-.5-.2-.7-.3c1.1-1.9 2.1-3.9 3.1-5.8 1.7-3.2 3.2-6.5 4.6-9.7.1-.3.3-.6.4-.9 0 0 0-.2.1-.3.8-1.9 1.6-3.9 2.3-5.8v-.2c2.1-5.6 3.9-11.2 5.4-17 .1-.6.3-1.1.4-1.7 1.7-7.1 3-14.3 3.8-21.7 0-.7.1-1.3.2-2v-.8c0-.4 0-.8.1-1.2h1l.6.1h1.5c0 .1 1 .2 1 .2h1.3c0 .1 2.7.3 2.7.3l25.7 2.2v5.4c0 .3 0 .6-.1.9 0 .3 0 .6-.1.9 0 .3 0 .6-.1.9 0 .3 0 .6-.1.9 0 .3 0 .6-.1.9 0 .3 0 .6-.1.9-.5 3.8-1.1 7.4-1.6 10.7H692.9l53.3.2c0 .3 0 .7-.1 1l-1.3-.5zm156.7 108.8v.2c6.2 14.1 10.9 25.4 14.1 33.9l-22.5 9.2-.5.2-.5.2-.5.2-.5.2-.5.2-.5.2-.5.2-.6.3v-.2c-.1-.3-.2-.7-.4-1.1-.1-.3-.3-.7-.4-1.1-.1-.3-.3-.7-.4-1.1-.1-.3-.3-.7-.4-1.1-.1-.3-.3-.7-.4-1.1-.1-.3-.3-.7-.4-1.1-.1-.3-.3-.7-.4-1.1-.1-.4-.3-.7-.4-1.1-.1-.4-.3-.7-.4-1.1-23.7 3.2-51.2 5.9-82.8 8h-11.4l-1.4-22.2-.2-3V198.1l1.8-.1 15-.9.3-1.5c0-.4.1-.7.2-1.1 0-.4.1-.7.2-1.1 0-.4.1-.7.2-1.1 0-.4.1-.7.2-1.1 0-.4.1-.7.2-1.1 0-.3 0-.5.1-.8v-.3c0-.3 0-.5.1-.8 0-.4.1-.7.2-1.1 0-.4.1-.7.2-1.1 0-.4.1-.7.2-1.1 0-.4.1-.7.2-1.1 0-.4 0-.7.1-1.1 0-.4 0-.7.1-1.1 0-.4 0-.7.1-1.1 0-.4 0-.7.1-1.1 0-.4 0-.7.1-1.1 0-.4 0-.7.1-1.1.1-.4 0-.7.1-1.1l-28.1 1.4h-11.4l-1-21v-2.4c-.1 0-.2-2-.2-2v-2.8c-.1 0-.2-1.6-.2-1.6H771.5l6-.3H778.6l3.3-.2h1.6l1.8-.2h1.4l1.8-.2h1.4l3.2-.2 3.1-.2 3.1-.2h3.1c0-.1 7.4-.5 7.4-.5h4.4l4-.2h2l8.9-.4 19.4-.9 19.4-.9 19.4-.9H899.4l6-.3 14.8-.7v9.7l.1 1v1l.1 1 .8 17.3-26.1 1.3c1.9 4.3 3.7 8.4 5.4 12.3l1 .7zm30-100.4v.6c-.1 0-.2.3-.2.3v.6c-.1 0-.2.3-.2.3v.6c-.1 0-.2.2-.2.2v.6c-.1 0-.2.2-.2.2v.7c-.1 0-.2.2-.2.2v.7c-.1 0-.3.9-.3.9l-.2.9-.2.9-.2.9-.2.9-.2.9-4.6 23.7c-12.2-.5-26.5-2.7-42.6-6.7v7.2c-.1 0-.1.3-.1.3v2l-.3 15.9-61-.2H808.6V117.7c-10.7 7.3-23 14.6-37 21.6 0 0-.2 0-.3.1 0 0-.2 0-.3.1 0 0-.2 0-.3.1 0 0-.2 0-.3.1 0 0-.2 0-.3.1 0 0-.2 0-.3.1-.1.1-.2 0-.3.1 0 0-.2 0-.3.1 0 0-.2 0-.3.1 0 0-.2 0-.3.1 0 0-.2 0-.3.1 0 0-.2 0-.3.1l-7.7-11.7-.9-1.4-.9-1.4-.9-1.4-.9-1.4-.8-1.2c0-.1-.6-1.1-.6-1.1l-.2-.3c0-.1-.6-1-.6-1l-.2-.3c0-.1-.5-1-.5-1l-.3-.4c0-.1-.5-.9-.5-.9l-.3-.5c0-.1-.4-.7-.4-.7l-.2-.3-.2-.3v-.1l-.3-.5-.2-.3-.3-.4-.2-.4-.2-.3-.4-.6-.2-.2-.2-.3-.4-.6c.4-.2.8-.4 1.2-.7.4-.2.9-.5 1.3-.7.4-.2.8-.5 1.3-.7h.1c.5-.3.9-.5 1.3-.8.4-.2.9-.5 1.3-.7h.1c.4-.2.8-.5 1.2-.7h.1c.4-.2.8-.5 1.2-.7h.2c.4-.2.8-.4 1.1-.7 0 0 .1 0 .2-.1.4-.3.9-.5 1.3-.8.4-.3.9-.5 1.3-.8.4-.3.9-.5 1.3-.8.4-.3.9-.5 1.3-.8.4-.3.9-.5 1.3-.8 30.8-18.8 52.8-38.6 65.6-59.3l.7.3.3.2 1 .5.3.2 1 .5.4.2 1 .5.5.2 1.5.8 1.6.8 1.7.9 1.8.9 16.5 8.3c0 .1 0 .3-.1.4-.1.1 0 .3-.1.4 0 .1-.1.3-.2.4 0 .1-.1.3-.2.4 0 .1-.1.3-.2.4 0 .1-.1.3-.2.4 0 .1-.1.3-.2.4 0 .1-.1.3-.2.4 0 .1-.1.3-.2.4 0 .1-.1.3-.2.4 0 .1-.1.3-.2.4 0 .1-.1.3-.2.4-.6 1.4-1.4 2.8-2.1 4.3.4.2.8.5 1.2.7.4.2.8.5 1.2.7.4.2.8.4 1.2.7l1.2.6 1.2.6 1.2.6 1.2.6 1.2.6c.4.2.8.4 1.2.5.4.2.8.3 1.2.5.4.2.8.4 1.2.5.4.2.8.3 1.2.5 1.8.7 3.7 1.4 5.6 2.1h.2c1.2.4 2.4.8 3.7 1.2 2 .6 4 1.2 6.2 1.8 3.4.9 6.9 1.7 10.6 2.5 6.4 1.3 13.2 2.4 20.5 3.3 4.3.5 8.8 1 13.5 1.4v.3l.6-.2zm158.2-6.3v.2c-.1 0-.2.2-.2.2v.2c-.1 0-.3.2-.3.2v.2c-.1 0-.3.2-.3.2v.2c-.1 0-.3.2-.3.2l-.2.3-.2.3-.2.3-17.5 29.2C1055 99 1041.7 93 1030.4 92.6h-3.4c-26.8 0-41.2 13.3-43.3 40.2-1.3 16.5 2.3 28.8 10.8 36.9.2.2.4.3.5.5.2.1.3.3.5.4.2.2.4.3.6.5.2.2.4.3.6.5.2.1.4.3.6.4.2.1.4.3.6.4.2.1.4.3.6.4.2.1.4.3.6.4.2.1.4.3.6.4.2.1.4.3.6.4.2.1.4.3.6.4 3.5 2 7.5 3.6 12 4.8.2 0 .4.1.6.2.3 0 .7.2 1 .2.6.1 1.1.2 1.7.4.9.2 1.9.3 2.9.5.8.1 1.5.2 2.3.3h1.8c2.5 0 7.7.2 15.6.4v-1.3l.6-6v-.9l.2-.9v-.9l.2-.9v-.9l.2-.9v-.3l.1-.9v-.9l.2-.9v-.9l.2-.9v-.9l.2-.9v-.9l.2-.9v-.9l.2-.9v-.9l-17.1-.8h-1l-1-.1h-1l-1-.1h-8l1-25.9V129l.1-1.8V123.6h5.6l3.2.2 54.5 2.6H1078.8l1.3.1h.4v6.7l-.2.9v.9l-.2.9v.9l-.2.9-7.6 80.3c-10.5 1.7-21.1 2.6-31.8 2.6s-16.2-.5-24.4-1.6c-17.4-2.1-31.8-7.5-42.9-16.1-.2-.1-.4-.3-.6-.4-.2-.1-.3-.2-.5-.4-.2-.1-.3-.2-.5-.4s-.4-.4-.6-.5c-.2-.2-.4-.4-.6-.5-.2-.2-.4-.4-.6-.5-.1-.1-.3-.2-.4-.3-.1-.1-.3-.2-.4-.3l-.6-.6-.7-.7-.7-.7c-2-1.9-3.8-4-5.5-6.2-1.8-2.3-3.4-4.7-4.9-7.2-.6-.9-1.1-1.9-1.6-2.8-.6-1.1-1.1-2.2-1.6-3.3-.7-1.4-1.3-2.9-1.8-4.3-.7-1.8-1.4-3.7-1.9-5.6-.8-2.8-1.5-5.6-2-8.6-.7-3.8-1.1-7.8-1.4-11.9 0-.8 0-1.6-.1-2.4v-7.5c0-.9 0-1.9.1-2.8v-.6c0-.9.1-1.8.2-2.8 0-1.2.2-2.3.4-3.5.4-3.5.9-6.8 1.5-10.1 0-.5.2-1 .3-1.5.6-2.7 1.2-5.2 2-7.7.8-2.7 1.7-5.2 2.7-7.7.3-.8.7-1.6 1-2.4.3-.6.6-1.2.8-1.8.3-.6.6-1.1.8-1.7 5.7-11.1 14-20 24.8-26.6 3.3-2.1 6.8-4 10.3-5.5 5.1-2.2 10.4-3.9 15.9-5 .4 0 .9-.2 1.3-.2 3.9-.7 8-1.2 12.1-1.3h6.9c1 0 2 0 3 .1 1.3 0 2.7.2 4 .3 3.4.3 6.6.8 9.7 1.3 4.1.7 7.8 1.5 11.4 2.5 2.5.7 4.8 1.5 7 2.3.6.2 1.2.4 1.7.6 1 .4 2 .9 3.1 1.3 1.1.5 2.2 1.1 3.4 1.7 1 .5 2 1.1 3.1 1.7 5 2.9 10.6 6.5 16.7 10.9v.2l-.7-.5zm142.6 74.2c-4.9 22.1-14.5 38.4-28.6 48.8-10.5 7.8-22.7 11.7-36.6 11.7-13.9 0-12.1-.7-18.6-2.1-11.1-2.5-20.5-6.6-28.2-12.3-.2-.2-.4-.3-.6-.5-.2-.1-.3-.3-.5-.4-.2-.1-.3-.3-.5-.4-.2-.1-.4-.3-.5-.4l-.6-.6c-.2-.2-.4-.4-.6-.5-.1-.1-.3-.2-.4-.4-.1-.1-.3-.2-.4-.4-.1-.2-.3-.2-.4-.4l-.8-.8-.8-.8c-3.2-3.2-6-6.8-8.4-10.7-.5-.8-1-1.7-1.5-2.5-.3-.6-.6-1.1-.9-1.7-.2-.5-.5-1-.7-1.5l-1.5-3.3c0-.2-.2-.4-.3-.7-.2-.5-.4-1.1-.6-1.6-.3-.8-.6-1.6-.9-2.5-.1-.4-.2-.7-.3-1.1-.2-.6-.3-1.1-.5-1.7-.3-1.1-.6-2.1-.8-3.2-.2-.8-.3-1.7-.5-2.5 0-.4-.2-.8-.2-1.2-.1-.8-.2-1.5-.3-2.3-.1-.8-.2-1.7-.3-2.5 0-.9-.2-1.9-.3-2.8v-.2c0-.8-.1-1.5-.1-2.3V142c0-.9.1-1.8.2-2.7 0-1.1.2-2.2.3-3.3 0-.8.2-1.5.3-2.3v-.3l.6-4.2.3-1.8c0-.2 0-.4.1-.6V126.2c0-.4.2-.9.3-1.3l.3-1.5c0-.4.2-.9.3-1.3.4-1.7.8-3.3 1.2-4.9.5-1.8 1-3.5 1.5-5.2.7-2.2 1.5-4.4 2.3-6.5.5-1.3 1-2.6 1.6-3.8 1.9-4.2 4-8.2 6.4-11.7.3-.5.7-1 1-1.4l.6-.9c4.2-5.8 9.1-10.6 14.7-14.6 3-2.1 6.2-3.9 9.6-5.3 3.6-1.5 7.3-2.7 11.3-3.5.6-.1 1.1-.2 1.7-.3 3.1-.5 6.2-.8 9.5-.9h5c1 0 1.9 0 2.9.2 3.2.2 6.6.6 10 1.2 1.8.3 3.6.7 5.4 1.1 1.7.4 3.3.8 4.9 1.2 2.2.6 4.4 1.4 6.5 2.2 1.5.6 2.9 1.2 4.2 1.8 1.2.5 2.3 1.1 3.5 1.7l2.7 1.5c4.6 2.8 8.7 6 12.3 9.8 0 .1.2.2.3.3.2.2.3.4.5.5.2.2.3.4.5.5.2.2.3.4.5.5.2.2.3.4.5.5.1.2.3.3.4.5.2.2.3.4.4.6.2.2.3.4.4.6.1.2.3.4.4.6.1.2.3.4.4.5 2 2.7 3.8 5.6 5.4 8.7 8.2 15.8 9.7 34.3 5 55.3v.3zm57.9 42.1v.3l-.1.3v.8l-.1.5v.3l-.1.5v.3l-.1.5v.3l-.2.8v.8c-.1 0-.3.8-.3.8v.8c-.1 0-.3.8-.3.8v.8c-.1 0-.3.8-.3.8l-4.7 26.8-27.6-4.8-1.1-.2-1.1-.2-1.1-.2-1.1-.2-1.1-.2h-.2l-.9-.2h-.2l-.9-.2h-.2l-.9-.2h-.2l-.9-.2h-.2l-.9-.2h-1.1c0-.1-.2-.2-.2-.2h-.2l-.7-.2 5.5-31.5.3-1.8v-.6c.1 0 .3-1.1.3-1.1l.2-1.3h.7c0 .1.2.2.2.2h.5l.2.1h.7c0 .1.7.2.7.2h.5l2.7.6 4.3.8h.7c0 .1 30.1 5.4 30.1 5.4v.2l-.6-.2zm24.1-138.2v.3l-.1.5v.3l-.1.5v.3l-.1.5v.3l-.1.5v.3l-.2.8v.8c-.1 0-.3.8-.3.8v.8c-.1 0-.3.8-.3.8v.8c-.1 0-.3.8-.3.8l-20 114.4-27.6-4.8-1.1-.2-1.1-.2-1.1-.2-1.1-.2-1.1-.2h-.2l-.9-.2h-.2l-.9-.2h-.2l-.9-.2h-.2l-.9-.2h-1.1c0-.1-.2-.2-.2-.2h-.8c0-.1-.2-.1-.2-.1h-.9l1.5-8.6 2-11.2 1.9-10.8.9-5.3.7-3.8 13.9-79.4.4-2.5.2-1.1.2-1.4.9.2h.5l1.4.3h.7c0 .1 1.3.3 1.3.3l1.4.3h.7c0 .1 34.4 6.1 34.4 6.1v.5l-.8-.2z" fill="#3A2C1F"/><path d="M819.1 109.9H873c-13.8-4.1-25.6-9.9-35.4-17.3-5.4 5.9-11.6 11.7-18.6 17.2l.1.1zM844.6 195.1c.4 0 .8 0 1.2-.1.4 0 .8 0 1.2-.1.4 0 .8 0 1.2-.1.4 0 .8 0 1.2-.1.4 0 .8 0 1.1-.1.4 0 .8 0 1.1-.1.4 0 .7 0 1.1-.1.4 0 .7 0 1.1-.1.4 0 .7 0 1.1-.1.4 0 .7 0 1.1-.1.4 0 .7 0 1.1-.1H858.8c.4 0 .7 0 1.1-.1.4 0 .7 0 1.1-.1.4 0 .7 0 1.1-.1.4-.1.7 0 1.1-.1 2.3-.2 4.6-.5 6.9-.7h3v-.3c-.1 0-.4-.6-.4-.6l-.2-.4-1.7-3.8-.5-1-.5-1-.5-1-.5-1-.4-.8.6-.2 3-1.2 3-1.2 3-1.2 3-1.2 3-1.2 3-1.2 3-1.2-43.4 2.1c-.5 7.1-1 13.7-2 19.4v-.8zM1195.3 128.5c0-.4 0-.9-.1-1.3V126.3c-.4-2.5-1-4.8-1.8-7.1-.2-.6-.4-1.1-.7-1.6-.1-.2-.2-.4-.3-.7-.1-.2-.2-.4-.3-.7-.1-.2-.2-.4-.4-.6-.1-.2-.2-.4-.4-.6-.1-.2-.3-.4-.4-.6-.1-.2-.3-.4-.4-.6-.1-.2-.3-.4-.4-.6-.1-.2-.3-.4-.4-.6-.2-.2-.3-.4-.5-.6-.1-.2-.3-.3-.4-.5-.2-.2-.3-.4-.5-.6-3.5-3.7-8.2-6.2-14.2-7.6-3.3-.8-6.3-1.1-9.2-1.1-14.5 0-23.9 9.8-28.3 29.5-2.3 9.9-1.8 18.8 1.5 26.4 1.5 3.6 3.6 6.7 6.2 9.2.2.2.4.4.6.5.2.1.3.3.5.4.2.2.4.3.6.5.2.1.4.3.5.4.2.1.4.3.6.4.2.1.4.3.6.4.2.1.4.3.6.4.2.1.4.2.6.4.2.1.4.2.6.4.2.1.4.2.7.3l.6.3c2.2 1 4.6 1.9 7.2 2.4.7.2 1.4.3 2 .4h.3c.3 0 .5 0 .8.1.5 0 .9.1 1.4.1.8 0 1.6.1 2.4.1 1 0 2 0 3-.2 1.1-.1 2.3-.4 3.4-.7.3 0 .7-.2 1-.3.1 0 .3 0 .4-.1.6-.2 1.2-.4 1.8-.7.9-.4 1.8-.9 2.7-1.4 1.6-1 3.2-2.2 4.7-3.7 2.6-2.5 4.9-5.5 6.8-9.1 1.7-3.1 3.1-6.5 4.2-10.4.2-.7.4-1.5.6-2.2 0-.3.1-.5.2-.8.3-1.1.5-2.2.7-3.2.2-1.1.4-2.1.5-3.2.2-1.2.3-2.4.4-3.5.1-1.5.1-3 .1-4.5 0-.8 0-1.6-.1-2.4v.1zm-13.2 13.9v.3c-1.8 7.3-4.6 12.9-8.5 16.7-2.7 2.6-5.3 3.7-8.6 3.7s-2.7-.2-4.3-.5h-.3c-.2 0-.3-.1-.5-.2-1.2-4.5-1.2-9.8.2-15.8 4.5-20.3 13-20.3 16.6-20.3 3.6 0 3.9.3 6.2.8.9 4.5.6 9.6-.9 15.4l.1-.1z" fill="#3A2C1F"/></g><defs><clipPath id="a"><path fill="#fff" transform="translate(414 30)" d="M0 0h924.4v225.5H0z"/></clipPath></defs></svg>